<?xml version="1.0" encoding="utf-8"?>
<!-- Generator: Adobe Illustrator 16.0.0, SVG Export Plug-In . SVG Version: 6.00 Build 0)  -->
<!DOCTYPE svg PUBLIC "-//W3C//DTD SVG 1.1//EN" "http://www.w3.org/Graphics/SVG/1.1/DTD/svg11.dtd">
<svg version="1.1" id="Layer_1" xmlns="http://www.w3.org/2000/svg" xmlns:xlink="http://www.w3.org/1999/xlink" x="0px" y="0px"
	 width="18.75px" height="12px" viewBox="0 0 18.75 12" enable-background="new 0 0 18.75 12" xml:space="preserve">
<g>
	<path fill-rule="evenodd" clip-rule="evenodd" fill="#515151" d="M15.76,0H0.82C0.37,0,0,0.36,0,0.8v0.03
		c0,0.45,0.37,0.81,0.82,0.81h14.94c0.45,0,0.82-0.36,0.82-0.81V0.8C16.58,0.36,16.21,0,15.76,0z"/>
	<path fill-rule="evenodd" clip-rule="evenodd" fill="#515151" d="M17.93,5.24H0.82C0.37,5.24,0,5.6,0,6.04v0.03
		c0,0.45,0.37,0.81,0.82,0.81h17.11c0.45,0,0.82-0.36,0.82-0.81V6.04C18.75,5.6,18.38,5.24,17.93,5.24z"/>
	<path fill-rule="evenodd" clip-rule="evenodd" fill="#515151" d="M10.81,10.36H0.82c-0.45,0-0.82,0.36-0.82,0.8v0.03
		C0,11.64,0.37,12,0.82,12h9.99c0.46,0,0.83-0.36,0.83-0.81v-0.03C11.64,10.72,11.27,10.36,10.81,10.36z"/>
</g>
</svg>
