<?xml version="1.0" encoding="utf-8"?>
<!-- Generator: Adobe Illustrator 16.0.0, SVG Export Plug-In . SVG Version: 6.00 Build 0)  -->
<!DOCTYPE svg PUBLIC "-//W3C//DTD SVG 1.1//EN" "http://www.w3.org/Graphics/SVG/1.1/DTD/svg11.dtd">
<svg version="1.1" id="Layer_1" xmlns="http://www.w3.org/2000/svg" xmlns:xlink="http://www.w3.org/1999/xlink" x="0px" y="0px"
	 width="548.02px" height="256.34px" viewBox="0 0 548.02 256.34" enable-background="new 0 0 548.02 256.34" xml:space="preserve">
<g>
	<path fill="#F8C920" d="M110.69,101.73c27.3,0,49.44-22.33,49.44-49.89S137.99,1.95,110.69,1.95c-27.3,0-49.44,22.33-49.44,49.89
		S83.39,101.73,110.69,101.73z"/>
	<path fill-rule="evenodd" clip-rule="evenodd" fill="#FFFFFF" d="M146.24,22.4c-0.53-0.68-1.16-1.36-1.95-2.13
		c-6.9-6.97-15.81-11.48-25.39-12.94c-0.04,13.45-5.14,26.47-14.34,36.26c-0.32,0.4-0.67,0.76-1.02,1.1
		c-9.86,9.98-23.18,15.52-37.02,15.58c1.47,9.65,5.96,18.63,12.84,25.59c0.72,0.69,1.4,1.37,2.25,2.07
		c6.62,5.91,14.59,9.66,23.23,10.96c0.01-13.98,5.47-27.44,15.35-37.43c0.42-0.43,0.85-0.86,1.26-1.22
		c9.7-9.2,22.55-14.3,35.78-14.34C155.91,37.19,152.18,29.15,146.24,22.4z M79.35,20.36c-0.4,0.39-0.81,0.81-1.32,1.41
		c-7.85,8.6-12.12,20.04-12.01,31.73c12.24,0.08,24.05-4.77,32.8-13.6c0.19-0.21,0.41-0.42,0.6-0.65l0.19-0.23
		c8.2-8.67,12.68-20.28,12.59-32.23C99.93,6.67,88.1,11.51,79.35,20.36z M144.02,86.16c0.11-0.1,0.21-0.21,0.33-0.33
		c8.73-8.84,13.53-20.78,13.41-33.15c-11.72-0.11-23.14,4.36-31.78,12.54c-0.37,0.33-0.71,0.69-1.05,1.02
		c-8.74,8.84-13.52,20.78-13.39,33.17c12.01,0.07,23.61-4.59,32.22-13.04C143.84,86.3,143.93,86.22,144.02,86.16z M148.34,91.32
		c-10.69,10.43-25.36,15.8-40.26,14.73h-0.01l-0.12-0.01c-0.03-0.01-0.06-0.01-0.1-0.01c-11.47-0.85-22.07-5.34-30.56-12.93
		c-0.95-0.78-1.78-1.59-2.63-2.43c-8.9-8.98-14.3-20.84-15.23-33.43c0-0.02-0.03-0.06-0.03-0.08c0-0.04-0.03-0.09-0.03-0.13V57
		c0-14.59,3.93-29.11,13.61-39.69c0.52-0.62,1.09-1.19,1.63-1.73C84.51,5.56,97.87,0,111.76,0c1.3,0,2.61,0.05,3.92,0.14l0.03,0.02
		c12.58,0.87,24.4,6.32,33.28,15.29c0.95,0.92,1.76,1.8,2.37,2.57c7.62,8.67,12.09,19.36,12.95,30.93c0.01,0.03,0.05,0.05,0.06,0.07
		c0,0.05,0.07,0.09,0.07,0.13v0.01c0,15.39-4.47,30.51-15.29,41.43C148.91,90.85,148.61,91.1,148.34,91.32z"/>
	<path fill="#FFFFFF" d="M137.94,119.98c0.86,0,1.72,0.33,2.37,1l15.19,15.31c1.31,1.32,1.31,3.47,0,4.79
		c-1.31,1.32-3.44,1.32-4.75,0l-15.17-15.32c-1.31-1.33-1.31-3.46,0-4.78C136.22,120.31,137.08,119.98,137.94,119.98z"/>
	<path fill="#FFFFFF" d="M152.58,103.8c0.66-0.66,1.52-0.99,2.37-0.99c0.86,0,1.72,0.33,2.38,0.99l17.12,17.29
		c1.3,1.32,1.3,3.45,0,4.78c-1.32,1.32-3.43,1.32-4.74,0l-17.13-17.28C151.27,107.27,151.27,105.12,152.58,103.8z"/>
	<path fill="#FFFFFF" d="M180.33,128.42c0.85,0,1.71,0.33,2.37,0.99l7.4,7.47c1.31,1.32,1.31,3.46,0,4.78
		c-1.31,1.32-3.43,1.32-4.74,0l-7.4-7.46c-1.31-1.33-1.31-3.47,0-4.79C178.61,128.75,179.46,128.42,180.33,128.42z"/>
	<path fill="#FFFFFF" d="M222.99,140.48c-1.3,1.33-3.42,1.33-4.73,0L169.62,91.4c-1.31-1.32-1.31-3.47,0-4.79
		c0.66-0.66,1.51-0.98,2.37-0.98c0.85,0,1.71,0.32,2.37,0.98l48.63,49.09C224.3,137.03,224.3,139.16,222.99,140.48z"/>
</g>
<g>
	<path fill-rule="evenodd" clip-rule="evenodd" fill="#FFFFFF" d="M26.12,229.67h8.14v-6.57l-7.27-0.61
		c-2.62-0.2-4.78-1.15-6.46-2.84c-1.75-1.7-2.56-4.88-2.56-9.48v-33.32H35.2v-7.38H17.97v-16.79h-6.86l-1.49,16.79L0,171.1v5.75
		h9.56l-0.34,33.32c-0.2,6.9,1.08,11.91,3.9,14.96C15.88,228.18,20.19,229.67,26.12,229.67z"/>
	<path fill-rule="evenodd" clip-rule="evenodd" fill="#FFFFFF" d="M56.01,197.3c0-5.82,0.47-10.22,1.41-13.34
		c0.94-3.11,2.62-5.28,4.91-6.56c2.29-1.22,5.66-1.9,10.03-1.9c5.39,0,9.23,0.95,11.45,2.84c2.15,1.9,3.3,5.42,3.3,10.43
		c0,3.18-0.81,5.42-2.36,6.64c-1.62,1.28-4.11,1.89-7.47,1.89H56.01z M72.23,230.34c3.9,0,7.47-0.13,10.63-0.4
		c3.1-0.27,6.74-0.61,10.78-1.15v-5.42H74.38c-4.98,0-8.75-0.61-11.37-1.96c-2.63-1.29-4.45-3.32-5.39-6.17
		c-0.94-2.84-1.48-6.83-1.55-12.05h21.95c5.45,0,9.62-1.15,12.59-3.45c2.96-2.3,4.44-5.96,4.44-11.1c0-5.08-0.81-9.08-2.36-11.99
		c-1.61-2.84-4.04-4.87-7.27-6.09c-3.3-1.22-7.67-1.83-13.06-1.83c-6.39,0-11.37,0.95-14.94,2.71c-3.64,1.83-6.19,4.94-7.81,9.34
		c-1.62,4.47-2.36,10.7-2.36,18.69c0,7.99,0.74,14.15,2.36,18.62c1.55,4.47,4.11,7.58,7.67,9.48
		C60.79,229.46,65.77,230.34,72.23,230.34z"/>
	<path fill-rule="evenodd" clip-rule="evenodd" fill="#FFFFFF" d="M109.66,229.67h8.88v-47.2c3.5-2.03,6.6-3.52,9.43-4.46
		c2.82-0.95,5.99-1.43,9.62-1.43c3.84,0,6.87,1.22,9.09,3.66c2.22,2.44,3.37,5.62,3.37,9.55v39.88h8.82v-40.9
		c0-5.82-1.55-10.7-4.58-14.56c-3.1-3.79-7.74-5.75-13.94-5.75c-3.77,0-7.6,0.74-11.37,2.23c-3.84,1.49-7.34,3.32-10.44,5.49
		l-1.88-6.71h-7V229.67z"/>
	<path fill-rule="evenodd" clip-rule="evenodd" fill="#FFFFFF" d="M174.28,229.67h8.89v-47.2c3.5-2.03,6.59-3.52,9.42-4.46
		c2.83-0.95,5.99-1.43,9.63-1.43c3.83,0,6.86,1.22,9.09,3.66c2.22,2.44,3.36,5.62,3.36,9.55v39.88h8.82v-40.9
		c0-5.82-1.55-10.7-4.58-14.56c-3.09-3.79-7.74-5.75-13.93-5.75c-3.77,0-7.61,0.74-11.38,2.23c-3.84,1.49-7.34,3.32-10.43,5.49
		l-1.89-6.71h-7V229.67z"/>
	<path fill-rule="evenodd" clip-rule="evenodd" fill="#FFFFFF" d="M238.91,229.67h8.88v-60.2h-8.88V229.67z M240.25,158.78h6.33
		c1.08,0,1.68-0.55,1.68-1.76v-8.81c0-1.22-0.6-1.82-1.68-1.82h-6.33c-1.21,0-1.75,0.6-1.75,1.82v8.81c0,0.54,0.14,0.94,0.47,1.28
		C239.31,158.64,239.71,158.78,240.25,158.78z"/>
	<path fill-rule="evenodd" clip-rule="evenodd" fill="#FFFFFF" d="M285.42,230.34c6.87,0,12.19-1.08,15.82-3.38
		c3.64-2.24,5.52-6.23,5.52-11.92v-4.2c0-4.74-1.55-8.46-4.51-11.03c-2.96-2.58-7.2-3.86-12.59-3.86h-8.55
		c-3.97,0-6.93-0.54-8.82-1.63c-1.88-1.08-2.82-3.18-2.82-6.43v-2.5c0-3.53,0.94-5.96,2.89-7.32c1.95-1.35,4.98-2.03,9.02-2.03
		h23.09v-5.42c-2.49-0.4-5.92-0.81-10.3-1.15c-4.37-0.33-8.14-0.54-11.37-0.54c-7.41,0-12.73,1.36-16.03,4
		c-3.36,2.64-4.98,6.77-4.98,12.46v3.18c0,5.41,1.55,9.21,4.65,11.44c3.09,2.3,7.47,3.39,13.26,3.39h8.41
		c7.21,0,10.84,2.84,10.84,8.46v2.71c0,3.65-1.01,6.02-2.96,7.11c-1.95,1.15-4.98,1.69-9.16,1.69h-24.5v5.42
		c1.82,0.47,5.25,0.88,10.37,1.15C277.81,230.14,282.06,230.34,285.42,230.34z"/>
	<path fill-rule="evenodd" clip-rule="evenodd" fill="#FFFFFF" d="M321.03,229.8h4.92c1.21,0,1.81-0.61,1.81-1.83v-9
		c0-1.22-0.6-1.83-1.81-1.83h-4.92c-1.21,0-1.82,0.61-1.82,1.83v9c0,0.55,0.14,1.02,0.48,1.36
		C320.02,229.67,320.49,229.8,321.03,229.8z"/>
	<path fill-rule="evenodd" clip-rule="evenodd" fill="#FFFFFF" d="M368.36,222.9c-5.79,0-11.52-1.56-17.17-4.81v-36.9
		c2.69-1.49,5.45-2.64,8.28-3.59c2.76-0.95,5.72-1.42,8.89-1.42c4.3,0,7.87,1.96,10.7,5.75s4.24,9.68,4.24,17.54
		C383.3,215.11,378.32,222.9,368.36,222.9z M342.3,256.34h8.89v-31.62c3.03,1.76,6.26,3.12,9.69,4.2c3.37,1.02,6.67,1.56,9.9,1.56
		c7.27,0,12.65-2.57,16.15-7.79c3.51-5.14,5.26-12.93,5.26-23.22c0-8.94-1.75-16.25-5.26-22.07c-3.5-5.76-8.88-8.67-16.15-8.67
		c-3.37,0-6.94,0.74-10.57,2.23c-3.64,1.49-6.66,3.05-9.02,4.74l-1.68-6.23h-7.21V256.34z"/>
	<path fill-rule="evenodd" clip-rule="evenodd" fill="#FFFFFF" d="M422.61,229.8h7.68v-6.43l-6.06-0.68
		c-2.96-0.34-5.05-1.42-6.4-3.25c-1.34-1.76-2.02-5.14-2.02-10.15v-65.61h-8.88v66.69c0,7.11,1.28,12.12,3.83,15.03
		C413.32,228.38,417.29,229.8,422.61,229.8z"/>
	<path fill-rule="evenodd" clip-rule="evenodd" fill="#FFFFFF" d="M459.23,230.34c7.41,0,14.88-2.43,22.55-7.31l1.89,6.64h6.93
		v-60.2h-8.82v47.26c-3.23,1.97-6.32,3.39-9.22,4.34c-2.96,0.95-6.06,1.42-9.42,1.42c-4.45,0-7.68-0.95-9.83-2.84
		c-2.16-1.9-3.17-5.22-3.17-10.03v-40.15h-8.81v42.39C441.33,224.18,447.25,230.34,459.23,230.34z"/>
	<path fill-rule="evenodd" clip-rule="evenodd" fill="#FFFFFF" d="M526.68,230.34c6.87,0,12.19-1.08,15.82-3.38
		c3.64-2.24,5.52-6.23,5.52-11.92v-4.2c0-4.74-1.54-8.46-4.51-11.03c-2.96-2.58-7.2-3.86-12.58-3.86h-8.55
		c-3.979,0-6.94-0.54-8.82-1.63c-1.89-1.08-2.83-3.18-2.83-6.43v-2.5c0-3.53,0.94-5.96,2.89-7.32c1.96-1.35,4.99-2.03,9.03-2.03
		h23.08v-5.42c-2.49-0.4-5.92-0.81-10.29-1.15c-4.38-0.33-8.15-0.54-11.38-0.54c-7.41,0-12.72,1.36-16.02,4
		c-3.37,2.64-4.98,6.77-4.98,12.46v3.18c0,5.41,1.54,9.21,4.64,11.44c3.1,2.3,7.47,3.39,13.26,3.39h8.42
		c7.2,0,10.83,2.84,10.83,8.46v2.71c0,3.65-1.01,6.02-2.96,7.11c-1.95,1.15-4.98,1.69-9.15,1.69h-24.51v5.42
		c1.82,0.47,5.26,0.88,10.37,1.15C519.08,230.14,523.32,230.34,526.68,230.34z"/>
</g>
</svg>
