<svg xmlns="http://www.w3.org/2000/svg" width="42" height="42"><circle fill-rule="evenodd" clip-rule="evenodd" fill="#C9F" cx="21" cy="21" r="21"/><path fill-rule="evenodd" clip-rule="evenodd" fill="#FFF" d="M35.42 23.32c-.37-.22-.84-.17-1.29.13l-8.31 5.57c-.23.15-.3.48-.15.72.14.25.45.32.68.17l8.3-5.57c.18-.12.27-.11.29-.1.01.01.07.09.07.31 0 .59-.41 1.39-.88 1.71l-8.05 5.39c-.43.29-.82.37-1.08.22-.25-.15-.4-.54-.4-1.08 0-1.37.92-3.13 2-3.86l9.17-6.15c.14-.09.23-.26.23-.44s-.09-.35-.23-.45L18.16 8.08a.467.467 0 0 0-.53 0L8.35 14.3C7.03 15.19 6 17.18 6 18.84v.28c0 1.66 1.03 3.65 2.35 4.53l13.8 9.26c.23.15.54.08.68-.17.15-.24.08-.57-.15-.72l-13.8-9.26c-1.03-.68-1.89-2.35-1.89-3.64v-.28c0-1.29.86-2.96 1.89-3.65l9.01-6.04 16.69 11.19-8.5 5.7c-1.39.92-2.47 3.01-2.47 4.75 0 .95.33 1.66.91 2 .24.14.5.21.78.21.41 0 .85-.15 1.3-.45l8.05-5.4c.76-.51 1.35-1.65 1.35-2.6 0-.57-.21-1.02-.58-1.23z"/><path fill-rule="evenodd" clip-rule="evenodd" fill="#FFF" d="M29.32 20.86c.16 0 .32-.08.42-.24a.56.56 0 0 0-.16-.73l-11.42-7.66a.485.485 0 0 0-.69.16c-.14.25-.07.58.16.73l11.43 7.66c.08.06.17.08.26.08zm-1.98 1.4c.17 0 .33-.09.42-.25.15-.24.08-.57-.16-.72l-4.82-3.22a.474.474 0 0 0-.68.16c-.15.25-.08.57.15.73l4.83 3.22c.08.05.17.08.26.08zm-6.58-2.81a.478.478 0 0 0-.68.17c-.14.25-.07.57.16.72l4.86 3.24c.08.05.17.08.26.08.17 0 .33-.09.42-.25.15-.25.08-.57-.15-.73l-4.87-3.23zm-5.19-5.84l-4.11 2.75c-.14.1-.23.27-.23.45s.09.35.24.45l4.9 3.24c.08.05.17.08.26.08s.19-.03.27-.08l1.09-.76c.23-.15.29-.48.15-.72a.479.479 0 0 0-.69-.16l-.83.57-3.96-2.62 3.18-2.13 3.9 2.6-.45.32c-.23.15-.3.48-.15.72.15.25.46.32.69.16l1.1-.76c.15-.1.23-.27.23-.45s-.09-.34-.23-.44l-4.83-3.22a.467.467 0 0 0-.53 0zm8.24 11.2a.56.56 0 0 0-.16-.73l-4.9-3.24a.469.469 0 0 0-.68.17c-.15.24-.08.57.16.72l4.9 3.25c.08.05.17.08.26.08.16 0 .32-.09.42-.25zM9.53 18.07c-.15.25-.07.57.16.72l12.1 8.01c.08.06.17.08.26.08.16 0 .32-.09.42-.25.14-.24.07-.57-.16-.72l-12.1-8.01a.476.476 0 0 0-.68.17z"/></svg>