<?xml version="1.0" encoding="utf-8"?>
<!-- Generator: Adobe Illustrator 16.0.0, SVG Export Plug-In . SVG Version: 6.00 Build 0)  -->
<!DOCTYPE svg PUBLIC "-//W3C//DTD SVG 1.1//EN" "http://www.w3.org/Graphics/SVG/1.1/DTD/svg11.dtd">
<svg version="1.1" id="Layer_1" xmlns="http://www.w3.org/2000/svg" xmlns:xlink="http://www.w3.org/1999/xlink" x="0px" y="0px"
	 width="30.217px" height="28.45px" viewBox="0.889 1.778 30.217 28.45" enable-background="new 0.889 1.778 30.217 28.45"
	 xml:space="preserve">
<g>
	<g>
		<path fill="#FFFFFF" d="M8.261,21.291c0.267,0.171,0.571,0.287,0.881,0.371c0.621,0.169,1.269,0.25,1.917,0.237
			c0.647,0.013,1.296-0.067,1.917-0.238c0.31-0.085,0.614-0.2,0.881-0.371c0.269-0.161,0.516-0.398,0.559-0.731h0.01
			c0-0.844-1.506-1.526-3.367-1.526c-1.86,0-3.368,0.683-3.368,1.526h0.01C7.745,20.892,7.992,21.13,8.261,21.291z"/>
		<path fill="#FFFFFF" d="M14.279,21.202c-0.096,0.139-0.222,0.253-0.356,0.352c-0.271,0.195-0.581,0.332-0.896,0.436
			c-0.634,0.206-1.302,0.288-1.967,0.291c-0.665-0.003-1.333-0.085-1.968-0.291c-0.315-0.104-0.624-0.24-0.896-0.436
			c-0.134-0.099-0.26-0.213-0.355-0.352c-0.074-0.103-0.127-0.223-0.149-0.349v1.303c0,0.979,1.508,1.771,3.368,1.771
			c1.861,0,3.367-0.792,3.367-1.771v-1.303C14.406,20.979,14.353,21.1,14.279,21.202z"/>
	</g>
</g>
<g>
	<g>
		<path fill="#FFFFFF" d="M27.13,2.091c0,0-7.42,14.518-10.663,20.707c-0.683,1.305-1.181,2.239-1.385,2.59
			c-1.171,2.016-3.094,2.719-5.625,1.781c-2.532-0.938-5.532-2.203-6.142-1.594c-0.609,0.609-1.406,2.484,0.938,3.374
			c2.343,0.892,7.219,1.688,9,0.749c1.245-0.654,2.262-2.133,4.438-6.309c0-0.001,0.001-0.001,0.001-0.001
			c-0.239,0.029-0.477-0.035-0.689-0.137c-0.105-0.054-0.207-0.115-0.298-0.191c-0.091-0.074-0.176-0.159-0.239-0.263
			c0.363-0.725,0.722-0.242,0.924-0.145c0.199,0.1,0.619,0.115,0.303,0.735c0.939-1.798,2.094-4.098,3.575-7.049
			c4.924-9.796,6.518-13.171,6.799-13.687C28.349,2.138,27.397,1.567,27.13,2.091z"/>
	</g>
</g>
</svg>
