<?xml version="1.0" encoding="utf-8"?>
<!-- Generator: Adobe Illustrator 16.0.0, SVG Export Plug-In . SVG Version: 6.00 Build 0)  -->
<!DOCTYPE svg PUBLIC "-//W3C//DTD SVG 1.1//EN" "http://www.w3.org/Graphics/SVG/1.1/DTD/svg11.dtd">
<svg version="1.1" id="Layer_1" xmlns="http://www.w3.org/2000/svg" xmlns:xlink="http://www.w3.org/1999/xlink" x="0px" y="0px"
	 width="32px" height="32px" viewBox="0 0 32 32" enable-background="new 0 0 32 32" xml:space="preserve">
<path fill-rule="evenodd" clip-rule="evenodd" fill="#FFFFFF" d="M16.561,0.043c4.663-0.063,7.529,2.737,8.601,6.261
	c0.266,0.88,0.377,1.856,0.377,3.023c0,0.319,0.028,0.683-0.018,0.972c-0.026,0.344-0.055,0.689-0.082,1.034
	c-0.163,0.848-0.315,1.613-0.603,2.321c-0.356,0.883-0.811,1.645-1.349,2.347c-0.263,0.3-0.527,0.6-0.793,0.9
	c-0.559,0.576-1.12,1.151-1.682,1.727c-0.164,0.165-0.328,0.33-0.493,0.496c-0.195,0.245-0.425,0.458-0.63,0.693
	c-0.253,0.289-0.479,0.629-0.685,0.961c-0.066,0.106-0.084,0.222-0.145,0.342c-0.204,0.414-0.373,0.843-0.485,1.367
	c-0.121,0.57-0.063,1.306-0.063,1.962c0,0.551,0,1.104,0,1.653c0,0.109,0.025,0.527-0.018,0.575c-0.99,0-1.979,0-2.969,0
	c0-0.575,0-1.149,0-1.726c0-0.333,0-0.666,0-0.998c0-0.944-0.029-1.729-0.296-2.385c-0.23-0.56-0.527-1.104-0.873-1.556
	c-0.24-0.263-0.48-0.527-0.72-0.792c-0.279-0.277-0.558-0.557-0.837-0.837c-0.344-0.428-0.807-0.762-1.151-1.187
	c-0.228-0.243-0.455-0.485-0.684-0.729c-0.438-0.544-0.872-1.081-1.241-1.699c-0.52-0.872-0.773-1.879-1.053-3.004
	c-0.107-0.435-0.067-0.912-0.145-1.378c-0.002-0.179-0.005-0.359-0.008-0.54c0-0.284,0-0.569,0-0.855
	c0.006-0.226,0.012-0.455,0.019-0.682c0.086-0.535,0.086-1.066,0.215-1.547c0.757-2.819,2.342-4.865,4.812-5.965
	c0.579-0.257,1.19-0.427,1.863-0.602c0.272-0.045,0.545-0.089,0.817-0.134C16.351,0.055,16.456,0.05,16.561,0.043z M16.829,1.798
	c-0.199,0.018-0.4,0.037-0.602,0.055C15.818,1.929,15.444,2,15.076,2.113c-1.198,0.366-2.048,1.067-2.861,1.816
	c-0.648,0.601-1.192,1.549-1.493,2.493C10.6,6.807,10.491,7.23,10.407,7.663c-0.027,0.285-0.054,0.57-0.08,0.855
	c-0.002,0.257-0.006,0.515-0.01,0.773c0,0.594-0.014,1.194,0.081,1.7c0.088,0.462,0.115,0.881,0.234,1.295
	c0.3,1.045,0.759,1.829,1.332,2.583c0.29,0.382,0.678,0.682,0.999,1.035c0.707,0.732,1.416,1.463,2.122,2.194
	c0.59,0.592,1.2,1.214,1.548,2.041c0.157,0.375,0.251,0.742,0.36,1.188c0.008,0.004,0.018,0.007,0.026,0.01
	c0.008-0.006,0.018-0.014,0.027-0.019c0.186-1.435,1.21-2.734,2.122-3.454c0.522-0.537,1.044-1.073,1.564-1.61
	c0.184-0.18,0.367-0.361,0.55-0.541c0.216-0.23,0.431-0.462,0.648-0.692c0.375-0.47,0.756-0.944,1.024-1.521
	c0.313-0.674,0.495-1.432,0.666-2.275c0.104-0.508,0.108-1.068,0.108-1.664c0-0.987-0.045-1.903-0.279-2.664
	c-0.14-0.451-0.259-0.878-0.441-1.286c-0.235-0.524-0.588-0.962-0.926-1.385C21.008,2.878,19.257,1.795,16.829,1.798z M16.902,2.761
	c1.034-0.023,1.089,1.245,0.225,1.421c-0.532,0.107-0.958-0.467-0.791-0.963C16.433,2.929,16.63,2.882,16.902,2.761z M12.62,4.91
	c0.991-0.022,1.064,1.275,0.18,1.439c-0.519,0.097-0.932-0.467-0.782-0.945C12.118,5.087,12.315,5.031,12.62,4.91z M14.744,4.91
	c1.017-0.021,1.1,1.246,0.243,1.431c-0.57,0.122-0.969-0.404-0.81-0.937C14.269,5.098,14.46,5.033,14.744,4.91z M19.053,4.91
	c1.04-0.022,1.094,1.253,0.233,1.439c-0.545,0.119-0.972-0.463-0.782-0.98C18.604,5.099,18.785,5.019,19.053,4.91z M21.222,4.91
	c1.021-0.021,1.063,1.263,0.196,1.439c-0.519,0.106-0.938-0.407-0.792-0.918C20.72,5.107,20.913,5.031,21.222,4.91z M16.947,4.919
	c0.994-0.02,1.03,1.289,0.135,1.439c-0.534,0.092-0.921-0.491-0.738-0.989C16.463,5.047,16.637,5.046,16.947,4.919z M12.684,7.15
	c0.957,0.002,0.994,1.327,0.063,1.457c-0.521,0.074-0.907-0.517-0.72-0.998c0.08-0.206,0.236-0.371,0.459-0.433
	C12.551,7.168,12.617,7.16,12.684,7.15z M14.807,7.15c0.988-0.01,1.021,1.308,0.134,1.457c-0.539,0.092-0.934-0.512-0.747-0.998
	C14.332,7.254,14.46,7.28,14.807,7.15z M16.92,7.15c1.021-0.021,1.067,1.278,0.198,1.449c-0.548,0.106-0.943-0.429-0.782-0.955
	C16.432,7.327,16.628,7.28,16.92,7.15z M19.143,7.15c0.979,0.068,1.004,1.328,0.081,1.457c-0.537,0.076-0.917-0.522-0.711-1.035
	c0.081-0.203,0.255-0.34,0.477-0.404C19.039,7.163,19.091,7.157,19.143,7.15z M21.239,7.15c0.984-0.018,1.068,1.298,0.162,1.457
	c-0.558,0.098-0.917-0.479-0.766-0.98C20.736,7.292,20.929,7.275,21.239,7.15z M14.87,9.408c0.328,0.08,0.538,0.153,0.656,0.433
	c0.219,0.52-0.214,1.121-0.782,1.025c-0.464-0.078-0.799-0.621-0.504-1.115c0.092-0.152,0.258-0.273,0.45-0.324
	C14.75,9.421,14.809,9.415,14.87,9.408z M16.956,9.408c0.944,0.002,1.042,1.27,0.215,1.449c-0.574,0.126-1.054-0.463-0.827-1.008
	C16.478,9.529,16.634,9.536,16.956,9.408z M19.098,9.408c0.995-0.018,1.064,1.304,0.188,1.458c-0.604,0.105-0.991-0.491-0.773-1.034
	C18.636,9.523,18.788,9.526,19.098,9.408z M12.648,9.417c0.973-0.02,1.025,1.282,0.189,1.448c-0.576,0.115-0.99-0.471-0.81-0.971
	C12.149,9.554,12.317,9.547,12.648,9.417z M21.184,9.417c0.985-0.021,1.139,1.176,0.343,1.43c-0.563,0.18-1.085-0.361-0.9-0.927
	C20.729,9.61,20.899,9.549,21.184,9.417z M16.938,11.676c1.008-0.022,1.045,1.285,0.188,1.456c-0.55,0.11-0.949-0.457-0.791-0.955
	C16.437,11.859,16.64,11.804,16.938,11.676z M19.197,11.676c0.372,0.042,0.587,0.221,0.682,0.539
	c0.152,0.504-0.315,1.005-0.809,0.917c-0.51-0.09-0.827-0.7-0.469-1.187c0.089-0.118,0.24-0.212,0.405-0.251
	C19.07,11.687,19.133,11.681,19.197,11.676z M12.639,11.685c0.969-0.021,1.053,1.301,0.18,1.457
	c-0.527,0.094-0.961-0.448-0.801-0.953c0.066-0.212,0.236-0.392,0.44-0.467C12.519,11.708,12.579,11.696,12.639,11.685z
	 M14.744,11.685c1.051-0.023,1.112,1.276,0.216,1.457c-0.532,0.108-0.938-0.474-0.783-0.964
	C14.276,11.867,14.463,11.819,14.744,11.685z M21.239,11.685c0.981-0.02,1.076,1.283,0.162,1.457
	c-0.502,0.096-0.913-0.432-0.775-0.937C20.726,11.846,20.933,11.832,21.239,11.685z M14.825,13.914
	c0.942-0.005,0.993,1.295,0.152,1.467c-0.49,0.101-0.971-0.431-0.827-0.908C14.272,14.065,14.451,14.058,14.825,13.914z
	 M19.098,13.914c0.974-0.017,1.068,1.277,0.226,1.467c-0.571,0.129-1.003-0.469-0.819-0.999
	C18.605,14.083,18.81,14.037,19.098,13.914z M16.902,13.923c1.059-0.022,1.098,1.302,0.189,1.467c-0.442,0.08-0.903-0.43-0.783-0.89
	C16.407,14.121,16.587,14.081,16.902,13.923z M16.912,16.352c0.956-0.021,1.061,1.198,0.259,1.385
	c-0.509,0.121-1.026-0.427-0.827-0.917C16.472,16.51,16.615,16.489,16.912,16.352z M22.92,20.787
	c0.966,0.012,1.022,1.277,0.125,1.449c-0.49,0.094-0.94-0.473-0.781-0.945c0.076-0.226,0.248-0.4,0.476-0.477
	C22.801,20.805,22.86,20.796,22.92,20.787z M22.856,23.459c1.509-0.023,2.402,0.717,2.825,1.782c0.163,0.412,0.29,1.062,0.183,1.627
	c-0.048,0.238-0.114,0.46-0.2,0.666c-0.399,0.952-1.171,1.486-2.339,1.683c-0.398,0.065-0.866-0.015-1.15-0.107
	c-0.969-0.321-1.577-0.97-1.872-1.962c-0.077-0.26-0.145-0.671-0.09-0.997c0.054-0.329,0.046-0.582,0.152-0.838
	c0.312-0.752,0.831-1.298,1.557-1.638c0.205-0.061,0.408-0.12,0.611-0.18C22.642,23.483,22.749,23.471,22.856,23.459z
	 M23.136,24.528c-0.147,0.057-0.309,0.047-0.441,0.1c-0.627,0.255-1.046,0.673-1.248,1.36c-0.113,0.381-0.204,0.896,0.144,1.104
	c0.078,0.048,0.208,0.075,0.314,0.046c0.356-0.107,0.231-0.508,0.342-0.864c0.077-0.252,0.266-0.512,0.459-0.655
	c0.133-0.102,0.292-0.166,0.495-0.199c0.367-0.06,0.688,0.18,0.897-0.099c0.071-0.093,0.112-0.242,0.063-0.378
	C24.029,24.58,23.643,24.524,23.136,24.528z M15.526,27.651c0.705,0,1.411,0,2.114,0c0.217,0,0.736-0.04,0.864,0.027
	c0.003,0.485,0.006,0.97,0.009,1.456c-0.009,0.004-0.018,0.007-0.026,0.01c-0.731,0.002-1.464,0.006-2.196,0.01
	c-0.226,0-0.626,0.05-0.773-0.028C15.521,28.635,15.522,28.142,15.526,27.651z M15.624,30.098c0.69,0.005,1.381,0.008,2.07,0.01
	c0.58,0,0.966-0.045,1.259,0.253c0.161,0.16,0.329,0.495,0.232,0.844c-0.259,0.944-1.335,0.748-2.5,0.748
	c-0.631,0-1.161,0.052-1.519-0.227c-0.33-0.255-0.484-0.873-0.19-1.277c0.101-0.138,0.286-0.271,0.468-0.323
	C15.505,30.115,15.565,30.107,15.624,30.098z"/>
</svg>
