<?xml version="1.0" encoding="utf-8"?>
<!-- Generator: Adobe Illustrator 16.0.0, SVG Export Plug-In . SVG Version: 6.00 Build 0)  -->
<!DOCTYPE svg PUBLIC "-//W3C//DTD SVG 1.1//EN" "http://www.w3.org/Graphics/SVG/1.1/DTD/svg11.dtd">
<svg version="1.1" id="Layer_1" xmlns="http://www.w3.org/2000/svg" xmlns:xlink="http://www.w3.org/1999/xlink" x="0px" y="0px"
	 width="30.217px" height="28.45px" viewBox="0.889 1.778 30.217 28.45" enable-background="new 0.889 1.778 30.217 28.45"
	 xml:space="preserve">
<path fill="#FFFFFF" d="M20.199,4.591c-1.395-1.387-3.694-1.387-5.039,0l-7.378,7.313l7.967,7.889
	c-0.255,0.627-0.439,1.289-0.539,1.979L6.571,13.16l-0.178,0.178c-0.766,0.761-0.994,1.911-0.577,2.905l1.383,3.322
	c0.555,1.328,0.25,2.859-0.767,3.828l-3.503,3.539c-0.348,0.344-0.348,0.904,0,1.256c0.348,0.344,0.912,0.344,1.26,0l3.516-3.506
	c0.967-1.012,2.539-1.316,3.867-0.771l3.25,1.332c0.194,0.078,0.389,0.135,0.583,0.168c0.172,0.627,0.405,1.232,0.7,1.799
	c-0.655,0.039-1.322-0.064-1.957-0.371l-3.255-1.334c-0.661-0.223-1.422-0.07-1.934,0.436l-3.513,3.455
	c-1.043,1.088-2.734,1.088-3.777,0c-1.042-0.994-1.042-2.68,0.001-3.717l3.501-3.488c0.51-0.512,0.661-1.273,0.383-1.939
	l-1.383-3.322c-0.692-1.661-0.313-3.572,0.962-4.844l8.771-8.746c2.083-2.08,5.466-2.08,7.549,0l6.312,6.291
	c1.635,1.633,1.989,4.05,1.063,6.021c-0.545-0.321-1.028-0.594-1.584-0.812c0.578-1.306,0.334-2.882-0.738-3.956L20.199,4.591z
	 M21.327,22.227c0,0.488-0.396,0.889-0.89,0.889c-0.488,0-0.89-0.4-0.89-0.889c0-0.494,0.4-0.891,0.89-0.891
	C20.934,21.336,21.327,21.73,21.327,22.227z M22.216,26.67c0-0.494,0.4-0.889,0.89-0.889c0.494,0,0.889,0.395,0.889,0.889
	c0,0.488-0.395,0.889-0.889,0.889C22.616,27.559,22.216,27.158,22.216,26.67z M24.882,23.115c0,0.488-0.396,0.889-0.889,0.889
	c-0.488,0-0.89-0.4-0.89-0.889c0-0.496,0.4-0.891,0.89-0.891C24.486,22.227,24.882,22.619,24.882,23.115z M26.66,24.004
	c0-0.494,0.398-0.889,0.889-0.889c0.495,0,0.891,0.395,0.891,0.889c0,0.488-0.396,0.889-0.891,0.889
	C27.061,24.893,26.66,24.492,26.66,24.004z M25.771,19.559c0,0.488-0.396,0.891-0.891,0.891c-0.488,0-0.889-0.4-0.889-0.891
	c0-0.494,0.4-0.889,0.889-0.889C25.377,18.67,25.771,19.064,25.771,19.559z M16.882,23.115c0-3.928,3.188-7.113,7.111-7.113
	c3.928,0,7.11,3.185,7.11,7.113c0,3.922-3.184,7.109-7.11,7.109C20.07,30.227,16.882,27.037,16.882,23.115L16.882,23.115z
	 M23.993,28.447c2.899,0,5.334-2.389,5.334-5.332c0-2.951-2.435-5.334-5.334-5.334c-2.944,0-5.333,2.383-5.333,5.334
	C18.66,26.059,21.049,28.447,23.993,28.447z"/>
</svg>
