<?xml version="1.0" encoding="utf-8"?>
<!-- Generator: Adobe Illustrator 16.0.0, SVG Export Plug-In . SVG Version: 6.00 Build 0)  -->
<!DOCTYPE svg PUBLIC "-//W3C//DTD SVG 1.1//EN" "http://www.w3.org/Graphics/SVG/1.1/DTD/svg11.dtd">
<svg version="1.1" id="Layer_1" xmlns="http://www.w3.org/2000/svg" xmlns:xlink="http://www.w3.org/1999/xlink" x="0px" y="0px"
	 width="30.217px" height="28.45px" viewBox="0.889 1.778 30.217 28.45" enable-background="new 0.889 1.778 30.217 28.45"
	 xml:space="preserve">
<path fill="#FFFFFF" d="M11.037,20.518c0.504,0,0.917-0.412,0.917-0.916c0-1.608,0.494-3.146,1.427-4.454l1.242-1.737
	c0.373-0.521,0.819-0.969,1.3-1.375l9.204,7.365c0.119,0.137,0.372,0.201,0.521,0.201c0.269,0,0.534-0.119,0.717-0.344
	c0.315-0.397,0.251-0.973-0.144-1.289l-8.701-6.999c0.395-0.191,0.806-0.353,1.23-0.473c2.183-0.622,4.516-0.753,6.707-0.383
	l1.874,0.313c0.5,0.086,0.972-0.254,1.054-0.753c0.084-0.499-0.254-0.971-0.753-1.055l-1.875-0.312
	c-2.504-0.415-5.118-0.27-7.509,0.427c-2.058,0.588-3.873,1.871-5.116,3.612l-1.243,1.736c-1.157,1.621-1.77,3.527-1.77,5.521
	C10.121,20.105,10.534,20.518,11.037,20.518z M6.914,15.02c2.278,0,4.124-1.847,4.124-4.124c0-2.279-1.844-4.124-4.124-4.124
	c-2.277,0-4.124,1.844-4.124,4.124S4.636,15.02,6.914,15.02z M6.914,8.604c1.266,0,2.291,1.026,2.291,2.291
	c0,1.267-1.025,2.292-2.291,2.292c-1.266,0-2.291-1.025-2.291-2.292C4.623,9.63,5.65,8.604,6.914,8.604z M30.246,23.404
	c-1.613-0.207-2.153-1.239-3.056-2.502c-0.343-0.483-1.147-0.483-1.49,0c-1.057,1.48-1.832,2.36-3.752,2.36s-2.696-0.88-3.752-2.36
	c-0.346-0.483-1.147-0.483-1.493,0c-1.056,1.48-2.832,2.36-4.751,2.36c-1.919,0-3.696-0.88-4.752-2.36
	c-0.172-0.241-0.443-0.379-0.739-0.379s-0.581,0.138-0.752,0.379c-0.901,1.261-2.342,2.104-3.954,2.312
	c-0.502,0.064-0.856,0.525-0.792,1.029c0.064,0.501,0.518,0.861,1.027,0.791c1.717-0.224,3.292-1.001,4.464-2.183
	c1.412,1.424,3.399,2.247,5.507,2.247c2.108,0,4.083-0.823,5.493-2.245c1.409,1.422,2.396,2.245,4.504,2.245
	s3.082-0.825,4.492-2.247c1.172,1.18,1.847,2.149,3.564,2.371c0.513,0.078,0.962-0.29,1.026-0.791
	C31.054,23.932,30.749,23.469,30.246,23.404z"/>
</svg>
