<?xml version="1.0" encoding="utf-8"?>
<!-- Generator: Adobe Illustrator 16.0.0, SVG Export Plug-In . SVG Version: 6.00 Build 0)  -->
<!DOCTYPE svg PUBLIC "-//W3C//DTD SVG 1.1//EN" "http://www.w3.org/Graphics/SVG/1.1/DTD/svg11.dtd">
<svg version="1.1" id="Layer_1" xmlns="http://www.w3.org/2000/svg" xmlns:xlink="http://www.w3.org/1999/xlink" x="0px" y="0px"
	 width="30.217px" height="28.45px" viewBox="0 0 30.217 28.45" enable-background="new 0 0 30.217 28.45" xml:space="preserve">
<path fill="#FFFFFF" d="M15.083,0.09c-7.758,0-14.084,6.328-14.084,14.134c0,7.809,6.327,14.136,14.135,14.136
	s14.084-6.327,14.084-14.085C29.218,6.517,22.941,0.09,15.083,0.09z M6.835,12.199l2.229,0.814l1.777,5.438l-1.361,1.791
	l-5.096,0.077c-0.899-1.578-1.455-3.373-1.579-5.285L6.835,12.199z M21.202,13.015l2.229-0.814l4.029,2.835
	c-0.127,1.912-0.683,3.706-1.58,5.285l-5.096-0.077l-1.348-1.786L21.202,13.015z M24.394,6.003l-1.53,4.475l-2.239,0.82
	l-4.606-3.286v-2.48l3.708-2.782C21.533,3.475,23.124,4.615,24.394,6.003z M10.54,2.75l3.711,2.782v2.479l-4.605,3.337l-2.242-0.823
	L5.876,6.003C7.144,4.615,8.734,3.475,10.54,2.75z M12.439,26.289l-1.54-4.994l1.359-1.791h5.754l1.354,1.788l-1.54,4.997
	c-0.873,0.193-1.768,0.305-2.695,0.305C14.205,26.593,13.261,26.482,12.439,26.289z"/>
</svg>
