<?xml version="1.0" encoding="utf-8"?>
<!-- Generator: Adobe Illustrator 16.0.0, SVG Export Plug-In . SVG Version: 6.00 Build 0)  -->
<!DOCTYPE svg PUBLIC "-//W3C//DTD SVG 1.1//EN" "http://www.w3.org/Graphics/SVG/1.1/DTD/svg11.dtd">
<svg version="1.1" id="Layer_1" xmlns="http://www.w3.org/2000/svg" xmlns:xlink="http://www.w3.org/1999/xlink" x="0px" y="0px"
	 width="30.217px" height="28.45px" viewBox="0.889 1.778 30.217 28.45" enable-background="new 0.889 1.778 30.217 28.45"
	 xml:space="preserve">
<path fill="#FFFFFF" d="M4.652,30.228l-2.844-2.843l6.868-6.868l1.858-0.002c0.667-0.705,3.522-3.938,4.885-8.93l0.232-0.938
	c0.028-0.124,0.056-0.249,0.081-0.375c0.353-1.735,0.847-3.373,3.331-5.857c0.002-0.001,0.946-0.945,1.261-1.262
	c0.787-0.798,2.134-1.299,3.516-1.306c0.007,0,0.015,0,0.021,0c1.636,0,3.207,0.674,4.431,1.898l0,0l0,0
	c1.229,1.228,1.902,2.809,1.896,4.449c-0.004,1.383-0.504,2.73-1.304,3.519c-0.318,0.313-1.259,1.257-1.259,1.257
	c-2.481,2.484-4.123,2.979-5.859,3.334c-0.125,0.025-0.249,0.053-0.373,0.081l-1.023,0.257c-4.948,1.37-8.149,4.2-8.847,4.862
	l-0.002,1.855L4.652,30.228z M3.762,27.385l0.89,0.891l5.485-5.487l0.001-0.891l-0.89,0.002L3.762,27.385z M15.9,14.489
	c-0.49,1.228-1.046,2.313-1.595,3.242c0.922-0.545,1.999-1.096,3.215-1.584c-0.364-0.189-0.688-0.433-0.969-0.73
	C16.274,15.128,16.063,14.811,15.9,14.489z M20.186,15.179l0.062,0.062c0.402-0.105,0.816-0.203,1.24-0.29
	c0.709-0.145,1.467-0.301,2.397-0.799l-1.338-1.336L20.186,15.179z M17.835,12.829c0,0-0.622,0.56,0.189,1.372
	c0.71,0.711,1.184,0.001,1.184,0.001l2.363-2.363l-1.373-1.374L17.835,12.829z M23.524,11.839l1.548,1.546
	c0.444-0.337,0.927-0.751,1.454-1.271l-1.64-1.639L23.524,11.839z M16.795,11.791l0.063,0.062l2.363-2.363l-1.338-1.337
	c-0.5,0.931-0.654,1.688-0.797,2.397C16.999,10.973,16.9,11.387,16.795,11.791z M25.866,9.497l1.638,1.64
	c0.164-0.164,0.315-0.316,0.411-0.409c0.537-0.529,0.888-1.525,0.891-2.536c0-0.402-0.049-0.891-0.216-1.417L25.866,9.497z
	 M21.175,9.488l1.374,1.374l1.362-1.364l-1.372-1.372L21.175,9.488z M23.516,7.149l1.373,1.37l3.053-3.053
	c-0.175-0.248-0.381-0.498-0.626-0.744l0,0c-0.248-0.246-0.497-0.454-0.746-0.628L23.516,7.149z M18.651,6.964l1.547,1.548
	l1.363-1.363L19.923,5.51C19.403,6.036,18.988,6.519,18.651,6.964z M20.9,4.533l1.639,1.638l2.722-2.724
	C24.735,3.28,24.25,3.208,23.843,3.23c-1.01,0.006-2.006,0.356-2.534,0.894C21.212,4.219,21.063,4.369,20.9,4.533z M26.746,23.175
	c-1.55,0-2.809-1.261-2.809-2.809c0-1.55,1.259-2.809,2.809-2.809s2.81,1.259,2.81,2.809C29.556,21.914,28.296,23.175,26.746,23.175
	z M26.746,18.938c-0.787,0-1.428,0.641-1.428,1.428c0,0.786,0.641,1.426,1.428,1.426c0.788,0,1.429-0.64,1.429-1.426
	C28.175,19.579,27.533,18.938,26.746,18.938z"/>
</svg>
