<?xml version="1.0" encoding="utf-8"?>
<!-- Generator: Adobe Illustrator 16.0.0, SVG Export Plug-In . SVG Version: 6.00 Build 0)  -->
<!DOCTYPE svg PUBLIC "-//W3C//DTD SVG 1.1//EN" "http://www.w3.org/Graphics/SVG/1.1/DTD/svg11.dtd">
<svg version="1.1" id="Layer_1" xmlns="http://www.w3.org/2000/svg" xmlns:xlink="http://www.w3.org/1999/xlink" x="0px" y="0px"
	 width="30.217px" height="28.45px" viewBox="0.889 1.778 30.217 28.45" enable-background="new 0.889 1.778 30.217 28.45"
	 xml:space="preserve">
<path fill="#FFFFFF" d="M15.996,1.778c-7.893,0-14.291,6.397-14.291,14.292c0,7.895,6.398,14.292,14.291,14.292
	c7.896,0,14.293-6.397,14.293-14.292C30.289,8.175,23.943,1.778,15.996,1.778z M13.747,3.786c0.072,3.173-1.334,6.322-4.125,8.276
	c-1.781,1.244-3.833,1.752-5.857,1.696C4.664,8.712,8.7,4.73,13.747,3.786z M3.542,16.07c0-0.161,0.018-0.316,0.023-0.475
	c0.146,0.006,0.292,0.023,0.438,0.023c2.3,0,4.623-0.681,6.644-2.097c3.341-2.34,5.048-6.136,4.915-9.932
	c0.162-0.006,0.322-0.024,0.484-0.024c6.896,0,12.506,5.61,12.506,12.505c0,0.174-0.018,0.344-0.025,0.515
	c-2.443-0.095-4.928,0.524-7.078,2.032c-3.342,2.341-5.047,6.136-4.916,9.933c-0.162,0.01-0.324,0.026-0.486,0.026
	C9.152,28.576,3.542,22.965,3.542,16.07z M18.348,28.353c-0.074-3.172,1.332-6.319,4.123-8.273c1.711-1.197,3.674-1.772,5.621-1.772
	c0.082,0,0.164,0.012,0.246,0.014C27.414,23.396,23.418,27.403,18.348,28.353z"/>
</svg>
