<?xml version="1.0" encoding="utf-8"?>
<!-- Generator: Adobe Illustrator 16.0.0, SVG Export Plug-In . SVG Version: 6.00 Build 0)  -->
<!DOCTYPE svg PUBLIC "-//W3C//DTD SVG 1.1//EN" "http://www.w3.org/Graphics/SVG/1.1/DTD/svg11.dtd">
<svg version="1.1" id="Layer_1" xmlns="http://www.w3.org/2000/svg" xmlns:xlink="http://www.w3.org/1999/xlink" x="0px" y="0px"
	 width="30.217px" height="28.45px" viewBox="0.889 1.778 30.217 28.45" enable-background="new 0.889 1.778 30.217 28.45"
	 xml:space="preserve">
<g>
	<g>
		<g>
			<path fill="#FFFFFF" d="M18.574,1.941c-1.007,0.18-1.941,0.491-3.464,1.139c-1.738,0.731-2.853,1.402-3.596,2.121
				c-0.707,0.684-1.066,1.319-1.354,2.326c-0.156,0.563-0.167,2.146-0.012,2.937c0.383,2.085,1.366,4.663,2.277,6.042
				c1.522,2.277,3.956,3.871,6.352,4.171l0.301,0.035l0.191-0.479l0.191-0.466l2.506-1.055l2.505-1.057l0.479,0.193
				c0.263,0.106,0.479,0.191,0.491,0.18c1.019-1.378,1.546-2.673,1.773-4.34c0.252-1.905-0.072-3.763-0.994-5.813
				c-1.559-3.464-3.248-5.346-5.263-5.885C20.324,1.833,19.293,1.81,18.574,1.941z M18.526,7.67C19.27,7.863,20,8.33,20.456,8.905
				c0.144,0.18,0.264,0.348,0.264,0.371c0,0.024-0.144,0.12-0.3,0.205c-0.431,0.215-0.935,0.791-1.295,1.45
				c-0.838,1.523-1.211,1.87-2.241,2.05c-1.174,0.216-2.457-0.192-2.673-0.839c-0.12-0.359-0.144-1.378-0.036-1.798
				c0.323-1.307,1.367-2.386,2.613-2.673C17.207,7.575,18.119,7.575,18.526,7.67z M21.163,10.32
				c0.048,0.167,0.072,0.563,0.072,0.899c0,0.503-0.024,0.683-0.156,1.065c-0.563,1.715-2.337,2.77-4.075,2.434
				c-0.539-0.108-1.222-0.419-1.618-0.756l-0.276-0.227l0.24,0.047c0.432,0.073,1.594,0.037,1.979-0.06
				c0.504-0.143,0.971-0.383,1.318-0.719c0.359-0.346,0.599-0.683,1.043-1.498c0.18-0.335,0.431-0.731,0.574-0.875
				c0.216-0.251,0.672-0.587,0.779-0.587C21.067,10.032,21.115,10.164,21.163,10.32z"/>
			<path fill="#FFFFFF" d="M10.867,2.457c-0.552,0.072-1.343,0.336-1.87,0.647C8.11,3.631,7.067,4.83,6.324,6.208
				C5.797,7.191,5.006,9.181,4.73,10.211c-0.264,1.008-0.324,1.487-0.324,2.662c0,1.343,0.108,2.085,0.503,3.237
				c0.3,0.875,0.971,2.062,1.522,2.683l0.251,0.277l0.456-0.229l0.467-0.229l2.565,0.863l2.565,0.864l0.228,0.443
				c0.12,0.251,0.228,0.455,0.24,0.467c0.06,0.072,1.486-0.383,2.085-0.659l0.144-0.071l-0.491-0.265
				c-1.031-0.539-1.774-1.103-2.589-1.953c-1.091-1.127-1.774-2.229-2.458-3.944c-0.791-1.99-1.199-3.608-1.246-5.083
				c-0.12-2.864,1.079-4.614,4.159-6.125c0.491-0.24,0.851-0.443,0.803-0.456c-0.204-0.072-1.007-0.216-1.486-0.252
				C11.538,2.385,11.431,2.385,10.867,2.457z"/>
			<path fill="#FFFFFF" d="M22.146,19.286l-2.026,0.826L19.989,20.4c-0.072,0.155-0.12,0.3-0.12,0.324s0.12,0.047,0.275,0.047
				c0.359,0,0.911,0.18,1.234,0.384c0.588,0.395,1.091,1.151,1.391,2.086c0.347,1.104,0.479,1.81,0.611,3.116
				c0.132,1.319,0.384,2.085,0.851,2.504c0.3,0.277,0.54,0.338,1.079,0.313c0.814-0.049,1.786-0.563,2.121-1.139
				c0.132-0.229,0.156-0.324,0.156-0.684c0-0.371-0.024-0.469-0.228-0.888c-0.252-0.516-0.504-0.886-1.15-1.63
				c-0.852-0.983-1.799-2.588-2.015-3.427c-0.096-0.36-0.12-0.553-0.096-0.997c0.024-0.646,0.145-0.97,0.527-1.46l0.239-0.313
				l-0.239-0.096c-0.132-0.048-0.287-0.095-0.348-0.095C24.22,18.447,23.261,18.817,22.146,19.286z"/>
			<path fill="#FFFFFF" d="M7.606,19.466L7.379,19.61l0.216,0.286c0.467,0.635,0.624,1.092,0.624,1.798
				c0,0.612-0.18,1.223-0.6,2.122c-0.432,0.875-0.743,1.414-1.342,2.242c-1.582,2.168-1.451,3.296,0.479,3.955
				c0.527,0.18,1.223,0.18,1.546,0.011c0.719-0.384,0.947-1.019,1.019-2.852c0.144-3.525,0.815-5.154,2.35-5.683
				c0.18-0.06,0.383-0.106,0.456-0.106c0.155,0,0.155-0.024,0.011-0.349c-0.096-0.227-0.144-0.264-0.431-0.359
				c-0.851-0.287-3.704-1.283-3.775-1.306C7.882,19.346,7.739,19.393,7.606,19.466z"/>
		</g>
	</g>
</g>
</svg>
