<?xml version="1.0" encoding="utf-8"?>
<!-- Generator: Adobe Illustrator 16.0.0, SVG Export Plug-In . SVG Version: 6.00 Build 0)  -->
<!DOCTYPE svg PUBLIC "-//W3C//DTD SVG 1.1//EN" "http://www.w3.org/Graphics/SVG/1.1/DTD/svg11.dtd">
<svg version="1.1" id="Layer_1" xmlns="http://www.w3.org/2000/svg" xmlns:xlink="http://www.w3.org/1999/xlink" x="0px" y="0px"
	 width="42px" height="42px" viewBox="0 0 42 42" enable-background="new 0 0 42 42" xml:space="preserve">
<circle fill="#00A3D9" cx="21" cy="21" r="21"/>
<path fill="#FFFFFF" d="M34.567,16.272L21.858,11.78c-0.333-0.116-0.691-0.115-1.021-0.001L8.131,16.272
	c-0.6,0.21-0.986,0.749-0.986,1.329c0,0.583,0.387,1.159,0.986,1.371l1.144,0.445v4.946l-1.402,6.07
	c-0.049,0.209,0.002,0.426,0.137,0.592c0.134,0.166,0.339,0.262,0.556,0.262h2.84c0.215,0,0.42-0.098,0.554-0.262
	c0.136-0.166,0.187-0.383,0.139-0.592l-1.402-6.162v-4.355l10.142,3.585c0.165,0.057,0.336,0.084,0.51,0.084
	s0.346-0.027,0.513-0.086l12.704-4.491c0.602-0.208,0.988-0.746,0.988-1.407C35.553,16.941,35.166,16.482,34.567,16.272z
	 M9.457,29.847l0.537-2.307l0.526,2.307H9.457z M21.318,22.185l-8.425-2.977l8.664-2.646c0.375-0.115,0.587-0.505,0.471-0.876
	c-0.117-0.368-0.512-0.579-0.889-0.461L10.669,18.42l-2.104-0.779l12.815-4.544l12.751,4.544L21.318,22.185z M28.553,22.894
	c-0.39,0.051-0.663,0.402-0.611,0.787l0.505,3.787c0.049,0.389-0.207,0.771-0.658,0.977c-1.948,0.889-4.152,1.387-6.356,1.441
	h-0.151c-2.22-0.055-4.423-0.553-6.373-1.441c-0.45-0.205-0.708-0.588-0.657-0.975l0.506-3.789c0.051-0.383-0.223-0.734-0.612-0.787
	c-0.396-0.053-0.747,0.223-0.795,0.604l-0.504,3.791c-0.134,1.008,0.442,1.961,1.468,2.43c2.125,0.965,4.522,1.512,6.949,1.568
	h0.184c2.414-0.059,4.812-0.602,6.933-1.568c1.026-0.469,1.603-1.422,1.469-2.432l-0.505-3.789
	C29.299,23.116,28.943,22.841,28.553,22.894z"/>
</svg>
