<svg xmlns="http://www.w3.org/2000/svg" width="42" height="42"><circle fill-rule="evenodd" clip-rule="evenodd" fill="#00B285" cx="21" cy="21" r="21"/><path fill-rule="evenodd" clip-rule="evenodd" fill="#FFF" d="M13.15 29.01c1.65-2.1 2.02-2.65 1.95-3.2a.951.951 0 0 0-.33-.56c-2.07-1.52-3.21-3.56-3.21-5.74 0-4.4 4.69-7.98 10.46-7.98s10.46 3.58 10.46 7.98-4.69 7.98-10.46 7.98h-.09c-1.49 0-2.15-.02-3.42-.47a.786.786 0 0 0-.62.05c-1.84 1.01-3.93 2.09-5.37 2.75l.63-.81zm-3.13 2.32c.05.22.22.46.42.56.13.07.28.11.45.11.98 0 4.95-2.08 7.44-3.43 1.31.42 2.13.44 3.6.44h.09c6.61 0 11.98-4.26 11.98-9.5C34 14.26 28.63 10 22.02 10s-11.98 4.26-11.98 9.51c0 2.47 1.22 4.85 3.37 6.62-.33.49-.98 1.33-1.45 1.94-1.71 2.17-2.06 2.69-1.94 3.26z"/></svg>