<?xml version="1.0" encoding="utf-8"?>
<!-- Generator: Adobe Illustrator 16.0.0, SVG Export Plug-In . SVG Version: 6.00 Build 0)  -->
<!DOCTYPE svg PUBLIC "-//W3C//DTD SVG 1.1//EN" "http://www.w3.org/Graphics/SVG/1.1/DTD/svg11.dtd">
<svg version="1.1" id="Layer_1" xmlns="http://www.w3.org/2000/svg" xmlns:xlink="http://www.w3.org/1999/xlink" x="0px" y="0px"
	 width="42px" height="42px" viewBox="0 0 42 42" enable-background="new 0 0 42 42" xml:space="preserve">
<circle fill="#8F0093" cx="21" cy="21" r="21"/>
<path fill="#FFFFFF" d="M33.521,31.216l-6.761-6.761c1.463-1.79,2.271-4.045,2.271-6.507c0-5.796-4.699-10.494-10.494-10.494
	S8.088,12.152,8.088,17.948s4.698,10.494,10.448,10.494c2.462,0,4.72-0.853,6.509-2.271l6.76,6.76
	c0.282,0.239,0.596,0.355,0.903,0.355c0.307,0,0.62-0.118,0.856-0.354C34.035,32.458,34.035,31.69,33.521,31.216z M10.51,17.948
	c0-4.451,3.621-8.072,8.072-8.072c4.452,0,8.073,3.621,8.073,8.072c0,4.452-3.621,8.073-8.073,8.073
	C14.131,26.021,10.51,22.398,10.51,17.948z"/>
</svg>
