<?xml version="1.0" encoding="utf-8"?>
<!-- Generator: Adobe Illustrator 16.0.0, SVG Export Plug-In . SVG Version: 6.00 Build 0)  -->
<!DOCTYPE svg PUBLIC "-//W3C//DTD SVG 1.1 Tiny//EN" "http://www.w3.org/Graphics/SVG/1.1/DTD/svg11-tiny.dtd">
<svg version="1.1" baseProfile="tiny" id="Layer_1" xmlns="http://www.w3.org/2000/svg" xmlns:xlink="http://www.w3.org/1999/xlink"
	 x="0px" y="0px" width="42px" height="42px" viewBox="0 0 42 42" xml:space="preserve">
<path fill="#F4F4F4" d="M21,0c11.6,0,21,9.41,21,21c0,11.6-9.4,21-21,21S0,32.6,0,21C0,9.41,9.4,0,21,0z"/>
<g>
	<path fill="#666666" d="M33.52,20.09L21.57,7.75c-0.31-0.33-0.82-0.33-1.14,0L8.49,20.09c-0.32,0.33-0.32,0.86,0,1.18
		c0.15,0.17,0.36,0.25,0.57,0.25s0.41-0.08,0.57-0.25L21,9.52l11.38,11.75c0.31,0.33,0.82,0.33,1.14,0
		C33.83,20.95,33.83,20.42,33.52,20.09z"/>
</g>
<g>
	<path fill-rule="evenodd" fill="#666666" d="M23.94,19c-0.04-0.06-0.1-0.11-0.16-0.17c-0.59-0.54-1.36-0.89-2.18-1
		c0,1.04-0.44,2.05-1.23,2.81l-0.08,0.09c-0.85,0.77-1.99,1.2-3.17,1.21c0.12,0.75,0.5,1.45,1.1,1.99c0.06,0.05,0.11,0.1,0.19,0.16
		c0.57,0.46,1.25,0.75,1.99,0.85c0-1.08,0.46-2.13,1.31-2.91l0.11-0.09c0.83-0.72,1.93-1.11,3.06-1.12
		C24.77,20.15,24.45,19.52,23.94,19z M18.21,18.84c-0.03,0.03-0.07,0.06-0.11,0.11c-0.67,0.67-1.04,1.55-1.03,2.46
		c1.05,0.01,2.06-0.37,2.81-1.05l0.05-0.05l0.02-0.02c0.7-0.68,1.09-1.58,1.08-2.51C19.98,17.77,18.96,18.15,18.21,18.84z
		 M23.75,23.95l0.03-0.02c0.75-0.69,1.16-1.62,1.15-2.58c-1-0.01-1.98,0.34-2.72,0.97l-0.09,0.08c-0.75,0.69-1.16,1.62-1.15,2.58
		c1.03,0.01,2.03-0.35,2.76-1.01L23.75,23.95z M24.12,24.35c-0.91,0.81-2.17,1.23-3.45,1.15h-0.01h-0.01
		c-0.98-0.07-1.89-0.42-2.61-1.01c-0.08-0.06-0.16-0.12-0.23-0.19c-0.76-0.7-1.22-1.62-1.3-2.59V21.7l-0.01-0.01
		c0-1.14,0.34-2.27,1.17-3.09c0.04-0.05,0.09-0.09,0.14-0.13c0.84-0.78,1.99-1.21,3.18-1.21c0.11,0,0.22,0,0.34,0.01
		c1.08,0.06,2.09,0.49,2.85,1.19c0.08,0.07,0.15,0.14,0.2,0.2c0.65,0.67,1.04,1.5,1.11,2.4l0.01,0.01v0.01
		c0,1.19-0.38,2.37-1.31,3.22L24.12,24.35z"/>
</g>
<path fill="#666666" d="M28.41,15.54c-0.36,0-0.66,0.38-0.66,0.85v12.12h-13.5V16.59c0-0.47-0.57-1.05-0.94-1.05
	c-0.36,0-0.56,0.38-0.56,0.85v12.77c0,0.47,0.3,0.85,0.66,0.85H28.6c0.36,0,0.65-0.38,0.65-0.85V16.39c0-0.47-0.29-0.85-0.65-0.85
	H28.41z"/>
</svg>
