<?xml version="1.0" encoding="utf-8"?>
<!-- Generator: Adobe Illustrator 16.0.0, SVG Export Plug-In . SVG Version: 6.00 Build 0)  -->
<!DOCTYPE svg PUBLIC "-//W3C//DTD SVG 1.1//EN" "http://www.w3.org/Graphics/SVG/1.1/DTD/svg11.dtd">
<svg version="1.1" id="Layer_1" xmlns="http://www.w3.org/2000/svg" xmlns:xlink="http://www.w3.org/1999/xlink" x="0px" y="0px"
	 width="42px" height="42px" viewBox="0 0 42 42" enable-background="new 0 0 42 42" xml:space="preserve">
<circle fill="#079FAA" cx="21" cy="21" r="21"/>
<path fill="#FFFFFF" d="M29.097,16.142h-3.239c-1.788,0-3.238,1.451-3.238,3.238v4.859c0,0.893,0.726,1.619,1.619,1.619v6.881
	c0,0.672,0.544,1.215,1.215,1.215c0.67,0,1.215-0.543,1.215-1.215v-6.881h1.618v6.881c0,0.672,0.544,1.215,1.215,1.215
	s1.215-0.541,1.215-1.215v-6.881c0.894,0,1.619-0.727,1.619-1.619V19.38C32.335,17.595,30.883,16.142,29.097,16.142z M29.906,23.429
	h-4.858V19.38c0-0.445,0.363-0.809,0.81-0.809h3.239c0.446,0,0.81,0.363,0.81,0.809V23.429z M27.477,14.522
	c1.791,0,3.239-1.449,3.239-3.238c0-1.791-1.448-3.238-3.239-3.238c-1.79,0-3.238,1.447-3.238,3.238
	C24.238,13.073,25.686,14.522,27.477,14.522z M14.522,14.522c1.791,0,3.239-1.449,3.239-3.238c0-1.791-1.447-3.238-3.239-3.238
	s-3.239,1.447-3.239,3.238C11.283,13.073,12.732,14.522,14.522,14.522z M16.142,16.142h-3.239c-1.789,0-3.239,1.453-3.239,3.238
	v4.859c0,0.893,0.725,1.619,1.619,1.619v6.881c0,0.674,0.544,1.215,1.215,1.215c0.67,0,1.214-0.543,1.214-1.215v-6.881h1.62v6.881
	c0,0.674,0.546,1.215,1.214,1.215c0.667,0,1.214-0.541,1.214-1.215v-6.881c0.895,0,1.62-0.727,1.62-1.619V19.38
	C19.38,17.595,17.928,16.142,16.142,16.142z M16.951,23.429h-4.857V19.38c0-0.445,0.363-0.809,0.81-0.809h3.239
	c0.446,0,0.809,0.363,0.809,0.809V23.429z"/>
</svg>
