<?xml version="1.0" encoding="utf-8"?>
<!-- Generator: Adobe Illustrator 16.0.0, SVG Export Plug-In . SVG Version: 6.00 Build 0)  -->
<!DOCTYPE svg PUBLIC "-//W3C//DTD SVG 1.1//EN" "http://www.w3.org/Graphics/SVG/1.1/DTD/svg11.dtd">
<svg version="1.1" id="Layer_1" xmlns="http://www.w3.org/2000/svg" xmlns:xlink="http://www.w3.org/1999/xlink" x="0px" y="0px"
	 width="27.85px" height="27.85px" viewBox="0 0 27.85 27.85" enable-background="new 0 0 27.85 27.85" xml:space="preserve">
<circle fill="#B2B2B2" cx="13.925" cy="13.925" r="13.925"/>
<g>
	<g>
		<path fill="#FFFFFF" d="M19.379,13.283c-0.27,0-0.489,0.22-0.489,0.489v4.965H8.96v-4.965c0-0.27-0.22-0.489-0.489-0.489
			c-0.27,0-0.49,0.22-0.49,0.489v5.454c0,0.27,0.22,0.489,0.49,0.489h10.908c0.271,0,0.49-0.22,0.49-0.489v-5.454
			C19.869,13.503,19.65,13.283,19.379,13.283L19.379,13.283z M19.379,13.283"/>
		<path fill="#FFFFFF" d="M21.984,13.426L14.27,5.713c-0.19-0.191-0.5-0.191-0.691,0l-7.713,7.713c-0.191,0.191-0.191,0.502,0,0.692
			c0.095,0.096,0.221,0.144,0.346,0.144c0.125,0,0.25-0.048,0.346-0.144l7.367-7.366l7.369,7.366c0.19,0.19,0.5,0.19,0.691,0
			S22.176,13.617,21.984,13.426L21.984,13.426z M21.984,13.426"/>
	</g>
</g>
</svg>
