<?xml version="1.0" encoding="utf-8"?>
<!-- Generator: Adobe Illustrator 16.0.0, SVG Export Plug-In . SVG Version: 6.00 Build 0)  -->
<!DOCTYPE svg PUBLIC "-//W3C//DTD SVG 1.1//EN" "http://www.w3.org/Graphics/SVG/1.1/DTD/svg11.dtd">
<svg version="1.1" id="Layer_1" xmlns="http://www.w3.org/2000/svg" xmlns:xlink="http://www.w3.org/1999/xlink" x="0px" y="0px"
	 width="612px" height="792px" viewBox="0 0 612 792" enable-background="new 0 0 612 792" xml:space="preserve">
<path fill="#FFFFFF" d="M611.787,395.469c0,19.125-15.938,34.106-34,34.106h-34l0.744,170.106c0,2.975-0.213,5.737-0.531,8.605
	V625.5c0,23.481-19.019,42.5-42.5,42.5h-17c-1.169,0-2.338-0.956-3.506-0.106c-1.488-0.85-2.976,0.106-4.463,0.106H416.5
	c-23.481,0-42.5-19.019-42.5-42.5V532c0-18.807-15.193-34-34-34h-68c-18.806,0-34,15.193-34,34v93.5c0,23.481-19.019,42.5-42.5,42.5
	h-59.394c-1.594,0-3.188-0.106-4.781-0.213c-1.275,0.106-2.55,0.213-3.825,0.213h-17C87.029,668,68,648.981,68,625.5v-119
	c0-0.956,0.032-2.019,0.096-2.975v-73.95H34.053C14.896,429.575,0,414.594,0,395.469c0-9.563,3.192-18.063,10.636-25.5
	L283.05,132.517c7.438-7.453,15.938-8.517,23.375-8.517s15.938,2.129,22.419,7.452L600.1,369.969
	C608.6,377.406,612.956,385.906,611.787,395.469L611.787,395.469z"/>
</svg>
