<?xml version="1.0" encoding="utf-8"?>
<!-- Generator: Adobe Illustrator 16.0.0, SVG Export Plug-In . SVG Version: 6.00 Build 0)  -->
<!DOCTYPE svg PUBLIC "-//W3C//DTD SVG 1.1//EN" "http://www.w3.org/Graphics/SVG/1.1/DTD/svg11.dtd">
<svg version="1.1" id="Layer_1" xmlns="http://www.w3.org/2000/svg" xmlns:xlink="http://www.w3.org/1999/xlink" x="0px" y="0px"
	 width="117.57px" height="117.55px" viewBox="5.335 61.205 117.57 117.55" enable-background="new 5.335 61.205 117.57 117.55"
	 xml:space="preserve">
<g>
	<g>
		<path fill-rule="evenodd" clip-rule="evenodd" fill="#FFFFFF" d="M84.115,103.095c-0.47-0.61-1.05-1.22-1.76-1.93
			c-6.26-6.29-14.33-10.35-23.02-11.67c-0.03,12.14-4.68,23.9-13.02,32.74c-0.29,0.38-0.61,0.7-0.9,0.99
			c-8.95,9.01-21.04,14.01-33.58,14.07c1.31,8.72,5.38,16.82,11.64,23.109c0.641,0.62,1.26,1.23,2.04,1.87
			c6,5.33,13.23,8.72,21.07,9.89c0-12.609,4.94-24.779,13.92-33.789c0.38-0.381,0.76-0.791,1.14-1.11
			c8.81-8.31,20.45-12.899,32.44-12.96C92.895,116.465,89.525,109.185,84.115,103.095z M23.445,101.254
			c-0.351,0.35-0.73,0.73-1.17,1.29c-7.14,7.75-11,18.08-10.91,28.64c11.109,0.09,21.82-4.3,29.75-12.29
			c0.17-0.18,0.38-0.38,0.55-0.58l0.18-0.21c7.43-7.84,11.5-18.31,11.41-29.11C42.135,88.885,31.395,93.274,23.445,101.254z
			 M82.125,160.675l0.29-0.3c7.93-7.98,12.26-18.75,12.17-29.92c-10.65-0.121-21,3.92-28.84,11.319c-0.32,0.29-0.64,0.61-0.94,0.9
			c-7.93,7.989-12.25,18.78-12.14,29.96c10.88,0.09,21.42-4.131,29.23-11.76L82.125,160.675z M86.045,165.354
			c-9.71,9.42-23.02,14.24-36.54,13.28h-0.11h-0.09c-10.39-0.79-20.01-4.83-27.7-11.68c-0.88-0.73-1.64-1.461-2.4-2.19
			c-8.08-8.13-12.96-18.84-13.81-30.19l-0.03-0.09l-0.03-0.109v-0.03c0-13.17,3.57-26.3,12.35-35.84c0.46-0.56,0.99-1.08,1.49-1.58
			c8.95-9.04,21.09-14.04,33.67-14.04c1.2,0,2.37,0.03,3.57,0.12h0.03c11.41,0.79,22.11,5.73,30.19,13.8
			c0.84,0.85,1.58,1.64,2.13,2.34c6.9,7.82,10.97,17.47,11.76,27.939l0.06,0.061c0,0.03,0.06,0.09,0.06,0.12
			c0,13.89-4.07,27.55-13.87,37.41C86.545,164.914,86.275,165.145,86.045,165.354z"/>
	</g>
	<path fill-rule="evenodd" clip-rule="evenodd" fill="#FFFFFF" d="M109.855,90.515c0.38-0.4,0.59-0.87,0.59-1.49v-11.2h10.7
		c0.47,0,0.88-0.15,1.23-0.5c0.33-0.32,0.53-0.73,0.53-1.2c0-0.52-0.2-0.96-0.53-1.31c-0.35-0.33-0.76-0.5-1.23-0.5h-10.7v-11.24
		c0-0.49-0.21-0.93-0.56-1.31c-0.35-0.35-0.82-0.56-1.43-0.56c-0.56,0-1,0.21-1.38,0.56c-0.38,0.38-0.58,0.82-0.58,1.4v11.15h-10.65
		c-0.5,0-0.91,0.17-1.26,0.5c-0.35,0.32-0.52,0.73-0.52,1.19c0,0.56,0.17,1,0.52,1.32c0.35,0.35,0.76,0.5,1.26,0.5h10.65v11.26
		c0,0.56,0.17,1.03,0.55,1.43c0.36,0.39,0.82,0.53,1.41,0.53C109.035,91.044,109.475,90.905,109.855,90.515z"/>
</g>
</svg>
