<?xml version="1.0" encoding="utf-8"?>
<!-- Generator: Adobe Illustrator 16.0.0, SVG Export Plug-In . SVG Version: 6.00 Build 0)  -->
<!DOCTYPE svg PUBLIC "-//W3C//DTD SVG 1.1//EN" "http://www.w3.org/Graphics/SVG/1.1/DTD/svg11.dtd">
<svg version="1.1" id="Layer_1" xmlns="http://www.w3.org/2000/svg" xmlns:xlink="http://www.w3.org/1999/xlink" x="0px" y="0px"
	 width="239.899px" height="272.67px" viewBox="0 0 239.899 272.67" enable-background="new 0 0 239.899 272.67"
	 xml:space="preserve">
<circle fill-rule="evenodd" clip-rule="evenodd" fill="#D3D327" cx="117.364" cy="121.648" r="79.135"/>
<g>
	<path fill-rule="evenodd" clip-rule="evenodd" fill="#FFFFFF" d="M171.757,73.209c-0.819-1.083-1.833-2.149-3.059-3.373
		c-10.939-10.993-25.061-18.105-40.246-20.395c-0.034,21.216-8.18,41.768-22.737,57.2c-0.507,0.664-1.083,1.224-1.59,1.748
		c-15.642,15.729-36.754,24.484-58.687,24.589c2.29,15.221,9.402,29.396,20.343,40.388c1.118,1.066,2.202,2.134,3.582,3.269
		c10.469,9.298,23.104,15.238,36.806,17.283c0-22.036,8.633-43.305,24.327-59.052c0.683-0.664,1.345-1.38,2.011-1.939
		c15.379-14.523,35.721-22.544,56.692-22.649C187.104,96.576,181.212,83.835,171.757,73.209z M65.729,69.993
		c-0.612,0.612-1.276,1.276-2.045,2.238c-12.479,13.544-19.224,31.598-19.067,50.052c19.417,0.158,38.134-7.515,51.993-21.461
		c0.314-0.314,0.665-0.664,0.979-1.031l0.296-0.35c12.985-13.702,20.098-32.017,19.941-50.874
		C98.393,48.357,79.64,56.03,65.729,69.993z M168.281,173.82l0.524-0.506c13.841-13.963,21.408-32.768,21.252-52.307
		c-18.596-0.21-36.701,6.851-50.402,19.783c-0.56,0.507-1.119,1.084-1.625,1.591c-13.859,13.944-21.426,32.82-21.217,52.342
		c19.016,0.157,37.417-7.202,51.067-20.552L168.281,173.82z M175.132,182c-16.97,16.463-40.231,24.904-63.842,23.209h-0.21h-0.157
		c-18.141-1.382-34.971-8.441-48.41-20.395c-1.538-1.276-2.867-2.553-4.194-3.847c-14.104-14.207-22.649-32.906-24.135-52.743
		l-0.053-0.158l-0.052-0.209v-0.053c0-22.999,6.238-45.963,21.583-62.619c0.821-0.978,1.729-1.904,2.604-2.761
		c15.642-15.798,36.858-24.554,58.843-24.554c2.098,0,4.142,0.053,6.24,0.209h0.051c19.942,1.381,38.644,10.031,52.763,24.135
		c1.486,1.485,2.762,2.866,3.723,4.089c12.076,13.649,19.173,30.514,20.552,48.829l0.105,0.088c0,0.052,0.105,0.157,0.105,0.209
		c0,24.292-7.112,48.165-24.241,65.398C176.005,181.23,175.552,181.65,175.132,182z"/>
</g>
<path fill-rule="evenodd" clip-rule="evenodd" fill="#FFFFFF" d="M216.759,51.224c0.666-0.717,1.014-1.538,1.014-2.605V29.028
	h18.719c0.821,0,1.539-0.244,2.149-0.856c0.561-0.56,0.909-1.293,0.909-2.097c0-0.926-0.349-1.695-0.909-2.307
	c-0.61-0.56-1.328-0.874-2.149-0.874h-18.719V3.269c0-0.874-0.348-1.643-0.959-2.307C216.184,0.35,215.38,0,214.297,0
	c-0.961,0-1.73,0.35-2.395,0.961c-0.664,0.665-1.031,1.433-1.031,2.464v19.469h-18.613c-0.856,0-1.573,0.314-2.201,0.874
	c-0.611,0.559-0.908,1.275-0.908,2.096c0,0.979,0.297,1.748,0.908,2.308c0.628,0.612,1.345,0.856,2.201,0.856h18.613v19.696
	c0,0.962,0.314,1.783,0.979,2.5c0.611,0.664,1.432,0.926,2.446,0.926C215.328,52.15,216.097,51.888,216.759,51.224z"/>
<g>
	<path fill-rule="evenodd" clip-rule="evenodd" fill="#FFFFFF" d="M94.495,269.559c0,0.769-0.297,1.396-0.856,1.904
		c-0.577,0.505-1.241,0.769-1.992,0.769c-0.839,0-1.521-0.264-2.028-0.769c-0.524-0.509-0.769-1.136-0.769-1.904v-25.256
		c0-0.751,0.263-1.379,0.804-1.904c0.542-0.505,1.241-0.751,2.081-0.751c0.716,0,1.363,0.246,1.922,0.751
		c0.56,0.525,0.839,1.153,0.839,1.904V269.559z"/>
	<path fill-rule="evenodd" clip-rule="evenodd" fill="#FFFFFF" d="M111.413,272.668c-2.097,0-4.002-0.263-5.68-0.768
		c-1.696-0.509-3.303-1.399-4.841-2.693c-0.385-0.313-0.682-0.681-0.891-1.082c-0.21-0.402-0.315-0.822-0.315-1.224
		c0-0.664,0.245-1.258,0.734-1.767c0.507-0.505,1.119-0.768,1.87-0.768c0.577,0,1.084,0.174,1.539,0.523
		c1.153,0.91,2.29,1.591,3.407,2.046c1.136,0.472,2.535,0.698,4.177,0.698c1.119,0,2.15-0.158,3.075-0.489
		c0.927-0.348,1.679-0.785,2.255-1.361c0.577-0.561,0.857-1.207,0.857-1.941c0-0.874-0.262-1.626-0.804-2.236
		c-0.542-0.611-1.381-1.12-2.482-1.539c-1.119-0.437-2.534-0.752-4.247-0.994c-1.626-0.229-3.058-0.578-4.299-1.068
		c-1.224-0.472-2.254-1.083-3.093-1.833c-0.822-0.734-1.451-1.608-1.87-2.622c-0.419-0.996-0.63-2.134-0.63-3.392
		c0-1.888,0.507-3.514,1.521-4.842c0.996-1.344,2.359-2.358,4.072-3.058c1.73-0.698,3.618-1.049,5.697-1.049
		c1.958,0,3.775,0.28,5.436,0.841c1.678,0.576,3.041,1.293,4.089,2.167c0.875,0.68,1.312,1.449,1.312,2.322
		c0,0.631-0.263,1.224-0.77,1.748s-1.119,0.787-1.801,0.787c-0.454,0-0.855-0.141-1.223-0.403c-0.49-0.401-1.136-0.784-1.939-1.153
		c-0.822-0.365-1.678-0.663-2.57-0.907c-0.909-0.263-1.748-0.385-2.534-0.385c-1.293,0-2.394,0.157-3.268,0.49
		c-0.892,0.313-1.573,0.75-2.01,1.31c-0.454,0.542-0.681,1.188-0.681,1.922c0,0.874,0.262,1.592,0.786,2.168
		c0.524,0.56,1.293,1.014,2.29,1.345c0.979,0.333,2.167,0.63,3.565,0.892c1.801,0.332,3.39,0.699,4.754,1.136
		c1.363,0.438,2.499,0.997,3.408,1.696c0.908,0.68,1.591,1.537,2.027,2.567c0.454,1.032,0.683,2.29,0.683,3.775
		c0,1.904-0.543,3.531-1.626,4.896c-1.084,1.379-2.5,2.428-4.265,3.145C115.362,272.302,113.458,272.668,111.413,272.668z"/>
	<path fill-rule="evenodd" clip-rule="evenodd" fill="#FFFFFF" d="M130.149,272.18c-0.874,0-1.539-0.212-2.011-0.666
		c-0.453-0.454-0.699-1.1-0.699-1.955v-0.735c0-0.838,0.246-1.504,0.699-1.941c0.472-0.453,1.137-0.681,2.011-0.681h0.594
		c0.874,0,1.536,0.228,2.009,0.681c0.455,0.438,0.698,1.104,0.698,1.941v0.735c0,0.855-0.243,1.501-0.698,1.955
		c-0.473,0.454-1.135,0.666-2.009,0.666H130.149z"/>
	<path fill-rule="evenodd" clip-rule="evenodd" fill="#FFFFFF" d="M152.326,256.889c1.38,0,2.551-0.299,3.529-0.894
		c0.979-0.594,1.747-1.415,2.291-2.464c0.54-1.048,0.803-2.237,0.803-3.548c0-1.328-0.263-2.499-0.803-3.46
		c-0.544-0.978-1.312-1.747-2.291-2.306c-0.979-0.543-2.149-0.823-3.529-0.823h-9.979l0.121-0.227v13.858l-0.174-0.138H152.326z
		 M152.326,241.647c1.714,0,3.198,0.35,4.491,1.048c1.275,0.699,2.271,1.68,2.971,2.918c0.716,1.261,1.066,2.71,1.066,4.37
		c0,1.643-0.351,3.11-1.066,4.422c-0.7,1.311-1.695,2.343-2.971,3.094c-1.293,0.769-2.777,1.137-4.491,1.137h-10.032l0.174-0.299
		v13.021c0,0.228-0.085,0.438-0.279,0.61c-0.208,0.177-0.418,0.264-0.662,0.264c-0.297,0-0.526-0.087-0.7-0.264
		c-0.157-0.173-0.246-0.383-0.246-0.61v-28.836c0-0.246,0.089-0.437,0.263-0.611c0.193-0.176,0.403-0.263,0.647-0.263H152.326z"/>
	<path fill-rule="evenodd" clip-rule="evenodd" fill="#FFFFFF" d="M212.41,241.647c0.261,0,0.489,0.087,0.646,0.263
		c0.174,0.175,0.244,0.365,0.244,0.611v18.874c0,2.063-0.524,3.951-1.572,5.663c-1.049,1.694-2.447,3.059-4.194,4.072
		c-1.748,1.03-3.688,1.537-5.82,1.537c-2.15,0-4.089-0.507-5.854-1.537c-1.764-1.014-3.163-2.378-4.229-4.072
		c-1.05-1.712-1.573-3.6-1.573-5.663v-18.874c0-0.246,0.087-0.437,0.245-0.611c0.174-0.176,0.401-0.263,0.698-0.263
		c0.28,0,0.507,0.087,0.681,0.263c0.175,0.175,0.28,0.365,0.28,0.611v18.874c0,1.748,0.437,3.338,1.294,4.789
		c0.873,1.432,2.062,2.585,3.547,3.442c1.486,0.856,3.129,1.294,4.911,1.294c1.801,0,3.444-0.438,4.912-1.294
		c1.468-0.857,2.655-2.011,3.547-3.442c0.89-1.451,1.327-3.041,1.327-4.789v-18.874c0-0.246,0.089-0.437,0.246-0.611
		C211.919,241.734,212.129,241.647,212.41,241.647z"/>
	<path fill-rule="evenodd" clip-rule="evenodd" fill="#FFFFFF" d="M230.147,272.668c-2.341,0.034-4.369-0.35-6.045-1.137
		c-1.697-0.785-3.321-1.938-4.878-3.459c-0.068-0.053-0.121-0.14-0.191-0.228c-0.053-0.105-0.089-0.246-0.089-0.419
		c0-0.228,0.105-0.454,0.315-0.683c0.211-0.209,0.438-0.332,0.682-0.332c0.279,0,0.525,0.141,0.77,0.403
		c1.207,1.344,2.603,2.358,4.229,3.059c1.607,0.697,3.285,1.048,5.033,1.048c1.521,0,2.901-0.246,4.106-0.717
		c1.207-0.488,2.149-1.171,2.833-2.063c0.697-0.891,1.047-1.922,1.047-3.127c-0.034-1.487-0.453-2.676-1.276-3.583
		c-0.802-0.892-1.851-1.644-3.126-2.221c-1.277-0.594-2.622-1.118-4.038-1.624c-1.12-0.402-2.219-0.822-3.305-1.258
		c-1.082-0.438-2.061-0.98-2.935-1.592c-0.875-0.63-1.556-1.416-2.079-2.358c-0.509-0.963-0.751-2.134-0.751-3.53
		c0-1.415,0.382-2.71,1.188-3.862c0.802-1.154,1.938-2.063,3.424-2.763c1.505-0.682,3.271-1.014,5.314-1.014
		c1.712,0,3.39,0.297,5.015,0.892c1.627,0.594,2.901,1.484,3.828,2.691c0.297,0.401,0.456,0.717,0.456,0.91
		c0,0.208-0.106,0.419-0.334,0.61c-0.227,0.21-0.489,0.314-0.752,0.314c-0.244,0-0.438-0.088-0.594-0.262
		c-0.542-0.699-1.188-1.311-1.957-1.817s-1.626-0.908-2.604-1.171c-0.963-0.279-1.977-0.42-3.059-0.42
		c-1.484,0-2.813,0.227-4.021,0.7c-1.205,0.454-2.168,1.118-2.883,1.973c-0.733,0.874-1.084,1.923-1.084,3.182
		c0,1.327,0.386,2.431,1.188,3.304c0.806,0.857,1.819,1.574,3.042,2.132c1.241,0.576,2.498,1.084,3.792,1.555
		c1.153,0.369,2.291,0.787,3.408,1.242c1.135,0.454,2.165,1.015,3.075,1.677c0.927,0.682,1.645,1.522,2.185,2.536
		c0.542,1.03,0.821,2.306,0.821,3.843c0,1.346-0.401,2.587-1.204,3.723c-0.788,1.137-1.905,2.047-3.355,2.744
		C233.888,272.266,232.158,272.634,230.147,272.668z"/>
	<path fill-rule="evenodd" clip-rule="evenodd" fill="#FFFFFF" d="M12.723,272.231c0.874,0,1.59-0.264,2.149-0.769
		c0.56-0.509,0.84-1.136,0.84-1.904v-22.895h7.078c0.787,0,1.451-0.228,1.975-0.664c0.525-0.454,0.787-1.066,0.787-1.818
		c0-0.77-0.262-1.38-0.787-1.834c-0.524-0.474-1.188-0.7-1.975-0.7H2.762c-0.787,0-1.451,0.227-1.975,0.664
		C0.262,242.767,0,243.378,0,244.129c0,0.769,0.262,1.381,0.787,1.837c0.524,0.471,1.188,0.698,1.975,0.698h7.077v22.895
		c0,0.769,0.28,1.396,0.822,1.904C11.203,271.968,11.884,272.231,12.723,272.231z"/>
	<path fill-rule="evenodd" clip-rule="evenodd" fill="#FFFFFF" d="M79.64,241.647c-0.751,0-1.363,0.227-1.818,0.7
		c-0.437,0.454-0.664,1.047-0.664,1.747v18.385l-0.157,0.227l-16.288-20.098c-0.21-0.333-0.542-0.558-0.979-0.734
		c-0.455-0.157-0.892-0.227-1.311-0.227c-0.787,0-1.451,0.246-1.976,0.751c-0.524,0.525-0.786,1.153-0.786,1.904v25.48
		c0,0.7,0.227,1.276,0.682,1.748c0.454,0.473,1.031,0.7,1.765,0.7c0.752,0,1.346-0.228,1.817-0.7
		c0.472-0.472,0.699-1.048,0.699-1.748v-18.664l-0.035-0.051l0.035-0.055v0.105l16.567,20.361c0.21,0.243,0.525,0.42,0.927,0.56
		c0.402,0.121,0.803,0.191,1.206,0.191c0.769,0,1.433-0.264,1.957-0.769c0.525-0.509,0.787-1.136,0.787-1.904v-25.464
		c0-0.7-0.227-1.293-0.682-1.747C80.951,241.874,80.357,241.647,79.64,241.647z"/>
	<path fill-rule="evenodd" clip-rule="evenodd" fill="#FFFFFF" d="M184.865,270.483h-15.343l-0.227-0.156v-27.806
		c0-0.246-0.088-0.437-0.28-0.611c-0.176-0.176-0.401-0.263-0.664-0.263c-0.279,0-0.507,0.087-0.683,0.263
		c-0.191,0.175-0.28,0.365-0.28,0.611v28.836c0,0.228,0.089,0.438,0.264,0.61c0.157,0.177,0.368,0.264,0.646,0.264h16.566
		c0.246,0,0.456-0.087,0.632-0.246c0.174-0.156,0.278-0.365,0.278-0.628c0-0.227-0.104-0.437-0.278-0.611
		C185.321,270.57,185.111,270.483,184.865,270.483z"/>
	<path fill-rule="evenodd" clip-rule="evenodd" fill="#FFFFFF" d="M47.71,267.198H35.53h-0.053v0.4l-0.349-0.4h0.349v-0.019v-8.004
		l0.333-0.052h9.874c0.786,0,1.433-0.228,1.975-0.684c0.523-0.453,0.787-1.03,0.787-1.764c0-0.768-0.263-1.38-0.787-1.853
		c-0.542-0.488-1.189-0.733-1.975-0.733H35.477v0.121l-0.157-0.121h0.157v-7.307l0.105-0.12H47.71c0.787,0,1.451-0.228,1.976-0.664
		c0.524-0.454,0.786-1.048,0.786-1.782c0-0.753-0.262-1.383-0.786-1.854c-0.525-0.49-1.188-0.717-1.976-0.717H32.594
		c-0.786,0-1.433,0.246-1.958,0.751c-0.523,0.525-0.803,1.153-0.803,1.904v25.256c0,0.769,0.28,1.396,0.803,1.904
		c0.525,0.505,1.172,0.769,1.958,0.769H47.71c0.787,0,1.451-0.228,1.976-0.7c0.524-0.472,0.786-1.064,0.786-1.799
		c0-0.666-0.262-1.259-0.786-1.764C49.161,267.46,48.498,267.198,47.71,267.198z"/>
</g>
</svg>
