<?xml version="1.0" encoding="utf-8"?>
<!-- Generator: Adobe Illustrator 16.0.0, SVG Export Plug-In . SVG Version: 6.00 Build 0)  -->
<!DOCTYPE svg PUBLIC "-//W3C//DTD SVG 1.1//EN" "http://www.w3.org/Graphics/SVG/1.1/DTD/svg11.dtd">
<svg version="1.1" id="Layer_1" xmlns="http://www.w3.org/2000/svg" xmlns:xlink="http://www.w3.org/1999/xlink" x="0px" y="0px"
	 width="549.474px" height="117.544px" viewBox="-2.42 66 549.474 117.544" enable-background="new -2.42 66 549.474 117.544"
	 xml:space="preserve">
<g>
	<path fill-rule="evenodd" clip-rule="evenodd" fill="#E6D82F" d="M1.47,135.971c0-24.25,19.66-43.911,43.88-43.911
		c24.25,0,43.88,19.66,43.88,43.911c0,24.219-19.63,43.879-43.88,43.879C21.13,179.85,1.47,160.189,1.47,135.971z"/>
	<g>
		<path fill-rule="evenodd" clip-rule="evenodd" fill="#3E434B" d="M75.86,107.62c-0.47-0.61-1.05-1.22-1.76-1.93
			c-6.26-6.29-14.33-10.35-23.02-11.67c-0.03,12.14-4.68,23.9-13.02,32.74c-0.29,0.38-0.61,0.7-0.9,0.99
			c-8.95,9.01-21.04,14.01-33.58,14.07c1.31,8.72,5.38,16.82,11.64,23.109c0.641,0.62,1.26,1.23,2.04,1.87
			c6,5.33,13.23,8.72,21.07,9.89c0-12.609,4.94-24.779,13.92-33.789c0.38-0.381,0.76-0.791,1.14-1.11
			c8.81-8.31,20.45-12.899,32.44-12.96C84.64,120.99,81.27,113.71,75.86,107.62z M15.19,105.78c-0.351,0.35-0.73,0.73-1.17,1.29
			c-7.14,7.75-11,18.08-10.91,28.64c11.109,0.09,21.82-4.3,29.75-12.29c0.17-0.18,0.38-0.38,0.55-0.58l0.18-0.21
			c7.43-7.84,11.5-18.31,11.41-29.11C33.88,93.41,23.14,97.8,15.19,105.78z M73.87,165.2l0.29-0.3
			c7.93-7.98,12.26-18.75,12.17-29.92c-10.65-0.121-21,3.92-28.84,11.319c-0.32,0.29-0.64,0.61-0.94,0.9
			c-7.93,7.989-12.25,18.78-12.14,29.96c10.88,0.09,21.42-4.131,29.23-11.76L73.87,165.2z M77.79,169.88
			c-9.71,9.42-23.02,14.24-36.54,13.28h-0.11h-0.09c-10.39-0.79-20.01-4.83-27.7-11.68c-0.88-0.73-1.64-1.461-2.4-2.19
			c-8.08-8.13-12.96-18.84-13.81-30.19l-0.03-0.09l-0.03-0.109v-0.03c0-13.17,3.57-26.3,12.35-35.84c0.46-0.56,0.99-1.08,1.49-1.58
			c8.95-9.04,21.09-14.04,33.67-14.04c1.2,0,2.37,0.03,3.57,0.12h0.03c11.41,0.79,22.11,5.73,30.19,13.8
			c0.84,0.85,1.58,1.64,2.13,2.34c6.9,7.82,10.97,17.47,11.76,27.939l0.06,0.061c0,0.03,0.06,0.09,0.06,0.12
			c0,13.89-4.07,27.55-13.87,37.41C78.29,169.439,78.02,169.67,77.79,169.88z"/>
	</g>
	<path fill-rule="evenodd" clip-rule="evenodd" fill="#3E434B" d="M101.6,95.04c0.38-0.4,0.59-0.87,0.59-1.49v-11.2h10.7
		c0.47,0,0.88-0.15,1.23-0.5c0.33-0.32,0.53-0.73,0.53-1.2c0-0.52-0.2-0.96-0.53-1.31c-0.35-0.33-0.76-0.5-1.23-0.5h-10.7V67.6
		c0-0.49-0.21-0.93-0.56-1.31c-0.35-0.35-0.82-0.56-1.43-0.56c-0.56,0-1,0.21-1.38,0.56c-0.38,0.38-0.58,0.82-0.58,1.4v11.15H87.59
		c-0.5,0-0.91,0.17-1.26,0.5c-0.35,0.32-0.52,0.73-0.52,1.19c0,0.56,0.17,1,0.52,1.32c0.35,0.35,0.76,0.5,1.26,0.5h10.65v11.26
		c0,0.56,0.17,1.03,0.55,1.43c0.36,0.39,0.82,0.53,1.41,0.53C100.78,95.57,101.22,95.43,101.6,95.04z"/>
	<path fill-rule="evenodd" clip-rule="evenodd" fill="#3E434B" d="M292.15,161.63c0,1.37-0.5,2.521-1.5,3.44s-2.16,1.38-3.48,1.38
		c-1.47,0-2.66-0.46-3.55-1.38c-0.899-0.92-1.351-2.07-1.351-3.44v-45.65c0-1.37,0.48-2.51,1.431-3.44
		c0.94-0.92,2.159-1.38,3.63-1.38c1.26,0,2.38,0.46,3.359,1.38c0.971,0.93,1.461,2.07,1.461,3.44V161.63z"/>
	<path fill-rule="evenodd" clip-rule="evenodd" fill="#3E434B" d="M321.77,167.24c-3.689,0-7.01-0.461-9.949-1.381
		c-2.95-0.92-5.77-2.539-8.461-4.859c-0.68-0.58-1.209-1.24-1.579-1.971c-0.36-0.739-0.55-1.479-0.55-2.219
		c0-1.211,0.43-2.271,1.3-3.19s1.97-1.39,3.28-1.39c1,0,1.899,0.319,2.689,0.949c2,1.631,3.99,2.87,5.96,3.711
		c1.97,0.85,4.41,1.27,7.31,1.27c1.94,0,3.73-0.301,5.371-0.91c1.629-0.609,2.949-1.42,3.949-2.45s1.5-2.2,1.5-3.51
		c0-1.58-0.48-2.931-1.42-4.03c-0.949-1.109-2.4-2.039-4.35-2.81c-1.95-0.761-4.42-1.351-7.42-1.771
		c-2.85-0.42-5.35-1.07-7.51-1.939c-2.16-0.87-3.961-1.971-5.41-3.32c-1.44-1.34-2.541-2.92-3.271-4.74
		c-0.739-1.81-1.11-3.85-1.11-6.12c0-3.42,0.881-6.34,2.65-8.76c1.76-2.43,4.141-4.27,7.141-5.53c3.01-1.27,6.319-1.9,9.949-1.9
		c3.43,0,6.6,0.51,9.52,1.54c2.931,1.03,5.311,2.33,7.15,3.91c1.53,1.21,2.291,2.61,2.291,4.19c0,1.16-0.451,2.21-1.341,3.16
		c-0.899,0.94-1.95,1.42-3.159,1.42c-0.791,0-1.5-0.24-2.131-0.71c-0.85-0.74-1.98-1.44-3.4-2.09c-1.42-0.66-2.92-1.21-4.5-1.66
		c-1.58-0.45-3.06-0.67-4.43-0.67c-2.26,0-4.17,0.29-5.72,0.86c-1.56,0.58-2.729,1.37-3.521,2.37c-0.779,1-1.18,2.16-1.18,3.48
		c0,1.58,0.46,2.88,1.381,3.91c0.92,1.029,2.25,1.84,3.989,2.449c1.74,0.601,3.819,1.141,6.24,1.621
		c3.159,0.58,5.94,1.26,8.329,2.05c2.4,0.79,4.391,1.81,5.971,3.04c1.58,1.24,2.76,2.789,3.55,4.66c0.79,1.869,1.19,4.149,1.19,6.83
		c0,3.43-0.95,6.369-2.85,8.85c-1.891,2.47-4.381,4.37-7.461,5.689C328.68,166.58,325.35,167.24,321.77,167.24z"/>
	<path fill-rule="evenodd" clip-rule="evenodd" fill="#3E434B" d="M354.54,166.37c-1.521,0-2.7-0.399-3.51-1.22
		c-0.82-0.82-1.229-1.99-1.229-3.521v-1.34c0-1.53,0.409-2.7,1.229-3.521c0.81-0.81,1.989-1.22,3.51-1.22h1.03
		c1.529,0,2.699,0.41,3.51,1.22c0.82,0.82,1.23,1.99,1.23,3.521v1.34c0,1.53-0.41,2.7-1.23,3.521c-0.811,0.82-1.98,1.22-3.51,1.22
		H354.54z"/>
	<path fill-rule="evenodd" clip-rule="evenodd" fill="#3E434B" d="M393.33,138.73c2.42,0,4.48-0.541,6.189-1.621
		c1.721-1.08,3.051-2.569,3.99-4.459c0.95-1.9,1.43-4.03,1.43-6.4c0-2.42-0.479-4.52-1.43-6.28c-0.939-1.76-2.27-3.15-3.99-4.15
		c-1.709-1-3.77-1.5-6.189-1.5h-17.46l0.239-0.39v25.03l-0.319-0.229H393.33z M393.33,111.16c3,0,5.609,0.63,7.85,1.9
		c2.24,1.26,3.98,3.03,5.221,5.29c1.229,2.26,1.85,4.9,1.85,7.9c0,2.95-0.62,5.609-1.85,7.971c-1.24,2.369-2.98,4.25-5.221,5.609
		c-2.24,1.37-4.85,2.061-7.85,2.061h-17.54l0.319-0.561v23.54c0,0.42-0.18,0.79-0.52,1.11c-0.34,0.31-0.72,0.47-1.14,0.47
		c-0.53,0-0.94-0.16-1.229-0.47c-0.291-0.32-0.431-0.69-0.431-1.11v-52.13c0-0.42,0.16-0.79,0.47-1.1c0.32-0.32,0.69-0.48,1.11-0.48
		H393.33z"/>
	<path fill-rule="evenodd" clip-rule="evenodd" fill="#3E434B" d="M498.45,111.16c0.479,0,0.86,0.16,1.149,0.48
		c0.291,0.31,0.431,0.68,0.431,1.1v34.119c0,3.74-0.921,7.15-2.761,10.23c-1.85,3.08-4.289,5.54-7.35,7.391
		c-3.05,1.84-6.449,2.76-10.189,2.76s-7.15-0.92-10.23-2.76c-3.08-1.851-5.54-4.311-7.38-7.391s-2.761-6.49-2.761-10.23V112.74
		c0-0.42,0.141-0.79,0.431-1.1c0.29-0.32,0.7-0.48,1.22-0.48c0.48,0,0.87,0.16,1.19,0.48c0.31,0.31,0.47,0.68,0.47,1.1v34.119
		c0,3.16,0.77,6.051,2.29,8.65c1.53,2.61,3.601,4.69,6.2,6.24c2.609,1.561,5.46,2.33,8.57,2.33c3.16,0,6.029-0.77,8.609-2.33
		c2.58-1.55,4.65-3.63,6.2-6.24c1.56-2.6,2.33-5.49,2.33-8.65V112.74c0-0.42,0.149-0.79,0.44-1.1
		C497.6,111.32,497.98,111.16,498.45,111.16z"/>
	<path fill-rule="evenodd" clip-rule="evenodd" fill="#3E434B" d="M529.49,167.24c-4.11,0.05-7.631-0.631-10.58-2.051
		c-2.95-1.42-5.79-3.5-8.53-6.239c-0.11-0.11-0.21-0.25-0.319-0.44c-0.101-0.18-0.16-0.43-0.16-0.75c0-0.42,0.189-0.83,0.56-1.22
		c0.37-0.399,0.761-0.59,1.181-0.59c0.479,0,0.92,0.229,1.34,0.71c2.109,2.42,4.569,4.26,7.39,5.529
		c2.819,1.261,5.75,1.891,8.81,1.891c2.68,0,5.08-0.43,7.19-1.301c2.101-0.869,3.76-2.109,4.97-3.709c1.21-1.61,1.82-3.49,1.82-5.65
		c-0.061-2.689-0.79-4.84-2.21-6.48c-1.431-1.629-3.261-2.969-5.5-4.029c-2.229-1.051-4.591-2.02-7.06-2.92
		c-1.951-0.74-3.871-1.5-5.771-2.29s-3.61-1.75-5.13-2.88c-1.53-1.131-2.74-2.561-3.641-4.271c-0.89-1.71-1.34-3.83-1.34-6.36
		c0-2.57,0.7-4.9,2.09-6.99c1.4-2.08,3.4-3.73,6.01-4.97c2.601-1.24,5.701-1.86,9.281-1.86c3,0,5.92,0.54,8.76,1.62
		c2.85,1.08,5.08,2.7,6.72,4.86c0.521,0.74,0.79,1.29,0.79,1.66c0,0.37-0.2,0.74-0.59,1.1c-0.4,0.37-0.83,0.56-1.311,0.56
		c-0.42,0-0.76-0.16-1.02-0.48c-0.95-1.26-2.1-2.35-3.44-3.28c-1.34-0.92-2.86-1.63-4.54-2.13c-1.689-0.5-3.479-0.75-5.369-0.75
		c-2.58,0-4.931,0.42-7.031,1.26c-2.109,0.85-3.789,2.05-5.06,3.6c-1.26,1.55-1.89,3.46-1.89,5.72c0,2.43,0.689,4.42,2.09,5.97
		c1.4,1.55,3.17,2.84,5.33,3.87s4.37,1.96,6.641,2.8c2,0.689,3.979,1.439,5.959,2.26c1.971,0.811,3.76,1.82,5.37,3.04
		c1.61,1.21,2.88,2.729,3.83,4.58c0.95,1.841,1.42,4.16,1.42,6.95c0,2.42-0.7,4.66-2.09,6.71c-1.399,2.05-3.36,3.71-5.88,4.979
		C536.05,166.529,533.02,167.189,529.49,167.24z"/>
	<path fill-rule="evenodd" clip-rule="evenodd" fill="#3E434B" d="M149.11,166.45c1.52,0,2.77-0.46,3.75-1.38
		c0.97-0.92,1.46-2.07,1.46-3.44v-41.39l12.4,0.01c1.37,0,2.51-0.41,3.44-1.23c0.92-0.81,1.38-1.91,1.38-3.28
		c0-1.37-0.46-2.47-1.38-3.31c-0.93-0.85-2.07-1.27-3.44-1.27h-35.07c-1.37,0-2.51,0.41-3.43,1.23c-0.93,0.81-1.39,1.9-1.39,3.27
		c0,1.37,0.46,2.48,1.39,3.32c0.92,0.84,2.06,1.27,3.43,1.27l12.4-0.01v41.39c0,1.37,0.48,2.521,1.42,3.44
		C146.42,165.99,147.63,166.45,149.11,166.45z"/>
	<path fill-rule="evenodd" clip-rule="evenodd" fill="#3E434B" d="M266.16,111.16c-1.31,0-2.37,0.42-3.16,1.27
		c-0.79,0.84-1.18,1.89-1.18,3.15v33.25l-0.26,0.42l-28.49-36.35c-0.37-0.58-0.95-1.01-1.74-1.3s-1.55-0.44-2.29-0.44
		c-1.37,0-2.52,0.46-3.44,1.38c-0.92,0.93-1.38,2.07-1.38,3.44v46.049c0,1.261,0.4,2.311,1.19,3.16c0.79,0.84,1.81,1.261,3.08,1.261
		c1.31,0,2.38-0.421,3.2-1.261c0.81-0.85,1.22-1.899,1.22-3.16V128.3l-0.08-0.1l0.08-0.1v0.2l28.99,36.81
		c0.37,0.42,0.91,0.75,1.62,0.98c0.71,0.24,1.41,0.36,2.09,0.36c1.37,0,2.51-0.46,3.44-1.38c0.92-0.92,1.38-2.07,1.38-3.44v-46.05
		c0-1.26-0.4-2.31-1.19-3.15C268.45,111.58,267.43,111.16,266.16,111.16z"/>
	<path fill-rule="evenodd" clip-rule="evenodd" fill="#3E434B" d="M450.27,163.29H423.41l-0.391-0.271V112.74
		c0-0.42-0.16-0.79-0.469-1.1c-0.32-0.32-0.711-0.48-1.191-0.48c-0.469,0-0.859,0.16-1.18,0.48c-0.32,0.31-0.479,0.68-0.479,1.1
		v52.13c0,0.42,0.149,0.79,0.44,1.11c0.289,0.31,0.67,0.47,1.14,0.47h28.989c0.42,0,0.791-0.14,1.11-0.431
		c0.31-0.289,0.47-0.68,0.47-1.149c0-0.42-0.16-0.79-0.47-1.101C451.061,163.45,450.689,163.29,450.27,163.29z"/>
	<path fill-rule="evenodd" clip-rule="evenodd" fill="#3E434B" d="M210.32,157.37h-21.34h-0.06l0,0l0,0l0,0v-0.05v-14.461
		l0.55-0.109l17.3,0.01c1.37,0,2.51-0.41,3.43-1.23c0.92-0.809,1.38-1.879,1.38-3.199c0-1.37-0.46-2.48-1.38-3.35
		c-0.92-0.871-2.06-1.311-3.43-1.311h-17.85l0,0l0,0l0,0v-13.21l0.18-0.22l21.22,0.01c1.37,0,2.51-0.41,3.44-1.23
		c0.92-0.81,1.38-1.88,1.38-3.2c0-1.37-0.46-2.49-1.38-3.35c-0.93-0.87-2.07-1.31-3.44-1.31h-26.46c-1.37,0-2.51,0.46-3.43,1.38
		c-0.93,0.93-1.39,2.07-1.39,3.44v45.65c0,1.37,0.46,2.521,1.39,3.44c0.92,0.92,2.06,1.38,3.43,1.38h26.46
		c1.37,0,2.51-0.421,3.44-1.261c0.92-0.85,1.38-1.92,1.38-3.239c0-1.21-0.46-2.28-1.38-3.2
		C212.83,157.83,211.69,157.37,210.32,157.37z"/>
</g>
</svg>
