<?xml version="1.0" encoding="utf-8"?>
<!-- Generator: Adobe Illustrator 16.0.0, SVG Export Plug-In . SVG Version: 6.00 Build 0)  -->
<!DOCTYPE svg PUBLIC "-//W3C//DTD SVG 1.1//EN" "http://www.w3.org/Graphics/SVG/1.1/DTD/svg11.dtd">
<svg version="1.1" id="Layer_1" xmlns="http://www.w3.org/2000/svg" xmlns:xlink="http://www.w3.org/1999/xlink" x="0px" y="0px"
	 width="42px" height="42px" viewBox="0 0 42 42" enable-background="new 0 0 42 42" xml:space="preserve">
<circle fill="#FFA72B" cx="21" cy="21" r="21"/>
<g>
	<path fill="#FFFFFF" stroke="#FFFFFF" stroke-miterlimit="10" d="M15,18.069c2.506,0,4.545-2.038,4.545-4.544
		S17.506,8.979,15,8.979s-4.544,2.04-4.544,4.546S12.493,18.069,15,18.069z M15,10.07c1.905,0,3.455,1.549,3.455,3.455
		c0,1.904-1.549,3.454-3.455,3.454c-1.904,0-3.454-1.55-3.454-3.454C11.546,11.62,13.095,10.07,15,10.07z"/>
	<path fill="#FFFFFF" stroke="#FFFFFF" stroke-miterlimit="10" d="M26.999,18.069c2.507,0,4.545-2.038,4.545-4.544
		s-2.038-4.546-4.545-4.546s-4.544,2.04-4.544,4.546S24.492,18.069,26.999,18.069z M26.999,10.07c1.905,0,3.455,1.549,3.455,3.455
		c0,1.904-1.55,3.454-3.455,3.454c-1.904,0-3.455-1.55-3.455-3.454C23.544,11.62,25.095,10.07,26.999,10.07z"/>
	<path fill="#FFFFFF" stroke="#FFFFFF" stroke-miterlimit="10" d="M15,20.179c-4.711,0-8.544,3.832-8.544,8.545
		c0,0.301,0.245,0.544,0.545,0.544c0.301,0,0.545-0.243,0.545-0.544c0-4.111,3.344-7.453,7.454-7.453
		c4.111,0,7.456,3.342,7.456,7.453c0,0.301,0.244,0.544,0.545,0.544c0.302,0,0.544-0.243,0.544-0.544
		C23.544,24.011,19.712,20.179,15,20.179z"/>
	<path fill="#FFFFFF" stroke="#FFFFFF" stroke-miterlimit="10" d="M33.791,23.56c-0.011-0.02-0.014-0.039-0.028-0.057
		c-0.032-0.042-0.07-0.077-0.104-0.12c-0.098-0.121-0.202-0.236-0.307-0.353c-0.102-0.114-0.201-0.232-0.31-0.341
		c-0.033-0.033-0.072-0.065-0.106-0.099c-0.328-0.318-0.679-0.606-1.048-0.865c-0.046-0.032-0.089-0.066-0.136-0.099
		c-0.174-0.116-0.354-0.222-0.536-0.325c-0.074-0.044-0.149-0.087-0.226-0.128c-0.173-0.091-0.348-0.174-0.524-0.253
		c-0.1-0.045-0.2-0.086-0.301-0.127c-0.166-0.066-0.331-0.128-0.501-0.185c-0.129-0.042-0.26-0.077-0.391-0.114
		c-0.153-0.041-0.304-0.083-0.457-0.117c-0.174-0.038-0.351-0.064-0.527-0.091c-0.121-0.018-0.24-0.042-0.362-0.055
		c-0.306-0.033-0.615-0.053-0.929-0.053c-1.712,0-2.653,0.087-4.064,1.042c-0.25,0.168-0.317,0.507-0.149,0.757
		c0.17,0.251,0.51,0.315,0.759,0.146c1.232-0.832,1.962-0.854,3.455-0.854c0.272,0,0.542,0.016,0.81,0.045
		c0.109,0.013,0.215,0.033,0.322,0.049c0.151,0.024,0.303,0.047,0.452,0.078c0.139,0.03,0.274,0.069,0.411,0.106
		c0.107,0.03,0.216,0.061,0.324,0.095c0.153,0.051,0.306,0.107,0.455,0.167c0.08,0.032,0.159,0.066,0.239,0.101
		c0.162,0.072,0.322,0.148,0.479,0.231c0.055,0.029,0.109,0.062,0.164,0.094c0.17,0.095,0.339,0.194,0.5,0.303
		c0.017,0.012,0.03,0.022,0.046,0.033c0.517,0.354,0.981,0.774,1.393,1.243c0.066,0.074,0.134,0.148,0.197,0.228
		c1.036,1.279,1.661,2.907,1.661,4.681c0,0.301,0.243,0.544,0.545,0.544c0.304,0,0.547-0.243,0.547-0.544
		C35.545,26.782,34.886,24.996,33.791,23.56z"/>
</g>
</svg>
