<svg xmlns="http://www.w3.org/2000/svg" width="42" height="42"><circle fill="#BBB" cx="21" cy="21" r="21"/><g fill="#FFF"><path d="M11.619 14.321l8.027 6.358c.363.285.867.414 1.352.392.488.022.988-.103 1.355-.392l8.027-6.358c.641-.508.496-.922-.32-.922H11.939c-.816 0-.96.414-.32.922z"/><path d="M30.959 15.997l-8.772 6.66c-.329.246-.759.367-1.185.363-.43.004-.859-.117-1.188-.363l-8.773-6.66c-.652-.493-1.184-.227-1.184.589v10.926c0 .816.668 1.488 1.484 1.488h19.316c.816 0 1.484-.672 1.484-1.488V16.586c.002-.815-.53-1.082-1.182-.589z"/></g></svg>