<?xml version="1.0" encoding="utf-8"?>
<!-- Generator: Adobe Illustrator 16.0.0, SVG Export Plug-In . SVG Version: 6.00 Build 0)  -->
<!DOCTYPE svg PUBLIC "-//W3C//DTD SVG 1.1//EN" "http://www.w3.org/Graphics/SVG/1.1/DTD/svg11.dtd">
<svg version="1.1" id="Layer_1" xmlns="http://www.w3.org/2000/svg" xmlns:xlink="http://www.w3.org/1999/xlink" x="0px" y="0px"
	 width="42px" height="42px" viewBox="0 0 42 42" enable-background="new 0 0 42 42" xml:space="preserve">
<circle fill="#87C100" cx="21" cy="21" r="21"/>
<path fill="#FFFFFF" d="M9.531,19.678c-0.753,0-1.364-0.608-1.364-1.364c0-0.756,0.611-1.364,1.364-1.364h1.891
	c1.563-5.258,6.434-9.092,12.201-9.092h1.365c0.754,0,1.363,0.611,1.363,1.364s-0.609,1.364-1.363,1.364h-1.365
	c-4.238,0-7.864,2.637-9.37,6.364h8.917c0.754,0,1.363,0.608,1.363,1.364c0,0.755-0.609,1.364-1.363,1.364h-9.507
	c-0.028,0.301-0.04,0.602-0.04,0.909c0,0.308,0.012,0.608,0.04,0.909h9.507c0.754,0,1.363,0.609,1.363,1.363
	c0,0.758-0.609,1.365-1.363,1.365h-8.917c1.506,3.727,5.132,6.363,9.37,6.363h1.365c0.754,0,1.363,0.609,1.363,1.363
	c0,0.758-0.609,1.365-1.363,1.365h-1.365c-5.767,0-10.637-3.836-12.201-9.092H9.531c-0.753,0-1.364-0.607-1.364-1.365
	c0-0.754,0.611-1.363,1.364-1.363h1.396c-0.021-0.301-0.032-0.601-0.032-0.909c0-0.307,0.011-0.608,0.032-0.909H9.531z"/>
</svg>
