<svg xmlns="http://www.w3.org/2000/svg" width="42" height="42"><circle fill-rule="evenodd" clip-rule="evenodd" fill="#A3D900" cx="21" cy="21" r="21"/><path fill-rule="evenodd" clip-rule="evenodd" fill="#FFF" d="M19.08 11.23c0-1.4 1.14-2.53 2.55-2.53s2.55 1.13 2.55 2.53c0 1.39-1.14 2.52-2.55 2.52s-2.55-1.13-2.55-2.52zm12.43 5.1l-2.36 1.29.05-2.67c.02-.95.81-1.52 1.56-1.52.29 0 .56.08.81.23.48.29.76.79.75 1.35-.02.56-.32 1.05-.81 1.32zm-10.53 2.02a14.94 14.94 0 0 0 5.77 1.86l-.8 1.3a15.39 15.39 0 0 1-5.08-2.9l.11-.26zm11.31-5.87c-.47-.28-.99-.42-1.53-.42-1.62 0-2.91 1.25-2.95 2.86l-.05 2.6c-2.1-.1-4.12-.74-5.9-1.86l-1.08-.68c-.28-.16-.56-.23-.59-.24-1.15-.37-2.29.09-2.72 1.15l-2.55 6.34c-.1.24-.27.85-.27 1.28a7.17 7.17 0 0 1-3.25 5.93l-.72.47c-.64.42-.81 1.28-.39 1.91.43.64 1.29.81 1.93.39l.72-.47a9.952 9.952 0 0 0 4.17-5.8c2 1.52 3.71 3.34 5.1 5.44l.33.49c.27.4.71.62 1.16.62.26 0 .53-.08.77-.23.64-.42.81-1.28.39-1.91l-.32-.49c-1.57-2.36-3.5-4.41-5.74-6.11l.99-2.45c1.61 1.24 3.44 2.22 5.38 2.86l.44.14c.14.05.29.07.44.07.58 0 1.12-.36 1.32-.94.15-.44.06-.88-.2-1.23l1.16-1.87h.24c.77 0 1.4-.64 1.4-1.4l-.01-.17 2.22-1.22a2.9 2.9 0 0 0 1.53-2.5c.02-1.05-.51-2.01-1.42-2.56z"/></svg>