<?xml version="1.0" encoding="utf-8"?>
<!-- Generator: Adobe Illustrator 16.0.0, SVG Export Plug-In . SVG Version: 6.00 Build 0)  -->
<!DOCTYPE svg PUBLIC "-//W3C//DTD SVG 1.1//EN" "http://www.w3.org/Graphics/SVG/1.1/DTD/svg11.dtd">
<svg version="1.1" id="Layer_1" xmlns="http://www.w3.org/2000/svg" xmlns:xlink="http://www.w3.org/1999/xlink" x="0px" y="0px"
	 width="42px" height="42px" viewBox="0 0 42 42" enable-background="new 0 0 42 42" xml:space="preserve">
<circle fill="#A3D900" cx="21" cy="21" r="21"/>
<path fill="#FFFFFF" d="M21.121,20.213c3.389,0,6.135-2.748,6.135-6.134c0-3.388-2.746-6.134-6.135-6.134
	c-3.388,0-6.135,2.746-6.135,6.134C14.986,17.466,17.733,20.213,21.121,20.213z M21.121,9.478c2.538,0,4.601,2.065,4.601,4.602
	c0,2.535-2.063,4.6-4.601,4.6c-2.537,0-4.6-2.065-4.6-4.6C16.521,11.543,18.586,9.478,21.121,9.478z M23.551,22.514h-4.859
	c-4.586,0-8.306,3.719-8.306,8.305c0,0.918,0.744,1.66,1.661,1.66h18.147c0.918,0.004,1.661-0.74,1.661-1.66
	C31.855,26.232,28.137,22.514,23.551,22.514z M30.192,30.949H12.047c-0.07,0-0.127-0.059-0.127-0.131
	c0-3.732,3.038-6.771,6.771-6.771h4.854c3.737,0,6.775,3.039,6.775,6.771C30.322,30.891,30.266,30.949,30.192,30.949z"/>
</svg>
