<?xml version="1.0" encoding="utf-8"?>
<!-- Generator: Adobe Illustrator 16.0.0, SVG Export Plug-In . SVG Version: 6.00 Build 0)  -->
<!DOCTYPE svg PUBLIC "-//W3C//DTD SVG 1.1//EN" "http://www.w3.org/Graphics/SVG/1.1/DTD/svg11.dtd">
<svg version="1.1" id="Layer_1" xmlns="http://www.w3.org/2000/svg" xmlns:xlink="http://www.w3.org/1999/xlink" x="0px" y="0px"
	 width="42px" height="42px" viewBox="0 0 42 42" enable-background="new 0 0 42 42" xml:space="preserve">
<circle fill="#D96D00" cx="21" cy="21" r="21"/>
<path fill="#FAFFF8" d="M14.42,13.896c0-0.666,0.538-1.202,1.202-1.202h2.404c0.667,0,1.203,0.536,1.203,1.202v2.404
	c0,0.667-0.536,1.202-1.203,1.202h-2.404c-0.664,0-1.202-0.536-1.202-1.202V13.896z M16.023,14.297v1.604h1.603v-1.604H16.023z
	 M26.041,12.694c0.665,0,1.203,0.536,1.203,1.202v2.404c0,0.667-0.538,1.202-1.203,1.202h-2.404c-0.667,0-1.202-0.536-1.202-1.202
	v-2.404c0-0.666,0.535-1.202,1.202-1.202H26.041z M25.641,15.901v-1.604h-1.604v1.604H25.641z M14.42,20.308
	c0-0.666,0.538-1.202,1.202-1.202h2.404c0.667,0,1.203,0.536,1.203,1.202v2.405c0,0.666-0.536,1.203-1.203,1.203h-2.404
	c-0.664,0-1.202-0.537-1.202-1.203V20.308z M16.023,20.708v1.604h1.603v-1.604H16.023z M26.041,19.106
	c0.665,0,1.203,0.536,1.203,1.202v2.405c0,0.666-0.538,1.203-1.203,1.203h-2.404c-0.667,0-1.202-0.537-1.202-1.203v-2.405
	c0-0.666,0.535-1.202,1.202-1.202H26.041z M25.641,22.313v-1.604h-1.604v1.604H25.641z M14.42,33.533
	c-1.771,0-3.206-1.438-3.206-3.207V11.092c0-1.771,1.435-3.206,3.206-3.206h12.824c1.767,0,3.204,1.436,3.204,3.206v19.234
	c0,1.77-1.438,3.207-3.204,3.207H14.42z M12.817,11.092v19.234c0,0.887,0.718,1.604,1.604,1.604h3.205v-3.207
	c0-1.768,1.438-3.205,3.206-3.205s3.206,1.438,3.206,3.205v3.207h3.207c0.885,0,1.601-0.717,1.601-1.604V11.092
	c0-0.885-0.716-1.603-1.601-1.603H14.42C13.535,9.489,12.817,10.207,12.817,11.092z M22.435,28.723c0-0.885-0.716-1.604-1.603-1.604
	c-0.887,0-1.603,0.719-1.603,1.604v3.207h3.206V28.723z"/>
</svg>
