<svg xmlns="http://www.w3.org/2000/svg" width="42" height="42"><circle fill-rule="evenodd" clip-rule="evenodd" fill="#D96D00" cx="21" cy="21" r="21"/><path fill-rule="evenodd" clip-rule="evenodd" fill="#FFF" d="M18.98 41.9c.66.07 1.33.1 2.02.1l-3.02-4.83 3.45-2.15c.94-.59 1.83-1.16 2.65-1.71l4.46-2.78 4.69 7.54c.46-.32.9-.67 1.32-1.03L24.23 20.46l6.36-3.98 8.95 14.39c.31-.58.59-1.18.85-1.79L28.49 9.92.92 27.18c.17.54.36 1.08.57 1.61l6.69-4.19 1.77 2.82-6.97 4.36c.28.48.58.94.9 1.39l6.95-4.34 4.81 7.73-3.28 2.04-1.37.87c.61.33 1.23.63 1.87.89l.43-.27 3.28-2.04 2.41 3.85zm-1.93-6.22l-4.81-7.73 10.58-6.61 4.84 7.78-4.46 2.78c-.85.49-1.76 1.04-2.7 1.62l-3.45 2.16zm12.67-20.62L11.36 26.54l-1.77-2.82 18.36-11.49 1.77 2.83z"/></svg>