<?xml version="1.0" encoding="utf-8"?>
<!-- Generator: Adobe Illustrator 16.0.0, SVG Export Plug-In . SVG Version: 6.00 Build 0)  -->
<!DOCTYPE svg PUBLIC "-//W3C//DTD SVG 1.1//EN" "http://www.w3.org/Graphics/SVG/1.1/DTD/svg11.dtd">
<svg version="1.1" id="Layer_1" xmlns="http://www.w3.org/2000/svg" xmlns:xlink="http://www.w3.org/1999/xlink" x="0px" y="0px"
	 width="42px" height="42px" viewBox="0 0 42 42" enable-background="new 0 0 42 42" xml:space="preserve">
<circle fill="#00A3D9" cx="21" cy="21" r="21"/>
<path fill="#FFFFFF" d="M19.906,27.883c-0.316,0.303-0.316,0.793,0,1.092c0.157,0.148,0.364,0.225,0.571,0.225
	c0.207,0,0.414-0.076,0.572-0.225l4.854-4.633c0.315-0.301,0.315-0.791,0-1.092l-4.854-4.633c-0.316-0.302-0.828-0.302-1.144,0
	c-0.315,0.301-0.315,0.79,0,1.091l3.474,3.315H7.533c-0.447,0-0.809,0.35-0.809,0.771c0,0.426,0.362,0.773,0.809,0.773h15.846
	L19.906,27.883z M31.665,14.399L26.281,9.26c-0.611-0.582-1.431-0.907-2.289-0.907h-7.561c-1.784,0-3.236,1.382-3.236,3.089v8.494
	c0,0.425,0.364,0.772,0.809,0.772s0.809-0.347,0.809-0.772v-8.494c0-0.853,0.725-1.544,1.618-1.544h6.472v5.405
	c0,1.278,1.089,2.317,2.427,2.317h5.663v12.354c0,0.852-0.725,1.545-1.618,1.545H16.432c-0.893,0-1.618-0.693-1.618-1.545v-2.316
	c0-0.424-0.364-0.773-0.809-0.773s-0.809,0.35-0.809,0.773v2.316c0,1.707,1.449,3.088,3.236,3.088h12.943
	c1.788,0,3.236-1.381,3.236-3.088V16.58C32.611,15.76,32.271,14.978,31.665,14.399z M25.33,16.074c-0.444,0-0.809-0.348-0.809-0.772
	V9.998c0.227,0.075,0.438,0.186,0.613,0.352l5.385,5.14c0.174,0.164,0.291,0.367,0.367,0.584H25.33z"/>
</svg>
