<svg xmlns="http://www.w3.org/2000/svg" width="42" height="42"><circle fill-rule="evenodd" clip-rule="evenodd" fill="#00A3D9" cx="21" cy="21" r="21"/><path fill-rule="evenodd" clip-rule="evenodd" fill="#FFF" d="M23.13 29.55c-.09.11-.19.22-.33.35a7.648 7.648 0 0 1-4.3 2.17c0-2.25-.87-4.44-2.42-6.08-.06-.07-.12-.13-.18-.18a8.87 8.87 0 0 0-6.26-2.62 7.813 7.813 0 0 1 2.17-4.29c.12-.11.24-.23.38-.34 1.12-1 2.47-1.62 3.93-1.84.01 2.34.93 4.6 2.6 6.27l.22.21a8.854 8.854 0 0 0 6.05 2.4 7.625 7.625 0 0 1-1.86 3.95zm-11.32.34c-.07-.07-.14-.14-.22-.24a7.751 7.751 0 0 1-2.04-5.32c2.08-.01 4.07.8 5.55 2.28l.11.11.03.04a7.705 7.705 0 0 1 2.13 5.4c-2.08.02-4.08-.79-5.56-2.27zm10.95-11.04l.05.06a7.745 7.745 0 0 1 2.27 5.56c-1.98.02-3.92-.73-5.38-2.11l-.17-.17a7.745 7.745 0 0 1-2.27-5.56c2.03-.01 4 .77 5.45 2.19l.05.03zm.73-.86a8.9 8.9 0 0 0-6.82-2.47h-.04c-1.94.14-3.73.9-5.17 2.17-.16.13-.3.27-.44.41a8.832 8.832 0 0 0-2.58 5.6l-.01.02v.02c0 2.45.66 4.88 2.3 6.66.09.1.19.2.28.29a8.852 8.852 0 0 0 6.29 2.61c.22 0 .44-.01.66-.02a8.898 8.898 0 0 0 5.64-2.57c.16-.15.3-.3.4-.43a8.722 8.722 0 0 0 2.19-5.19l.01-.01.01-.02c0-2.58-.75-5.12-2.58-6.95-.04-.04-.1-.09-.14-.12zm-1.76-4.81c.14 0 .29-.06.4-.17l2.57-2.56a.58.58 0 0 0 0-.81.567.567 0 0 0-.8 0l-2.57 2.57c-.22.22-.22.58 0 .8.11.11.25.17.4.17zm2.48 2.71c.11.11.25.17.4.17.14 0 .29-.06.4-.17l2.9-2.89a.58.58 0 0 0 0-.81.58.58 0 0 0-.81 0l-2.89 2.9a.55.55 0 0 0 0 .8zm4.69-4.12c.15 0 .29-.06.4-.17l1.26-1.25c.22-.23.22-.58 0-.8a.562.562 0 0 0-.81 0L28.5 10.8c-.22.22-.22.58 0 .8.11.11.26.17.4.17zm7.22-2.03a.567.567 0 0 0-.8 0l-8.23 8.23a.58.58 0 0 0 0 .81c.11.11.26.16.4.16.15 0 .29-.05.4-.16l8.23-8.24a.55.55 0 0 0 0-.8z"/></svg>