<svg xmlns="http://www.w3.org/2000/svg" width="42" height="42"><circle fill-rule="evenodd" clip-rule="evenodd" fill="#FF4000" cx="21" cy="21" r="21"/><path fill-rule="evenodd" clip-rule="evenodd" fill="#FFF" d="M31.23 11.02h-2.3c-.42 0-.77.34-.77.76s.35.76.77.76h1.54v16.94H11.53V12.54h2.05c.42 0 .77-.34.77-.76s-.35-.76-.77-.76h-2.81c-.42 0-.77.34-.77.76v18.46c0 .42.35.76.77.76h20.46c.42 0 .77-.34.77-.76V11.78c0-.42-.35-.76-.77-.76z"/><path fill-rule="evenodd" clip-rule="evenodd" fill="#FFF" d="M22.02 11.02h-2.17c-.42 0-.77.34-.77.76s.35.76.77.76h2.17c.43 0 .77-.34.77-.76s-.34-.76-.77-.76zM16.4 24.68h-1.8a.76.76 0 0 0-.76.76v1.26c0 .42.34.76.76.76h1.8c.42 0 .76-.34.76-.76v-1.26a.76.76 0 0 0-.76-.76zm5.5 0h-1.92c-.43 0-.77.34-.77.76v1.26c0 .42.34.76.77.76h1.92c.42 0 .76-.34.76-.76v-1.26a.76.76 0 0 0-.76-.76zm-4.74-3.42c0-.41-.34-.75-.76-.75h-1.8c-.42 0-.76.34-.76.75v1.27c0 .42.34.76.76.76h1.8c.42 0 .76-.34.76-.76v-1.27zm5.5 0c0-.41-.34-.75-.76-.75h-1.92a.76.76 0 0 0-.77.75v1.27c0 .42.34.76.77.76h1.92c.42 0 .76-.34.76-.76v-1.27zm4.61-.75h-1.79a.76.76 0 0 0-.77.75v1.27c0 .42.34.76.77.76h1.79c.42 0 .76-.34.76-.76v-1.27c0-.41-.34-.75-.76-.75zm-13.43-3.54v1.26c0 .42.34.76.76.76h1.8c.42 0 .76-.34.76-.76v-1.26a.76.76 0 0 0-.76-.76h-1.8a.76.76 0 0 0-.76.76zm8.82 0a.76.76 0 0 0-.76-.76h-1.92c-.43 0-.77.34-.77.76v1.26c0 .42.34.76.77.76h1.92c.42 0 .76-.34.76-.76v-1.26zm5.37 0a.76.76 0 0 0-.76-.76h-1.79c-.43 0-.77.34-.77.76v1.26c0 .42.34.76.77.76h1.79c.42 0 .76-.34.76-.76v-1.26zm-11.12-2.91c.42 0 .76-.34.76-.76V9.76a.76.76 0 0 0-.76-.76h-.77c-.42 0-.77.34-.77.76v3.54c0 .42.35.76.77.76h.77zM25.73 9h-.76c-.43 0-.77.34-.77.76v3.54c0 .42.34.76.77.76h.76c.42 0 .77-.34.77-.76V9.76c0-.42-.35-.76-.77-.76z"/></svg>