<svg xmlns="http://www.w3.org/2000/svg" width="42" height="42"><circle fill-rule="evenodd" clip-rule="evenodd" fill="#00B2B2" cx="21" cy="21" r="21"/><path fill-rule="evenodd" clip-rule="evenodd" fill="#FFF" d="M29.4 22H14.6l-1.96-8.5h18.67L29.4 22zm3.44-9.72a.759.759 0 0 0-.59-.28H12.29l-.56-2.42A.749.749 0 0 0 11 9H7.75c-.41 0-.75.34-.75.75s.34.75.75.75h2.65l3.79 16.42c.08.34.38.58.73.58h15.03c.41 0 .75-.34.75-.75s-.34-.75-.75-.75H15.52l-.58-2.5H30c.35 0 .65-.24.73-.59l2.25-10c.05-.22 0-.45-.14-.63zM18 32.5a1.25 1.25 0 1 1 0-2.5 1.25 1.25 0 0 1 0 2.5zm0-4c-1.52 0-2.75 1.23-2.75 2.75S16.48 34 18 34s2.75-1.23 2.75-2.75S19.52 28.5 18 28.5zm9 4a1.25 1.25 0 1 1 0-2.5 1.25 1.25 0 0 1 0 2.5zm0-4c-1.52 0-2.75 1.23-2.75 2.75S25.48 34 27 34s2.75-1.23 2.75-2.75S28.52 28.5 27 28.5z"/></svg>