<?xml version="1.0" encoding="utf-8"?>
<!-- Generator: Adobe Illustrator 16.0.0, SVG Export Plug-In . SVG Version: 6.00 Build 0)  -->
<!DOCTYPE svg PUBLIC "-//W3C//DTD SVG 1.1//EN" "http://www.w3.org/Graphics/SVG/1.1/DTD/svg11.dtd">
<svg version="1.1" id="Layer_1" xmlns="http://www.w3.org/2000/svg" xmlns:xlink="http://www.w3.org/1999/xlink" x="0px" y="0px"
	 width="42px" height="42px" viewBox="0 0 42 42" enable-background="new 0 0 42 42" xml:space="preserve">
<circle fill="#D8CD00" cx="21" cy="21" r="21"/>
<path fill="#FFFFFF" d="M20.999,6.559C13.024,6.559,6.56,13.024,6.56,21c0,7.977,6.464,14.44,14.439,14.44
	c7.977,0,14.44-6.463,14.44-14.44C35.439,13.024,29.026,6.559,20.999,6.559z M18.727,8.588c0.073,3.206-1.349,6.387-4.169,8.362
	c-1.799,1.257-3.873,1.771-5.917,1.714C9.549,13.565,13.627,9.542,18.727,8.588z M8.415,21c0-0.162,0.018-0.32,0.024-0.48
	c0.147,0.007,0.294,0.023,0.443,0.023c2.324,0,4.67-0.687,6.712-2.119c3.375-2.364,5.099-6.199,4.966-10.035
	c0.162-0.006,0.326-0.024,0.489-0.024c6.967,0,12.636,5.669,12.636,12.635c0,0.175-0.02,0.346-0.026,0.52
	c-2.468-0.095-4.98,0.531-7.153,2.055c-3.375,2.363-5.099,6.199-4.965,10.033c-0.164,0.012-0.327,0.027-0.491,0.027
	C14.084,33.635,8.415,27.967,8.415,21z M23.374,33.41c-0.075-3.205,1.347-6.387,4.164-8.359c1.729-1.211,3.714-1.793,5.681-1.793
	c0.083,0,0.166,0.014,0.248,0.016C32.535,28.4,28.495,32.451,23.374,33.41z"/>
</svg>
