<svg xmlns="http://www.w3.org/2000/svg" width="42" height="42"><circle fill-rule="evenodd" clip-rule="evenodd" fill="#FFA64D" cx="21" cy="21" r="21"/><g clip-rule="evenodd"><path fill-rule="evenodd" fill="#FFF" d="M30.67 13.99c-.15 2.75-1.23 4.59-2.42 5.81v-6.44h1.81c.35 0 .63.28.61.63zm-7.01 19.14h-5.32c0-.96 1.04-1.75 2.37-1.85h.58c1.33.1 2.37.89 2.37 1.85zM11.33 13.99c-.02-.35.26-.63.61-.63h1.81v6.44c-1.19-1.22-2.27-3.06-2.42-5.81zm14.79 9.24a5.353 5.353 0 0 1-4.89 3.16h-.46c-2.18 0-4.06-1.3-4.89-3.16-.28-.64-.44-1.35-.45-2.1v-7.77h11.14v7.77c-.01.75-.17 1.46-.45 2.1zm6.23-9.15c.03-.62-.2-1.23-.63-1.68-.43-.45-1.04-.71-1.66-.71H11.94c-.62 0-1.23.26-1.66.71a2.28 2.28 0 0 0-.63 1.68c.09 1.72.52 3.29 1.26 4.66a9.94 9.94 0 0 0 2.4 2.93c.17.14.34.27.51.39.08.6.24 1.18.48 1.75.36.83.86 1.57 1.51 2.21.64.64 1.39 1.14 2.23 1.49.68.29 1.39.46 2.12.52v1.64c-.74.11-1.44.38-2.01.78-.95.66-1.49 1.64-1.49 2.68v1.67h8.68v-1.67c0-1.04-.54-2.02-1.49-2.68a4.73 4.73 0 0 0-2.01-.78v-1.64c.73-.06 1.44-.23 2.12-.52.84-.35 1.59-.85 2.23-1.49.65-.64 1.15-1.38 1.51-2.21.24-.57.4-1.15.48-1.75.17-.12.34-.25.51-.39a9.94 9.94 0 0 0 2.4-2.93c.74-1.37 1.17-2.94 1.26-4.66z"/><path fill="none" d="M30.67 13.99c-.15 2.75-1.23 4.59-2.42 5.81v-6.44h1.81c.35 0 .63.28.61.63zm-7.01 19.14h-5.32c0-.96 1.04-1.75 2.37-1.85h.58c1.33.1 2.37.89 2.37 1.85zM11.33 13.99c-.02-.35.26-.63.61-.63h1.81v6.44c-1.19-1.22-2.27-3.06-2.42-5.81zm14.79 9.24a5.353 5.353 0 0 1-4.89 3.16h-.46c-2.18 0-4.06-1.3-4.89-3.16-.28-.64-.44-1.35-.45-2.1v-7.77h11.14v7.77c-.01.75-.17 1.46-.45 2.1zm6.23-9.15c.03-.62-.2-1.23-.63-1.68-.43-.45-1.04-.71-1.66-.71H11.94c-.62 0-1.23.26-1.66.71a2.28 2.28 0 0 0-.63 1.68c.09 1.72.52 3.29 1.26 4.66a9.94 9.94 0 0 0 2.4 2.93c.17.14.34.27.51.39.08.6.24 1.18.48 1.75.36.83.86 1.57 1.51 2.21.64.64 1.39 1.14 2.23 1.49.68.29 1.39.46 2.12.52v1.64c-.74.11-1.44.38-2.01.78-.95.66-1.49 1.64-1.49 2.68v1.67h8.68v-1.67c0-1.04-.54-2.02-1.49-2.68a4.73 4.73 0 0 0-2.01-.78v-1.64c.73-.06 1.44-.23 2.12-.52.84-.35 1.59-.85 2.23-1.49.65-.64 1.15-1.38 1.51-2.21.24-.57.4-1.15.48-1.75.17-.12.34-.25.51-.39a9.94 9.94 0 0 0 2.4-2.93c.74-1.37 1.17-2.94 1.26-4.66z"/></g></svg>