<?xml version="1.0" encoding="utf-8"?>
<!-- Generator: Adobe Illustrator 16.0.0, SVG Export Plug-In . SVG Version: 6.00 Build 0)  -->
<!DOCTYPE svg PUBLIC "-//W3C//DTD SVG 1.1//EN" "http://www.w3.org/Graphics/SVG/1.1/DTD/svg11.dtd">
<svg version="1.1" id="Layer_1" xmlns="http://www.w3.org/2000/svg" xmlns:xlink="http://www.w3.org/1999/xlink" x="0px" y="0px"
	 width="42px" height="42px" viewBox="0 0 42 42" enable-background="new 0 0 42 42" xml:space="preserve">
<circle fill="#FF6CB5" cx="21" cy="21" r="21"/>
<path fill="#FFFFFF" d="M10.565,7.242c0-0.967,0.813-1.747,1.819-1.747s1.819,0.78,1.819,1.747c0,0.96-0.813,1.741-1.819,1.741
	S10.565,8.203,10.565,7.242z M19.431,10.765l-1.684,0.89l0.036-1.843c0.015-0.656,0.578-1.05,1.113-1.05
	c0.207,0,0.4,0.055,0.579,0.159c0.34,0.2,0.541,0.545,0.536,0.932C19.994,10.239,19.78,10.578,19.431,10.765z M11.92,12.159
	c1.266,0.697,2.667,1.133,4.115,1.284l-0.571,0.897c-1.329-0.437-2.559-1.117-3.623-2.002L11.92,12.159z M19.987,8.105
	c-0.335-0.193-0.707-0.29-1.091-0.29c-1.156,0-2.077,0.863-2.104,1.975l-0.036,1.795c-1.498-0.069-2.938-0.511-4.208-1.284
	l-0.77-0.469c-0.2-0.111-0.399-0.159-0.421-0.166c-0.82-0.255-1.633,0.062-1.939,0.794l-1.819,4.378
	c-0.071,0.166-0.193,0.587-0.193,0.884c-0.017,1.653-0.887,3.19-2.317,4.094l-0.514,0.325c-0.457,0.291-0.578,0.884-0.278,1.319
	c0.307,0.442,0.92,0.559,1.376,0.27l0.514-0.326c1.469-0.933,2.529-2.359,2.974-4.005c1.427,1.051,2.646,2.307,3.638,3.757
	l0.236,0.338c0.193,0.277,0.506,0.427,0.827,0.427c0.185,0,0.378-0.053,0.549-0.156c0.456-0.292,0.577-0.885,0.277-1.321
	l-0.228-0.338c-1.119-1.629-2.496-3.044-4.094-4.219l0.707-1.692c1.148,0.855,2.454,1.532,3.837,1.976l0.313,0.096
	c0.101,0.035,0.208,0.048,0.314,0.048c0.414,0,0.798-0.249,0.941-0.649c0.107-0.302,0.042-0.607-0.143-0.848l0.827-1.292h0.172
	c0.548,0,0.999-0.441,0.999-0.966l-0.008-0.117l1.583-0.843c0.66-0.342,1.077-1.002,1.091-1.726
	C21.015,9.148,20.636,8.485,19.987,8.105z"/>
<path fill="#FFFFFF" d="M28.152,19.815c-1.005,0-1.817-0.779-1.817-1.739c0-0.968,0.813-1.748,1.817-1.748s1.819,0.779,1.819,1.748
	C29.972,19.036,29.157,19.815,28.152,19.815z M20.529,20.686c-0.008-0.387,0.192-0.731,0.535-0.932
	c0.179-0.104,0.371-0.16,0.577-0.16c0.535,0,1.099,0.394,1.114,1.05l0.035,1.843l-1.684-0.89
	C20.757,21.412,20.543,21.073,20.529,20.686z M28.694,23.171c-1.063,0.886-2.294,1.565-3.622,2.002l-0.57-0.896
	c1.449-0.151,2.849-0.59,4.115-1.284L28.694,23.171z M19.537,20.707c0.016,0.724,0.432,1.384,1.091,1.725l1.584,0.843l-0.008,0.118
	c0,0.523,0.451,0.965,0.998,0.965h0.172l0.828,1.293c-0.187,0.241-0.249,0.547-0.145,0.849c0.145,0.401,0.528,0.649,0.942,0.649
	c0.107,0,0.214-0.014,0.315-0.048l0.313-0.097c1.385-0.443,2.689-1.119,3.839-1.976l0.705,1.691
	c-1.599,1.176-2.976,2.59-4.095,4.219l-0.227,0.338c-0.3,0.437-0.179,1.029,0.275,1.32c0.172,0.104,0.365,0.159,0.551,0.159
	c0.321,0,0.636-0.153,0.826-0.428l0.237-0.34c0.991-1.45,2.212-2.705,3.639-3.757c0.443,1.646,1.503,3.072,2.973,4.007l0.513,0.324
	c0.458,0.29,1.07,0.173,1.377-0.269c0.3-0.437,0.179-1.029-0.277-1.319l-0.514-0.326c-1.432-0.903-2.3-2.44-2.317-4.093
	c0-0.298-0.123-0.719-0.193-0.885l-1.818-4.377c-0.308-0.732-1.12-1.05-1.94-0.794c-0.023,0.007-0.222,0.055-0.421,0.166
	l-0.771,0.47c-1.27,0.772-2.71,1.214-4.208,1.283l-0.035-1.794c-0.028-1.112-0.949-1.975-2.105-1.975
	c-0.384,0-0.755,0.097-1.091,0.29C19.901,19.317,19.523,19.981,19.537,20.707z"/>
</svg>
