<?xml version="1.0" encoding="utf-8"?>
<!-- Generator: Adobe Illustrator 16.0.0, SVG Export Plug-In . SVG Version: 6.00 Build 0)  -->
<!DOCTYPE svg PUBLIC "-//W3C//DTD SVG 1.1//EN" "http://www.w3.org/Graphics/SVG/1.1/DTD/svg11.dtd">
<svg version="1.1" id="Layer_1" xmlns="http://www.w3.org/2000/svg" xmlns:xlink="http://www.w3.org/1999/xlink" x="0px" y="0px"
	 width="41.759px" height="35.854px" viewBox="1.482 3.412 41.759 35.854" enable-background="new 1.482 3.412 41.759 35.854"
	 xml:space="preserve">
<path fill="#FFFFFF" d="M23.513,33.646c-0.134,0.165-0.285,0.329-0.494,0.525c-1.742,1.749-4.001,2.889-6.444,3.252
	c0-3.372-1.304-6.655-3.627-9.112c-0.09-0.105-0.18-0.196-0.27-0.27c-2.483-2.501-5.858-3.914-9.382-3.929
	c0.381-2.431,1.519-4.68,3.252-6.429c0.18-0.165,0.359-0.345,0.569-0.509c1.679-1.499,3.702-2.428,5.891-2.757
	c0.015,3.507,1.393,6.894,3.897,9.397l0.329,0.314c2.456,2.307,5.698,3.593,9.068,3.596C25.968,29.929,24.999,31.987,23.513,33.646z
	 M6.547,34.156c-0.104-0.105-0.21-0.211-0.33-0.36c-1.994-2.174-3.087-5.024-3.058-7.974c3.118-0.015,6.101,1.198,8.319,3.416
	l0.165,0.167l0.045,0.059c2.078,2.178,3.224,5.083,3.192,8.094C11.763,37.587,8.766,36.373,6.547,34.156z M22.958,17.609l0.076,0.09
	c2.207,2.208,3.434,5.21,3.401,8.334c-2.968,0.029-5.875-1.095-8.063-3.165l-0.255-0.254c-2.209-2.207-3.435-5.21-3.402-8.333
	c3.043-0.015,5.995,1.154,8.168,3.282L22.958,17.609z M24.053,16.32c-2.728-2.63-6.443-3.976-10.222-3.702h-0.06
	c-2.907,0.21-5.59,1.349-7.748,3.252c-0.24,0.195-0.45,0.405-0.66,0.615c-2.255,2.242-3.628,5.221-3.867,8.393l-0.015,0.031v0.029
	c0,3.67,0.989,7.313,3.447,9.981c0.135,0.149,0.285,0.299,0.419,0.434c2.496,2.509,5.889,3.918,9.427,3.912
	c0.33,0,0.66-0.015,0.989-0.031c3.188-0.228,6.188-1.595,8.452-3.851c0.24-0.224,0.451-0.449,0.601-0.646
	c1.925-2.157,3.079-4.893,3.281-7.777l0.017-0.015l0.015-0.029c0-3.867-1.125-7.675-3.867-10.417
	C24.202,16.439,24.111,16.365,24.053,16.32z M21.416,9.111c0.209,0,0.433-0.09,0.599-0.255l3.852-3.836
	c0.33-0.338,0.33-0.876,0-1.214c-0.332-0.33-0.867-0.33-1.198,0l-3.853,3.852c-0.33,0.33-0.33,0.869,0,1.199
	C20.98,9.021,21.19,9.111,21.416,9.111z M25.132,13.173c0.165,0.165,0.375,0.254,0.599,0.254c0.211,0,0.437-0.09,0.601-0.254
	l4.347-4.332c0.329-0.337,0.329-0.877,0-1.214c-0.338-0.329-0.877-0.329-1.215,0l-4.331,4.346c-0.331,0.313-0.347,0.834-0.033,1.166
	C25.11,13.15,25.12,13.162,25.132,13.173z M32.162,6.998c0.224,0,0.433-0.09,0.599-0.254l1.889-1.874c0.328-0.345,0.328-0.87,0-1.2
	c-0.323-0.335-0.855-0.345-1.191-0.022c-0.009,0.007-0.016,0.015-0.023,0.022l-1.873,1.874c-0.331,0.33-0.331,0.87,0,1.2
	C31.726,6.908,31.951,6.998,32.162,6.998z M42.982,3.956c-0.332-0.33-0.868-0.33-1.199,0L29.448,16.29
	c-0.329,0.337-0.329,0.876,0,1.213c0.165,0.166,0.39,0.24,0.6,0.24c0.226,0,0.434-0.075,0.601-0.24L42.982,5.154
	c0.331-0.313,0.347-0.834,0.033-1.165C43.004,3.978,42.994,3.966,42.982,3.956z"/>
</svg>
