<?xml version="1.0" encoding="utf-8"?>
<!-- Generator: Adobe Illustrator 16.0.0, SVG Export Plug-In . SVG Version: 6.00 Build 0)  -->
<!DOCTYPE svg PUBLIC "-//W3C//DTD SVG 1.1//EN" "http://www.w3.org/Graphics/SVG/1.1/DTD/svg11.dtd">
<svg version="1.1" id="Layer_1" xmlns="http://www.w3.org/2000/svg" xmlns:xlink="http://www.w3.org/1999/xlink" x="0px" y="0px"
	 width="41.478px" height="39.883px" viewBox="-0.739 1.558 41.478 39.883" enable-background="new -0.739 1.558 41.478 39.883"
	 xml:space="preserve">
<path fill="#FFFFFF" d="M34.997,22.298H11.386L8.259,8.737h29.786L34.997,22.298z M40.484,6.791
	c-0.23-0.283-0.576-0.447-0.941-0.446H7.7L6.807,2.483C6.681,1.941,6.198,1.558,5.642,1.558H0.458c-0.655,0-1.197,0.542-1.197,1.196
	c0,0.655,0.542,1.197,1.197,1.197h4.227l6.047,26.195c0.127,0.542,0.606,0.926,1.165,0.926h23.978c0.653,0,1.197-0.542,1.197-1.196
	s-0.544-1.197-1.197-1.197H12.853l-0.925-3.988h24.026c0.558,0,1.037-0.383,1.165-0.94l3.59-15.954
	C40.787,7.445,40.709,7.078,40.484,6.791z M16.81,39.049c-1.102,0-1.994-0.893-1.994-1.994s0.893-1.994,1.994-1.994
	s1.994,0.893,1.994,1.994S17.911,39.049,16.81,39.049z M16.81,32.667c-2.425,0-4.387,1.964-4.387,4.388s1.962,4.387,4.387,4.387
	s4.387-1.963,4.387-4.387S19.234,32.667,16.81,32.667z M31.168,39.049c-1.102,0-1.994-0.893-1.994-1.994s0.893-1.994,1.994-1.994
	s1.994,0.893,1.994,1.994S32.27,39.049,31.168,39.049z M31.168,32.667c-2.425,0-4.388,1.964-4.388,4.388s1.963,4.387,4.388,4.387
	c2.424,0,4.387-1.963,4.387-4.387S33.592,32.667,31.168,32.667z"/>
</svg>
