<?xml version="1.0" encoding="utf-8"?>
<!-- Generator: Adobe Illustrator 16.0.0, SVG Export Plug-In . SVG Version: 6.00 Build 0)  -->
<!DOCTYPE svg PUBLIC "-//W3C//DTD SVG 1.1//EN" "http://www.w3.org/Graphics/SVG/1.1/DTD/svg11.dtd">
<svg version="1.1" id="Layer_1" xmlns="http://www.w3.org/2000/svg" xmlns:xlink="http://www.w3.org/1999/xlink" x="0px" y="0px"
	 width="26.174px" height="22.569px" viewBox="0.839 1.358 26.174 22.569" enable-background="new 0.839 1.358 26.174 22.569"
	 xml:space="preserve">
<g>
	<g>
		<path fill="#FFFFFF" d="M22.627,13.665c-0.432,0-0.781,0.351-0.781,0.779v7.921H6.003v-7.921c0-0.43-0.351-0.779-0.78-0.779
			c-0.43,0-0.782,0.351-0.782,0.779v8.702c0,0.432,0.352,0.78,0.782,0.78h17.404c0.432,0,0.782-0.351,0.782-0.78v-8.702
			C23.409,14.016,23.059,13.665,22.627,13.665L22.627,13.665z"/>
		<path fill="#FFFFFF" d="M26.782,13.893L14.475,1.587c-0.302-0.305-0.798-0.305-1.102,0L1.067,13.893
			c-0.305,0.305-0.305,0.801,0,1.104c0.151,0.153,0.352,0.229,0.552,0.229c0.199,0,0.399-0.076,0.551-0.229L13.925,3.245
			l11.757,11.752c0.303,0.303,0.798,0.303,1.102,0C27.089,14.694,27.089,14.198,26.782,13.893L26.782,13.893z"/>
	</g>
</g>
</svg>
