<?xml version="1.0" encoding="utf-8"?>
<!-- Generator: Adobe Illustrator 16.0.0, SVG Export Plug-In . SVG Version: 6.00 Build 0)  -->
<!DOCTYPE svg PUBLIC "-//W3C//DTD SVG 1.1//EN" "http://www.w3.org/Graphics/SVG/1.1/DTD/svg11.dtd">
<svg version="1.1" id="Layer_1" xmlns="http://www.w3.org/2000/svg" xmlns:xlink="http://www.w3.org/1999/xlink" x="0px" y="0px"
	 width="41.012px" height="37.356px" viewBox="0.414 3.415 41.012 37.356" enable-background="new 0.414 3.415 41.012 37.356"
	 xml:space="preserve">
<path fill="#FFFFFF" d="M41.426,8.301v11.445c0,2.709-2.172,4.908-4.883,4.908H23.356c-0.258,0-0.47-0.001-0.648-0.004
	c-0.185-0.004-0.395-0.006-0.476,0.003c-0.086,0.057-0.294,0.248-0.495,0.433c-0.08,0.074-0.17,0.153-0.268,0.244l-3.73,3.4
	c-0.297,0.271-0.738,0.342-1.106,0.178c-0.368-0.161-0.628-0.526-0.628-0.929V17.199H5.354c-1.589,0-2.905,1.302-2.905,2.89v11.445
	c0,1.588,1.317,2.838,2.905,2.838h14.73c0.254,0,0.49,0.116,0.678,0.286l3.039,2.803v-9.664c0-0.561,0.455-1.017,1.018-1.017
	c0.561,0,1.017,0.456,1.017,1.017v11.97c0,0.402-0.231,0.761-0.599,0.925c-0.133,0.058-0.265,0.08-0.403,0.08
	c-0.249,0-0.495-0.103-0.687-0.275l-4.457-4.091H5.354c-2.71,0-4.939-2.161-4.939-4.871V20.089c0-2.71,2.229-4.924,4.939-4.924
	h10.651V8.301c0-2.71,2.247-4.886,4.957-4.886h15.582C39.254,3.415,41.426,5.591,41.426,8.301z M39.393,8.301
	c0-1.588-1.261-2.853-2.85-2.853H20.961c-1.588,0-2.922,1.264-2.922,2.853v7.89v9.482l2.044-1.847
	c0.094-0.087,0.201-0.166,0.278-0.237c0.934-0.86,1.173-0.998,2.39-0.973c0.167,0.003,0.365,0.005,0.605,0.005h13.187
	c1.589,0,2.85-1.287,2.85-2.875V8.301z"/>
</svg>
