<?xml version="1.0" encoding="utf-8"?>
<!-- Generator: Adobe Illustrator 16.0.0, SVG Export Plug-In . SVG Version: 6.00 Build 0)  -->
<!DOCTYPE svg PUBLIC "-//W3C//DTD SVG 1.1//EN" "http://www.w3.org/Graphics/SVG/1.1/DTD/svg11.dtd">
<svg version="1.1" id="Layer_1" xmlns="http://www.w3.org/2000/svg" xmlns:xlink="http://www.w3.org/1999/xlink" x="0px" y="0px"
	 width="40.391px" height="33.662px" viewBox="0.804 3.668 40.391 33.662" enable-background="new 0.804 3.668 40.391 33.662"
	 xml:space="preserve">
<path fill="#FFFFFF" d="M40.415,24.298c-0.499-0.298-1.131-0.229-1.737,0.175L27.49,31.971c-0.311,0.203-0.405,0.647-0.203,0.971
	c0.189,0.336,0.606,0.431,0.915,0.229l11.177-7.5c0.241-0.16,0.362-0.146,0.389-0.134c0.015,0.014,0.095,0.121,0.095,0.417
	c0,0.795-0.552,1.871-1.185,2.302L27.84,35.513c-0.579,0.39-1.104,0.497-1.454,0.296c-0.337-0.201-0.539-0.727-0.539-1.454
	c0-1.845,1.238-4.214,2.692-5.197l12.347-8.28c0.188-0.121,0.31-0.35,0.31-0.592c0-0.242-0.121-0.471-0.31-0.605l-23.709-15.9
	c-0.215-0.148-0.499-0.148-0.714,0L3.969,12.153c-1.778,1.198-3.165,3.878-3.165,6.112v0.377c0,2.234,1.387,4.913,3.165,6.1
	l18.58,12.467c0.309,0.202,0.726,0.108,0.915-0.229c0.202-0.323,0.108-0.768-0.202-0.971L4.682,23.543
	c-1.386-0.915-2.544-3.164-2.544-4.9v-0.377c0-1.737,1.158-3.985,2.544-4.914l12.131-8.132l22.471,15.066L27.84,27.959
	c-1.872,1.239-3.326,4.053-3.326,6.396c0,1.279,0.444,2.235,1.225,2.693c0.324,0.188,0.674,0.282,1.051,0.282
	c0.553,0,1.146-0.202,1.75-0.606l10.84-7.27c1.022-0.687,1.816-2.222,1.816-3.501C41.195,25.187,40.913,24.579,40.415,24.298z"/>
<path fill="#FFFFFF" d="M32.202,20.985c0.216,0,0.432-0.108,0.565-0.323c0.189-0.334,0.096-0.758-0.216-0.983L17.177,9.366
	c-0.3-0.2-0.706-0.121-0.906,0.179c-0.008,0.012-0.016,0.024-0.023,0.037c-0.188,0.336-0.095,0.781,0.215,0.983l15.39,10.313
	C31.96,20.958,32.081,20.985,32.202,20.985z M29.536,22.87c0.229,0,0.444-0.121,0.565-0.337c0.202-0.323,0.107-0.768-0.216-0.969
	l-6.49-4.336c-0.29-0.198-0.688-0.122-0.886,0.169c-0.011,0.015-0.021,0.031-0.029,0.047c-0.201,0.336-0.107,0.767,0.202,0.982
	l6.504,4.335C29.294,22.83,29.415,22.87,29.536,22.87z M20.677,19.087c-0.297-0.194-0.696-0.11-0.89,0.188
	c-0.009,0.013-0.017,0.027-0.025,0.042c-0.188,0.336-0.094,0.767,0.216,0.969l6.542,4.363c0.107,0.067,0.229,0.107,0.35,0.107
	c0.229,0,0.444-0.121,0.565-0.336c0.202-0.337,0.108-0.769-0.201-0.983L20.677,19.087z M13.689,11.224l-5.533,3.703
	c-0.189,0.135-0.31,0.364-0.31,0.606c0,0.243,0.121,0.472,0.324,0.605l6.597,4.363c0.108,0.067,0.229,0.108,0.35,0.108
	c0.122,0,0.256-0.041,0.364-0.108l1.468-1.023c0.31-0.203,0.39-0.647,0.202-0.97c-0.174-0.311-0.567-0.421-0.878-0.247
	c-0.017,0.01-0.034,0.021-0.051,0.031l-1.118,0.768l-5.332-3.528l4.281-2.868l5.251,3.5l-0.606,0.431
	c-0.31,0.202-0.404,0.646-0.202,0.969c0.202,0.337,0.619,0.432,0.929,0.216l1.481-1.023c0.202-0.135,0.31-0.364,0.31-0.606
	c0-0.243-0.122-0.458-0.31-0.592l-6.503-4.336C14.188,11.076,13.904,11.076,13.689,11.224z M24.784,26.304
	c0.189-0.335,0.096-0.759-0.216-0.983l-6.598-4.362c-0.288-0.197-0.681-0.122-0.877,0.166c-0.014,0.021-0.026,0.042-0.039,0.063
	c-0.202,0.323-0.107,0.769,0.216,0.971l6.597,4.376c0.108,0.065,0.229,0.107,0.352,0.107C24.433,26.641,24.648,26.52,24.784,26.304z
	 M5.557,17.229c-0.202,0.336-0.094,0.768,0.216,0.97l16.291,10.784c0.108,0.08,0.229,0.107,0.35,0.107
	c0.216,0,0.432-0.121,0.567-0.336c0.187-0.322,0.093-0.767-0.216-0.97L6.473,17c-0.296-0.194-0.693-0.113-0.888,0.183
	C5.575,17.198,5.566,17.213,5.557,17.229z"/>
</svg>
