<?xml version="1.0" encoding="utf-8"?>
<!-- Generator: Adobe Illustrator 16.0.0, SVG Export Plug-In . SVG Version: 6.00 Build 0)  -->
<!DOCTYPE svg PUBLIC "-//W3C//DTD SVG 1.1//EN" "http://www.w3.org/Graphics/SVG/1.1/DTD/svg11.dtd">
<svg version="1.1" id="Layer_1" xmlns="http://www.w3.org/2000/svg" xmlns:xlink="http://www.w3.org/1999/xlink" x="0px" y="0px"
	 width="39.471px" height="32.08px" viewBox="0.92 9.92 39.471 32.08" enable-background="new 0.92 9.92 39.471 32.08"
	 xml:space="preserve">
<path fill="#FFFFFF" d="M18.98,41.9c0.66,0.07,1.33,0.1,2.02,0.1l-3.02-4.83l3.45-2.15c0.94-0.59,1.83-1.16,2.65-1.709l4.46-2.781
	l4.69,7.541c0.459-0.32,0.899-0.67,1.319-1.03L24.23,20.46l6.359-3.98l8.95,14.39c0.31-0.58,0.59-1.181,0.851-1.79L28.49,9.92
	L0.92,27.18c0.17,0.541,0.36,1.08,0.57,1.61l6.69-4.19l1.77,2.82l-6.97,4.359c0.28,0.48,0.58,0.941,0.9,1.391l6.95-4.34l4.81,7.73
	L12.36,38.6l-1.37,0.871c0.61,0.329,1.23,0.629,1.87,0.889l0.43-0.27l3.28-2.04L18.98,41.9z M17.05,35.68l-4.81-7.729l10.58-6.61
	l4.84,7.78L23.2,31.9c-0.851,0.49-1.76,1.039-2.7,1.619L17.05,35.68z M29.721,15.06L11.36,26.54l-1.77-2.819L27.95,12.23
	L29.721,15.06z"/>
</svg>
