<?xml version="1.0" encoding="utf-8"?>
<!-- Generator: Adobe Illustrator 16.0.0, SVG Export Plug-In . SVG Version: 6.00 Build 0)  -->
<!DOCTYPE svg PUBLIC "-//W3C//DTD SVG 1.1//EN" "http://www.w3.org/Graphics/SVG/1.1/DTD/svg11.dtd">
<svg version="1.1" id="Layer_1" xmlns="http://www.w3.org/2000/svg" xmlns:xlink="http://www.w3.org/1999/xlink" x="0px" y="0px"
	 width="40.751px" height="40.751px" viewBox="1.414 0.414 40.751 40.751" enable-background="new 1.414 0.414 40.751 40.751"
	 xml:space="preserve">
<path fill="#FFFFFF" d="M40.739,4.156h-4.262c-0.778,0-1.425,0.629-1.425,1.408s0.646,1.408,1.425,1.408h2.855V38.35H4.248V6.971
	h3.798c0.778,0,1.426-0.629,1.426-1.408S8.823,4.156,8.045,4.156H2.84c-0.778,0-1.426,0.629-1.426,1.408v34.194
	c0,0.777,0.648,1.407,1.426,1.407h37.899c0.778,0,1.426-0.63,1.426-1.407V5.563C42.165,4.785,41.518,4.156,40.739,4.156z"/>
<path fill="#FFFFFF" d="M23.678,4.156H19.66c-0.778,0-1.426,0.629-1.426,1.408s0.648,1.408,1.426,1.408h4.018
	c0.798,0,1.428-0.629,1.428-1.408S24.476,4.156,23.678,4.156z M13.269,29.457H9.935c-0.778,0-1.408,0.633-1.408,1.408l0,0V33.2
	c0,0.778,0.63,1.408,1.408,1.408h3.334c0.778,0,1.408-0.63,1.408-1.408v-2.335C14.677,30.09,14.047,29.457,13.269,29.457
	L13.269,29.457z M23.458,29.457H19.9c-0.796,0-1.426,0.63-1.426,1.408V33.2c0,0.778,0.629,1.408,1.426,1.408h3.558
	c0.777,0,1.407-0.63,1.407-1.408v-2.335C24.865,30.09,24.235,29.457,23.458,29.457L23.458,29.457z M14.677,23.123
	c0-0.759-0.63-1.39-1.408-1.39H9.935c-0.778,0-1.408,0.631-1.408,1.39v2.352c0,0.779,0.63,1.409,1.408,1.409h3.334
	c0.778,0,1.408-0.63,1.408-1.409V23.123z M24.865,23.123c0-0.759-0.63-1.39-1.407-1.39H19.9c-0.777-0.01-1.416,0.612-1.426,1.39l0,0
	v2.352c0,0.779,0.629,1.409,1.426,1.409h3.558c0.777,0,1.407-0.63,1.407-1.409V23.123z M33.402,21.733h-3.313
	c-0.778-0.01-1.418,0.612-1.428,1.39l0,0v2.352c0,0.779,0.63,1.409,1.428,1.409h3.313c0.778,0,1.407-0.63,1.407-1.409v-2.352
	C34.81,22.364,34.181,21.733,33.402,21.733z M8.526,15.178v2.333c0,0.778,0.63,1.408,1.408,1.408h3.334
	c0.778,0,1.408-0.63,1.408-1.408v-2.333c0-0.778-0.63-1.409-1.408-1.409l0,0H9.935C9.157,13.769,8.526,14.399,8.526,15.178
	L8.526,15.178z M24.865,15.178c0-0.778-0.63-1.409-1.407-1.409l0,0H19.9c-0.796,0-1.426,0.63-1.426,1.409v2.333
	c0,0.778,0.629,1.408,1.426,1.408h3.558c0.777,0,1.407-0.63,1.407-1.408V15.178z M34.81,15.178c0-0.778-0.629-1.409-1.407-1.409l0,0
	h-3.313c-0.798,0-1.428,0.63-1.428,1.409v2.333c0,0.778,0.63,1.408,1.428,1.408h3.313c0.778,0,1.407-0.63,1.407-1.408V15.178z
	 M14.214,9.787c0.778,0,1.407-0.63,1.407-1.409V1.822c0-0.777-0.63-1.408-1.407-1.408l0,0h-1.426c-0.778,0-1.427,0.629-1.427,1.408
	v6.557c0,0.779,0.649,1.409,1.427,1.409H14.214z M30.552,0.414h-1.407c-0.798,0-1.427,0.629-1.427,1.408v6.557
	c0,0.779,0.629,1.409,1.427,1.409h1.407c0.778,0,1.426-0.63,1.426-1.409V1.822C31.978,1.043,31.33,0.414,30.552,0.414z"/>
</svg>
