<?xml version="1.0" encoding="utf-8"?>
<!-- Generator: Adobe Illustrator 16.0.0, SVG Export Plug-In . SVG Version: 6.00 Build 0)  -->
<!DOCTYPE svg PUBLIC "-//W3C//DTD SVG 1.1//EN" "http://www.w3.org/Graphics/SVG/1.1/DTD/svg11.dtd">
<svg version="1.1" id="Layer_1" xmlns="http://www.w3.org/2000/svg" xmlns:xlink="http://www.w3.org/1999/xlink" x="0px" y="0px"
	 width="36.824px" height="37.481px" viewBox="2.588 4.504 36.824 37.481" enable-background="new 2.588 4.504 36.824 37.481"
	 xml:space="preserve">
<g>
	<path fill="#FFFFFF" d="M36.684,8.235c-0.244,4.46-1.996,7.444-3.925,9.422V7.213h2.937C36.262,7.213,36.715,7.667,36.684,8.235z
		 M25.314,39.277h-8.629c0-1.558,1.687-2.839,3.844-3.002h0.94C23.628,36.438,25.314,37.72,25.314,39.277z M5.317,8.235
		C5.284,7.667,5.738,7.213,6.306,7.213h2.936v10.444C7.312,15.679,5.56,12.695,5.317,8.235z M29.304,23.222
		c-1.401,3.122-4.509,5.128-7.931,5.125h-0.746c-3.536,0-6.585-2.109-7.931-5.125c-0.454-1.039-0.713-2.19-0.729-3.407V7.213h18.067
		v12.602C30.019,21.031,29.759,22.183,29.304,23.222z M39.407,8.381c0.05-1.006-0.323-1.995-1.02-2.725
		c-0.698-0.729-1.688-1.151-2.692-1.151H6.306c-1.005,0-1.995,0.422-2.692,1.151C2.915,6.387,2.546,7.371,2.592,8.381
		c0.146,2.789,0.843,5.336,2.044,7.558c0.98,1.818,2.302,3.432,3.892,4.751c0.276,0.228,0.551,0.437,0.827,0.634
		c0.13,0.973,0.39,1.913,0.778,2.838c0.584,1.347,1.396,2.546,2.449,3.583c1.039,1.039,2.255,1.85,3.617,2.417
		c1.104,0.471,2.255,0.747,3.438,0.843v2.66c-1.2,0.178-2.335,0.616-3.26,1.266c-1.54,1.069-2.416,2.659-2.416,4.347v2.708h14.078
		v-2.708c0-1.688-0.876-3.277-2.417-4.347c-0.975-0.667-2.091-1.101-3.26-1.266v-2.66c1.185-0.096,2.334-0.372,3.438-0.843
		c1.362-0.567,2.578-1.378,3.616-2.417c1.055-1.037,1.865-2.236,2.45-3.583c0.388-0.925,0.647-1.865,0.777-2.838
		c0.275-0.197,0.551-0.406,0.827-0.634c1.59-1.32,2.912-2.933,3.893-4.751C38.564,13.717,39.262,11.17,39.407,8.381L39.407,8.381z"
		/>
	<path fill="none" d="M36.684,8.235c-0.244,4.46-1.996,7.444-3.925,9.422V7.213h2.937C36.262,7.213,36.715,7.667,36.684,8.235z
		 M25.314,39.277h-8.629c0-1.558,1.687-2.839,3.844-3.002h0.94C23.628,36.438,25.314,37.72,25.314,39.277z M5.317,8.235
		C5.284,7.667,5.738,7.213,6.306,7.213h2.936v10.444C7.312,15.679,5.56,12.695,5.317,8.235z M29.304,23.222
		c-1.401,3.122-4.509,5.128-7.931,5.125h-0.746c-3.536,0-6.585-2.109-7.931-5.125c-0.454-1.039-0.713-2.19-0.729-3.407V7.213h18.067
		v12.602C30.019,21.031,29.759,22.183,29.304,23.222z M39.407,8.381c0.05-1.006-0.323-1.995-1.02-2.725
		c-0.698-0.729-1.688-1.151-2.692-1.151H6.306c-1.005,0-1.995,0.422-2.692,1.151C2.915,6.387,2.546,7.371,2.592,8.381
		c0.146,2.789,0.843,5.336,2.044,7.558c0.98,1.818,2.302,3.432,3.892,4.751c0.276,0.228,0.551,0.437,0.827,0.634
		c0.13,0.973,0.39,1.913,0.778,2.838c0.584,1.347,1.396,2.546,2.449,3.583c1.039,1.039,2.255,1.85,3.617,2.417
		c1.104,0.471,2.255,0.747,3.438,0.843v2.66c-1.2,0.178-2.335,0.616-3.26,1.266c-1.54,1.069-2.416,2.659-2.416,4.347v2.708h14.078
		v-2.708c0-1.688-0.876-3.277-2.417-4.347c-0.975-0.667-2.091-1.101-3.26-1.266v-2.66c1.185-0.096,2.334-0.372,3.438-0.843
		c1.362-0.567,2.578-1.378,3.616-2.417c1.055-1.037,1.865-2.236,2.45-3.583c0.388-0.925,0.647-1.865,0.777-2.838
		c0.275-0.197,0.551-0.406,0.827-0.634c1.59-1.32,2.912-2.933,3.893-4.751C38.564,13.717,39.262,11.17,39.407,8.381L39.407,8.381z"
		/>
</g>
</svg>
