<?xml version="1.0" encoding="utf-8"?>
<!-- Generator: Adobe Illustrator 16.0.0, SVG Export Plug-In . SVG Version: 6.00 Build 0)  -->
<!DOCTYPE svg PUBLIC "-//W3C//DTD SVG 1.1//EN" "http://www.w3.org/Graphics/SVG/1.1/DTD/svg11.dtd">
<svg version="1.1" id="Layer_1" xmlns="http://www.w3.org/2000/svg" xmlns:xlink="http://www.w3.org/1999/xlink" x="0px" y="0px"
	 width="41.511px" height="40.423px" viewBox="-0.212 1.451 41.511 40.423" enable-background="new -0.212 1.451 41.511 40.423"
	 xml:space="preserve">
<path fill="#FFFFFF" d="M15.62,5.75c0-2.379,2.001-4.298,4.476-4.298s4.477,1.919,4.477,4.298c0,2.363-2.002,4.284-4.477,4.284
	S15.62,8.113,15.62,5.75z M37.438,14.418l-4.142,2.19l0.086-4.536c0.038-1.615,1.423-2.584,2.738-2.584
	c0.51,0,0.985,0.137,1.425,0.393c0.837,0.493,1.33,1.342,1.318,2.292C38.824,13.125,38.297,13.958,37.438,14.418z M18.956,17.849
	c3.117,1.714,6.563,2.788,10.127,3.16l-1.403,2.21c-3.271-1.075-6.297-2.749-8.917-4.928L18.956,17.849z M38.806,7.874
	c-0.823-0.476-1.738-0.713-2.685-0.713c-2.843,0-5.11,2.124-5.179,4.859l-0.087,4.418c-3.686-0.169-7.231-1.257-10.356-3.161
	l-1.895-1.154c-0.491-0.273-0.983-0.391-1.036-0.407c-2.018-0.629-4.019,0.152-4.773,1.954L8.318,24.442
	c-0.176,0.407-0.475,1.444-0.475,2.177c-0.041,4.067-2.181,7.85-5.702,10.073L0.876,37.49c-1.125,0.717-1.422,2.175-0.684,3.248
	c0.754,1.088,2.264,1.376,3.387,0.664l1.265-0.8c3.615-2.296,6.224-5.808,7.319-9.857c3.511,2.585,6.512,5.677,8.952,9.246
	l0.581,0.831c0.474,0.682,1.246,1.052,2.035,1.052c0.455,0,0.929-0.129,1.352-0.384c1.123-0.718,1.419-2.18,0.683-3.251l-0.563-0.83
	c-2.751-4.01-6.141-7.494-10.073-10.384l1.738-4.163c2.826,2.105,6.039,3.771,9.443,4.862l0.771,0.234
	c0.247,0.086,0.51,0.12,0.773,0.12c1.018,0,1.967-0.612,2.318-1.598c0.262-0.745,0.103-1.495-0.352-2.088l2.034-3.181h0.423
	c1.349,0,2.458-1.086,2.458-2.378l-0.02-0.289l3.896-2.074c1.624-0.841,2.65-2.465,2.685-4.248
	C41.337,10.441,40.404,8.809,38.806,7.874z"/>
</svg>
