<?xml version="1.0" encoding="utf-8"?>
<!-- Generator: Adobe Illustrator 16.0.0, SVG Export Plug-In . SVG Version: 6.00 Build 0)  -->
<!DOCTYPE svg PUBLIC "-//W3C//DTD SVG 1.1//EN" "http://www.w3.org/Graphics/SVG/1.1/DTD/svg11.dtd">
<svg version="1.1" id="Layer_1" xmlns="http://www.w3.org/2000/svg" xmlns:xlink="http://www.w3.org/1999/xlink" x="0px" y="0px"
	 width="36px" height="35.998px" viewBox="0 0 36 35.998" enable-background="new 0 0 36 35.998" xml:space="preserve">
<g>
	<path fill-rule="evenodd" clip-rule="evenodd" fill="#3E434B" d="M24.12,12.83c-0.14-0.19-0.32-0.38-0.54-0.59
		c-1.91-1.93-4.38-3.17-7.04-3.58c-0.01,3.72-1.44,7.32-3.99,10.03c-0.09,0.12-0.19,0.21-0.28,0.3c-2.74,2.76-6.44,4.3-10.28,4.31
		c0.4,2.67,1.65,5.15,3.56,7.08c0.2,0.19,0.39,0.38,0.63,0.57c1.84,1.63,4.05,2.67,6.45,3.03c0-3.86,1.51-7.59,4.26-10.34
		c0.12-0.12,0.24-0.25,0.35-0.35c2.7-2.54,6.26-3.95,9.94-3.96C26.81,16.92,25.78,14.69,24.12,12.83z M5.54,12.27
		c-0.1,0.1-0.22,0.22-0.35,0.39C3,15.03,1.82,18.2,1.85,21.43c3.4,0.03,6.68-1.32,9.11-3.76l0.17-0.18l0.05-0.06
		c2.27-2.41,3.52-5.61,3.49-8.92C11.27,8.48,7.98,9.82,5.54,12.27z M23.51,30.46l0.09-0.09c2.43-2.44,3.76-5.74,3.73-9.16
		c-3.26-0.04-6.43,1.2-8.83,3.46l-0.29,0.28c-2.43,2.45-3.75,5.75-3.72,9.18c3.34,0.02,6.56-1.27,8.95-3.61L23.51,30.46z
		 M24.71,31.9c-2.97,2.88-7.05,4.36-11.18,4.06h-0.04h-0.03c-3.18-0.24-6.12-1.48-8.48-3.57c-0.27-0.23-0.5-0.45-0.73-0.67
		c-2.48-2.49-3.97-5.77-4.23-9.25l-0.01-0.03L0,22.41V22.4c0-4.03,1.09-8.06,3.78-10.98c0.14-0.17,0.3-0.33,0.46-0.48
		c2.74-2.77,6.46-4.3,10.31-4.3c0.36,0,0.72,0.01,1.09,0.03h0.01c3.49,0.25,6.77,1.76,9.24,4.23c0.26,0.26,0.49,0.51,0.66,0.72
		c2.11,2.39,3.36,5.35,3.6,8.56l0.02,0.01l0.01,0.04c0,4.26-1.24,8.44-4.24,11.46L24.71,31.9z"/>
</g>
<path fill-rule="evenodd" clip-rule="evenodd" fill="#3E434B" d="M32,8.98c0.12-0.13,0.18-0.27,0.18-0.46V5.09h3.28
	c0.15,0,0.27-0.05,0.38-0.15C35.94,4.84,36,4.71,36,4.57c0-0.16-0.06-0.3-0.16-0.4c-0.11-0.1-0.23-0.16-0.38-0.16h-3.28V0.57
	c0-0.15-0.06-0.28-0.17-0.4C31.91,0.06,31.76,0,31.57,0c-0.17,0-0.3,0.06-0.42,0.17c-0.11,0.12-0.17,0.25-0.17,0.43v3.41h-3.27
	c-0.15,0-0.27,0.06-0.38,0.16c-0.11,0.09-0.16,0.22-0.16,0.36c0,0.17,0.05,0.31,0.16,0.41s0.23,0.15,0.38,0.15h3.27v3.45
	c0,0.17,0.05,0.31,0.17,0.44c0.1,0.11,0.25,0.16,0.42,0.16C31.75,9.14,31.89,9.09,32,8.98z"/>
</svg>
