<?xml version="1.0" encoding="utf-8"?>
<!-- Generator: Adobe Illustrator 16.0.0, SVG Export Plug-In . SVG Version: 6.00 Build 0)  -->
<!DOCTYPE svg PUBLIC "-//W3C//DTD SVG 1.1//EN" "http://www.w3.org/Graphics/SVG/1.1/DTD/svg11.dtd">
<svg version="1.1" id="Layer_1" xmlns="http://www.w3.org/2000/svg" xmlns:xlink="http://www.w3.org/1999/xlink" x="0px" y="0px"
	 width="32.001px" height="32px" viewBox="0 0 32.001 32" enable-background="new 0 0 32.001 32" xml:space="preserve">
<path fill-rule="evenodd" clip-rule="evenodd" fill="#3F444C" d="M13,24C6.88,24,2,19.06,2,13S6.88,2,13,2s11,4.88,11,11
	S19.06,24,13,24z M31.7,30.29l-8.84-8.84c1.95-2.28,3.08-5.22,3.08-8.45c0-7.18-5.82-13-13-13S0,5.82,0,13s5.82,13,12.94,13
	c3.23,0,6.18-1.18,8.45-3.13l8.85,8.84C30.49,31.9,30.74,32,31,32c0.25,0,0.51-0.1,0.71-0.29C32.1,31.32,32.1,30.68,31.7,30.29z"/>
</svg>
