<?xml version="1.0" encoding="utf-8"?>
<!-- Generator: Adobe Illustrator 16.0.0, SVG Export Plug-In . SVG Version: 6.00 Build 0)  -->
<!DOCTYPE svg PUBLIC "-//W3C//DTD SVG 1.1//EN" "http://www.w3.org/Graphics/SVG/1.1/DTD/svg11.dtd">
<svg version="1.1" id="Layer_1" xmlns="http://www.w3.org/2000/svg" xmlns:xlink="http://www.w3.org/1999/xlink" x="0px" y="0px"
	 width="36.002px" height="19px" viewBox="0 0 36.002 19" enable-background="new 0 0 36.002 19" xml:space="preserve">
<path fill-rule="evenodd" clip-rule="evenodd" fill="#3F444C" d="M34.812,3.42c-0.39-0.22-0.82-0.33-1.27-0.33
	c-1.36,0-2.44,0.97-2.47,2.23l-0.04,2.02c-1.75-0.08-3.44-0.57-4.93-1.45l-0.9-0.53c-0.23-0.12-0.47-0.18-0.49-0.18
	c-0.96-0.29-1.92,0.07-2.27,0.89l-2.14,4.94c-0.08,0.19-0.22,0.66-0.22,1c-0.02,1.86-1.04,3.6-2.72,4.62l-0.6,0.36
	c-0.53,0.33-0.67,1-0.32,1.49c0.36,0.5,1.07,0.63,1.61,0.31l0.6-0.37c1.72-1.06,2.96-2.66,3.48-4.52c1.68,1.19,3.1,2.6,4.27,4.24
	l0.27,0.38c0.23,0.31,0.59,0.48,0.97,0.48c0.22,0,0.44-0.06,0.64-0.18c0.54-0.33,0.68-0.99,0.33-1.49l-0.27-0.38
	c-1.31-1.83-2.92-3.43-4.79-4.76l0.82-1.9c1.35,0.96,2.88,1.72,4.5,2.22l0.36,0.11c0.12,0.04,0.25,0.06,0.37,0.06
	c0.49,0,0.94-0.28,1.1-0.74c0.13-0.34,0.05-0.68-0.16-0.95l0.97-1.46h0.2c0.64,0,1.17-0.5,1.17-1.09l-0.01-0.13l1.85-0.95
	c0.77-0.39,1.26-1.13,1.28-1.95C36.022,4.59,35.572,3.84,34.812,3.42z M25.372,7.99c1.48,0.78,3.12,1.28,4.82,1.45l-0.67,1.01
	c-1.56-0.49-3-1.26-4.25-2.26L25.372,7.99z M34.162,6.42l-1.97,1l0.04-2.08c0.02-0.74,0.68-1.18,1.31-1.18
	c0.24,0,0.46,0.06,0.67,0.18c0.4,0.22,0.64,0.61,0.63,1.05C34.822,5.82,34.572,6.21,34.162,6.42z M23.782,2.44
	c0-1.09,0.95-1.97,2.13-1.97c1.18,0,2.13,0.88,2.13,1.97s-0.95,1.97-2.13,1.97C24.732,4.41,23.782,3.53,23.782,2.44z"/>
<path fill-rule="evenodd" clip-rule="evenodd" fill="#3F444C" d="M19.762,4.94c-0.02,0.82-0.51,1.56-1.28,1.94l-1.86,0.96l0.01,0.13
	c0,0.59-0.53,1.09-1.17,1.09h-0.2l-0.97,1.46c0.22,0.27,0.29,0.61,0.17,0.95c-0.17,0.46-0.62,0.74-1.1,0.74
	c-0.13,0-0.25-0.02-0.37-0.06l-0.37-0.11c-1.62-0.5-3.15-1.26-4.49-2.23l-0.83,1.91c1.87,1.33,3.49,2.92,4.8,4.76l0.26,0.38
	c0.35,0.49,0.21,1.16-0.32,1.49c-0.2,0.12-0.43,0.18-0.64,0.18c-0.38,0-0.75-0.17-0.97-0.48l-0.28-0.39
	c-1.16-1.63-2.59-3.05-4.26-4.23c-0.52,1.85-1.76,3.46-3.48,4.51l-0.61,0.37c-0.53,0.33-1.25,0.2-1.61-0.3
	c-0.35-0.5-0.21-1.16,0.33-1.49l0.6-0.37c1.68-1.02,2.69-2.75,2.71-4.61c0-0.34,0.15-0.82,0.23-1l2.13-4.94
	c0.36-0.83,1.31-1.19,2.27-0.9c0.03,0.01,0.26,0.07,0.49,0.19l0.91,0.53c1.48,0.87,3.17,1.37,4.93,1.45l0.04-2.03
	c0.03-1.25,1.11-2.22,2.46-2.22c0.45,0,0.89,0.11,1.28,0.32C19.332,3.37,19.772,4.12,19.762,4.94z M9.032,7.72
	c1.25,1,2.69,1.76,4.24,2.26l0.67-1.01c-1.7-0.17-3.34-0.67-4.82-1.45L9.032,7.72z M18.592,4.92c0.01-0.44-0.22-0.83-0.62-1.06
	c-0.21-0.11-0.44-0.18-0.68-0.18c-0.62,0-1.29,0.45-1.3,1.19l-0.04,2.08l1.97-1.01C18.332,5.73,18.582,5.35,18.592,4.92z
	 M9.672,3.93c1.17,0,2.12-0.88,2.12-1.96c0-1.09-0.95-1.97-2.12-1.97c-1.18,0-2.13,0.88-2.13,1.97C7.532,3.05,8.492,3.93,9.672,3.93
	z"/>
</svg>
