<?xml version="1.0" encoding="utf-8"?>
<!-- Generator: Adobe Illustrator 16.0.0, SVG Export Plug-In . SVG Version: 6.00 Build 0)  -->
<!DOCTYPE svg PUBLIC "-//W3C//DTD SVG 1.1//EN" "http://www.w3.org/Graphics/SVG/1.1/DTD/svg11.dtd">
<svg version="1.1" id="Layer_1" xmlns="http://www.w3.org/2000/svg" xmlns:xlink="http://www.w3.org/1999/xlink" x="0px" y="0px"
	 width="34.005px" height="30px" viewBox="0 0 34.005 30" enable-background="new 0 0 34.005 30" xml:space="preserve">
<g>
	<path fill="#373F46" d="M33.683,16.78L17.762,0.33c-0.42-0.44-1.1-0.44-1.52,0L0.322,16.78c-0.43,0.44-0.43,1.14,0,1.57
		c0.2,0.22,0.48,0.33,0.76,0.33c0.27,0,0.55-0.11,0.76-0.33l15.16-15.66l15.16,15.66c0.42,0.43,1.11,0.43,1.52,0
		C34.112,17.92,34.112,17.22,33.683,16.78z"/>
</g>
<path fill="#373F46" d="M26.873,10.71c-0.48,0-0.87,0.51-0.87,1.14V28h-18V12.12c0-0.63-0.77-1.41-1.25-1.41s-0.75,0.51-0.75,1.14
	v17.02c0,0.62,0.39,1.13,0.88,1.13h20.24c0.49,0,0.88-0.51,0.88-1.13V11.85c0-0.63-0.39-1.14-0.88-1.14H26.873z"/>
</svg>
