<?xml version="1.0" encoding="utf-8"?>
<!-- Generator: Adobe Illustrator 16.0.0, SVG Export Plug-In . SVG Version: 6.00 Build 0)  -->
<!DOCTYPE svg PUBLIC "-//W3C//DTD SVG 1.1//EN" "http://www.w3.org/Graphics/SVG/1.1/DTD/svg11.dtd">
<svg version="1.1" id="Layer_1" xmlns="http://www.w3.org/2000/svg" xmlns:xlink="http://www.w3.org/1999/xlink" x="0px" y="0px"
	 width="32px" height="27px" viewBox="0 0 32 27" enable-background="new 0 0 32 27" xml:space="preserve">
<path fill-rule="evenodd" clip-rule="evenodd" fill="#3F444C" d="M26,11.57H12V5.79h14V11.57z M26,3.86H12c-1.11,0-2,0.86-2,1.93
	v5.78c0,1.07,0.9,1.93,2,1.93h14c1.1,0,2-0.86,2-1.93V5.79C28,4.72,27.11,3.86,26,3.86z M27,20.25h-6c-0.55,0-1,0.43-1,0.96
	c0,0.54,0.45,0.97,1,0.97h6c0.55,0,1-0.43,1-0.97C28,20.68,27.55,20.25,27,20.25z M17,20.25h-6c-0.55,0-1,0.43-1,0.96
	c0,0.53,0.45,0.97,1,0.97h6c0.55,0,1-0.43,1-0.97C18,20.68,17.55,20.25,17,20.25z M27,16.39h-6c-0.55,0-1,0.44-1,0.97
	c0,0.53,0.45,0.96,1,0.96h6c0.55,0,1-0.43,1-0.96C28,16.82,27.55,16.39,27,16.39z M17,16.39h-6c-0.55,0-1,0.44-1,0.97
	c0,0.53,0.45,0.96,1,0.96h6c0.55,0,1-0.43,1-0.96C18,16.82,17.55,16.39,17,16.39z M30,22.18c0,1.59-1.35,2.89-3,2.89H7.46
	C7.81,24.5,8,23.85,8,23.14V2.89c0-0.53,0.45-0.96,1-0.96h20c0.55,0,1,0.43,1,0.96V22.18z M29,0H9C7.34,0,6,1.3,6,2.89v20.25
	c0,1.07-0.9,1.93-2,1.93s-2-0.86-2-1.93V4.82c0-0.53-0.45-0.96-1-0.96S0,4.29,0,4.82v18.32C0,25.27,1.79,27,4,27h23
	c2.76,0,5-2.16,5-4.82V2.89C32,1.3,30.66,0,29,0z"/>
</svg>
