<?xml version="1.0" encoding="utf-8"?>
<!-- Generator: Adobe Illustrator 16.0.0, SVG Export Plug-In . SVG Version: 6.00 Build 0)  -->
<!DOCTYPE svg PUBLIC "-//W3C//DTD SVG 1.1//EN" "http://www.w3.org/Graphics/SVG/1.1/DTD/svg11.dtd">
<svg version="1.1" id="Layer_1" xmlns="http://www.w3.org/2000/svg" xmlns:xlink="http://www.w3.org/1999/xlink" x="0px" y="0px"
	 width="30.002px" height="30px" viewBox="0 0 30.002 30" enable-background="new 0 0 30.002 30" xml:space="preserve">
<path fill-rule="evenodd" clip-rule="evenodd" fill="#3F444C" d="M28.201,4.77c-0.6-0.36-1.26-0.53-1.94-0.53
	c-2.06,0-3.69,1.57-3.74,3.6l-0.07,3.28c-2.66-0.12-5.22-0.93-7.48-2.34l-1.37-0.86c-0.36-0.2-0.71-0.29-0.75-0.3
	c-1.46-0.47-2.91,0.11-3.45,1.45l-3.24,7.99c-0.12,0.3-0.34,1.07-0.34,1.62c-0.03,3.02-1.58,5.82-4.12,7.47l-0.91,0.6
	c-0.82,0.53-1.03,1.61-0.5,2.41c0.55,0.8,1.64,1.02,2.45,0.49l0.91-0.6c2.62-1.7,4.5-4.31,5.29-7.31c2.54,1.92,4.71,4.21,6.47,6.86
	l0.42,0.62c0.34,0.5,0.9,0.78,1.47,0.78c0.33,0,0.67-0.1,0.98-0.29c0.81-0.53,1.03-1.61,0.49-2.41l-0.4-0.62
	c-1.99-2.97-4.44-5.56-7.28-7.7l1.25-3.09c2.04,1.56,4.37,2.8,6.83,3.61l0.55,0.17c0.18,0.06,0.37,0.09,0.56,0.09
	c0.74,0,1.42-0.45,1.68-1.19c0.19-0.55,0.07-1.11-0.26-1.55l1.47-2.35h0.31c0.98,0,1.78-0.81,1.78-1.77l-0.02-0.21l2.82-1.54
	c1.17-0.63,1.91-1.83,1.94-3.16C30.031,6.67,29.351,5.46,28.201,4.77z M13.851,12.17c2.25,1.27,4.75,2.07,7.32,2.34l-1.01,1.64
	c-2.37-0.79-4.56-2.04-6.45-3.65L13.851,12.17z M27.211,9.62l-2.99,1.63l0.06-3.37c0.02-1.2,1.03-1.92,1.98-1.92
	c0.37,0,0.71,0.11,1.03,0.29c0.6,0.37,0.96,1,0.95,1.71C28.211,8.66,27.831,9.28,27.211,9.62z M11.441,3.19
	c0-1.77,1.45-3.19,3.24-3.19c1.78,0,3.23,1.42,3.23,3.19c0,1.75-1.45,3.18-3.23,3.18C12.891,6.37,11.441,4.94,11.441,3.19z"/>
</svg>
