<?xml version="1.0" encoding="utf-8"?>
<!-- Generator: Adobe Illustrator 16.0.0, SVG Export Plug-In . SVG Version: 6.00 Build 0)  -->
<!DOCTYPE svg PUBLIC "-//W3C//DTD SVG 1.1//EN" "http://www.w3.org/Graphics/SVG/1.1/DTD/svg11.dtd">
<svg version="1.1" id="Layer_1" xmlns="http://www.w3.org/2000/svg" xmlns:xlink="http://www.w3.org/1999/xlink" x="0px" y="0px"
	 width="35.998px" height="32px" viewBox="0 0 35.998 32" enable-background="new 0 0 35.998 32" xml:space="preserve">
<path fill-rule="evenodd" clip-rule="evenodd" fill="#373F46" d="M31.518,15.96c-1.89,2.77-4.79,4.85-8.64,6.23
	c3.82-4.4,4.89-11.33,5.08-16.19h5.96C34.098,7.74,34.178,12.04,31.518,15.96z M4.488,15.96c-2.67-3.92-2.58-8.22-2.41-9.96h5.97
	c0.18,4.86,1.2,11.79,5.07,16.13C9.277,20.81,6.368,18.72,4.488,15.96z M10.018,2.97c0.01-0.55,0.45-0.97,1-0.97h13.97
	c0.55,0,0.99,0.42,0.94,0.97c0.18,5.06-0.36,17.04-7.93,20.44C10.428,20.01,9.888,8.03,10.018,2.97z M35.768,4.79
	c-0.1-0.46-0.51-0.79-0.98-0.79h-6.79l-0.01-1.08C27.948,1.28,26.567,0,24.978,0h-13.96c-1.64,0-2.96,1.28-3,2.92
	C8.007,3.25,8.007,3.61,8.007,4h-6.8c-0.47,0-0.88,0.33-0.97,0.79c-0.06,0.27-1.31,6.51,2.58,12.26c2.6,3.85,6.86,6.5,12.65,7.92
	c0.9,0.22,1.53,1.01,1.53,1.93V30h-6c-0.55,0-1,0.45-1,1s0.45,1,1,1h13.95c0.55,0,0.94-0.45,0.94-1s-0.34-1-0.94-1h-6v-3.09
	c0-0.92,0.63-1.72,1.52-1.94c5.8-1.42,10.06-4.06,12.66-7.92C37.078,11.3,35.817,5.06,35.768,4.79z"/>
</svg>
