<?xml version="1.0" encoding="utf-8"?>
<!-- Generator: Adobe Illustrator 16.0.0, SVG Export Plug-In . SVG Version: 6.00 Build 0)  -->
<!DOCTYPE svg PUBLIC "-//W3C//DTD SVG 1.1//EN" "http://www.w3.org/Graphics/SVG/1.1/DTD/svg11.dtd">
<svg version="1.1" id="Layer_1" xmlns="http://www.w3.org/2000/svg" xmlns:xlink="http://www.w3.org/1999/xlink" x="0px" y="0px"
	 width="34px" height="34px" viewBox="0 0 34 34" enable-background="new 0 0 34 34" xml:space="preserve">
<path fill-rule="evenodd" clip-rule="evenodd" fill="#3F444C" d="M24.53,11.13L8.24,21.24l-1.57-2.48L22.96,8.64L24.53,11.13z
	 M13.29,29.28l-4.27-6.8l9.39-5.82l4.29,6.85l-3.96,2.44c-0.75,0.44-1.56,0.92-2.39,1.43L13.29,29.28z M14.06,32.62
	c0.59,0.06,1.26,0.41,1.87,0.41l-1.82-2.44l3.06-1.89c0.84-0.52,1.63-1.02,2.35-1.5l3.96-2.45l3.5,5.12
	c0.41-0.28,0.82-0.77,1.2-1.09l-8.52-12.89l5.64-3.51l6.66,10.71c0.28-0.51,0.44-0.89,0.67-1.42L23.44,6.61L0.93,20.47
	c0.15,0.47,0.51,1.21,0.7,1.67l3.79-2.61l1.57,2.48l-3.79,3c0.25,0.42,0.29,0.98,0.58,1.38l3.99-3.14l4.27,6.81l-2.52,1.22
	l0.14-0.08c0.54,0.29,1.25,0.7,1.82,0.93l0.22,0.18l1.16-0.94L14.06,32.62z"/>
<path fill-rule="evenodd" clip-rule="evenodd" fill="#3F444C" d="M1.89,17C1.89,8.65,8.65,1.89,17,1.89S32.11,8.65,32.11,17
	S25.35,32.11,17,32.11S1.89,25.35,1.89,17z M0,17C0,7.61,7.61,0,17,0s17,7.61,17,17s-7.61,17-17,17S0,26.39,0,17z"/>
</svg>
