<?xml version="1.0" encoding="utf-8"?>
<!-- Generator: Adobe Illustrator 16.0.0, SVG Export Plug-In . SVG Version: 6.00 Build 0)  -->
<!DOCTYPE svg PUBLIC "-//W3C//DTD SVG 1.1//EN" "http://www.w3.org/Graphics/SVG/1.1/DTD/svg11.dtd">
<svg version="1.1" id="Layer_1" xmlns="http://www.w3.org/2000/svg" xmlns:xlink="http://www.w3.org/1999/xlink" x="0px" y="0px"
	 width="33.3px" height="23.39px" viewBox="0 0 33.3 23.39" enable-background="new 0 0 33.3 23.39" xml:space="preserve">
<g>
	<path fill-rule="evenodd" clip-rule="evenodd" fill="#3F444C" d="M4.35,23c0.17-0.11,0.29-0.26,0.39-0.47l8.8-20.51
		c0.06-0.13,0.09-0.27,0.09-0.44c0-0.25-0.08-0.47-0.24-0.64C13.24,0.77,13,0.67,12.71,0.67H0.93c-0.25,0-0.47,0.1-0.66,0.27
		S0,1.33,0,1.58c0,0.28,0.08,0.5,0.27,0.67S0.68,2.5,0.93,2.5h10.86l-0.4-0.4L2.91,21.8c-0.06,0.17-0.09,0.33-0.09,0.48
		c0,0.25,0.09,0.47,0.29,0.64c0.21,0.16,0.44,0.25,0.71,0.25C4,23.17,4.18,23.11,4.35,23z"/>
	<path fill-rule="evenodd" clip-rule="evenodd" fill="#3F444C" d="M15.24,23.08c0.34,0,0.62-0.11,0.81-0.33
		c0.19-0.22,0.3-0.51,0.3-0.89v-0.7c0-0.38-0.11-0.67-0.3-0.89c-0.19-0.22-0.47-0.33-0.81-0.33h-0.23c-0.36,0-0.65,0.11-0.83,0.33
		c-0.19,0.22-0.28,0.51-0.28,0.89v0.7c0,0.38,0.09,0.67,0.28,0.89c0.18,0.22,0.47,0.33,0.83,0.33H15.24z M15.24,9.74
		c0.34,0,0.62-0.11,0.81-0.33c0.19-0.22,0.3-0.52,0.3-0.89V7.85c0-0.38-0.11-0.69-0.3-0.91c-0.19-0.22-0.47-0.34-0.81-0.34h-0.23
		c-0.36,0-0.65,0.12-0.83,0.34c-0.19,0.22-0.28,0.53-0.28,0.91v0.67c0,0.37,0.09,0.67,0.28,0.89c0.18,0.22,0.47,0.33,0.83,0.33
		H15.24z"/>
	<path fill-rule="evenodd" clip-rule="evenodd" fill="#3F444C" d="M23.37,20.81c-0.82-0.5-1.43-1.14-1.85-1.93
		c-0.42-0.8-0.62-1.64-0.62-2.55c0-1,0.22-1.92,0.67-2.77c0.44-0.84,1.06-1.51,1.87-2.03c0.82-0.5,1.8-0.76,2.96-0.76
		c1.07,0,1.98,0.26,2.73,0.78c0.74,0.53,1.28,1.2,1.66,2.01c0.37,0.83,0.56,1.72,0.56,2.68c0,1.04-0.22,1.96-0.66,2.76
		c-0.43,0.81-1.04,1.44-1.81,1.88c-0.76,0.45-1.64,0.67-2.64,0.67C25.12,21.55,24.16,21.31,23.37,20.81z M29.9,22.39
		c1.04-0.67,1.87-1.54,2.48-2.64c0.61-1.08,0.92-2.25,0.92-3.51c0-0.94-0.17-1.85-0.48-2.72c-0.31-0.88-0.78-1.66-1.38-2.35
		c-0.59-0.68-1.29-1.25-2.09-1.65c-0.81-0.41-1.7-0.61-2.67-0.61c-0.91,0-1.75,0.17-2.53,0.5s-1.49,0.76-2.11,1.31
		c-0.63,0.55-1.11,1.17-1.47,1.86l0.67-0.41c0.22-1.09,0.58-2.15,1.11-3.22c0.52-1.06,1.14-2.04,1.89-2.96
		c0.75-0.91,1.56-1.72,2.44-2.43c0.87-0.7,1.75-1.25,2.65-1.64c0.25-0.07,0.46-0.2,0.58-0.36C30.04,1.41,30.1,1.22,30.1,1
		c0-0.36-0.11-0.61-0.31-0.76C29.58,0.08,29.37,0,29.12,0c-0.11,0-0.25,0.03-0.43,0.06c-1.28,0.5-2.45,1.19-3.48,2.05
		c-1.05,0.86-1.95,1.83-2.74,2.92c-0.78,1.1-1.43,2.24-1.95,3.46c-0.53,1.21-0.92,2.42-1.19,3.61c-0.26,1.18-0.39,2.28-0.39,3.29
		c0,1.02,0.14,2,0.44,2.96s0.75,1.82,1.34,2.57c0.6,0.75,1.36,1.36,2.3,1.8c0.92,0.44,2.02,0.67,3.28,0.67
		C27.65,23.39,28.83,23.06,29.9,22.39z"/>
</g>
</svg>
