<?xml version="1.0" encoding="utf-8"?>
<!-- Generator: Adobe Illustrator 16.0.0, SVG Export Plug-In . SVG Version: 6.00 Build 0)  -->
<!DOCTYPE svg PUBLIC "-//W3C//DTD SVG 1.1//EN" "http://www.w3.org/Graphics/SVG/1.1/DTD/svg11.dtd">
<svg version="1.1" id="Layer_1" xmlns="http://www.w3.org/2000/svg" xmlns:xlink="http://www.w3.org/1999/xlink" x="0px" y="0px"
	 width="32px" height="31px" viewBox="0 0 32 31" enable-background="new 0 0 32 31" xml:space="preserve">
<path fill="#3F444C" d="M30.88,2.85h-3.35c-0.61,0-1.12,0.48-1.12,1.07s0.51,1.07,1.12,1.07h2.25v23.87H2.23V4.99h2.98
	c0.61,0,1.12-0.48,1.12-1.07S5.82,2.85,5.21,2.85H1.12C0.51,2.85,0,3.33,0,3.92v26.01C0,30.52,0.51,31,1.12,31h29.76
	c0.61,0,1.12-0.48,1.12-1.07V3.92C32,3.33,31.49,2.85,30.88,2.85z"/>
<path fill-rule="evenodd" clip-rule="evenodd" fill="#3F444C" d="M22.88,0h-1.1c-0.63,0-1.13,0.48-1.13,1.07v4.99
	c0,0.59,0.5,1.07,1.13,1.07h1.1c0.61,0,1.12-0.48,1.12-1.07V1.07C24,0.48,23.49,0,22.88,0z M10.05,7.13c0.61,0,1.11-0.48,1.11-1.07
	V1.07c0-0.59-0.5-1.07-1.11-1.07H8.93C8.32,0,7.81,0.48,7.81,1.07v4.99c0,0.59,0.51,1.07,1.12,1.07H10.05z M26.22,11.23
	c0-0.59-0.49-1.07-1.1-1.07h-2.6c-0.63,0-1.12,0.48-1.12,1.07v1.78c0,0.59,0.49,1.07,1.12,1.07h2.6c0.61,0,1.1-0.48,1.1-1.07V11.23z
	 M18.41,11.23c0-0.59-0.49-1.07-1.1-1.07h-2.79c-0.63,0-1.12,0.48-1.12,1.07v1.78c0,0.59,0.49,1.07,1.12,1.07h2.79
	c0.61,0,1.1-0.48,1.1-1.07V11.23z M5.59,11.23v1.78c0,0.59,0.49,1.07,1.1,1.07h2.62c0.61,0,1.11-0.48,1.11-1.07v-1.78
	c0-0.59-0.5-1.07-1.11-1.07H6.69C6.08,10.16,5.59,10.64,5.59,11.23z M25.12,16.22h-2.6c-0.61-0.01-1.12,0.46-1.12,1.06v1.79
	c0,0.59,0.49,1.07,1.12,1.07h2.6c0.61,0,1.1-0.48,1.1-1.07v-1.79C26.22,16.7,25.73,16.22,25.12,16.22z M18.41,17.28
	c0-0.58-0.49-1.06-1.1-1.06h-2.79c-0.61-0.01-1.12,0.46-1.12,1.06v1.79c0,0.59,0.49,1.07,1.12,1.07h2.79c0.61,0,1.1-0.48,1.1-1.07
	V17.28z M10.42,17.28c0-0.58-0.5-1.06-1.11-1.06H6.69c-0.61,0-1.1,0.48-1.1,1.06v1.79c0,0.59,0.49,1.07,1.1,1.07h2.62
	c0.61,0,1.11-0.48,1.11-1.07V17.28z M17.31,22.09h-2.79c-0.63,0-1.12,0.48-1.12,1.07v1.78c0,0.59,0.49,1.07,1.12,1.07h2.79
	c0.61,0,1.1-0.48,1.1-1.07v-1.78C18.41,22.57,17.92,22.09,17.31,22.09z M9.31,22.09H6.69c-0.61,0-1.1,0.48-1.1,1.07v1.78
	c0,0.59,0.49,1.07,1.1,1.07h2.62c0.61,0,1.11-0.48,1.11-1.07v-1.78C10.42,22.57,9.92,22.09,9.31,22.09z M17.48,2.85h-3.15
	c-0.61,0-1.12,0.48-1.12,1.07s0.51,1.07,1.12,1.07h3.15c0.63,0,1.12-0.48,1.12-1.07S18.11,2.85,17.48,2.85z"/>
</svg>
