<?xml version="1.0" encoding="utf-8"?>
<!-- Generator: Adobe Illustrator 16.0.0, SVG Export Plug-In . SVG Version: 6.00 Build 0)  -->
<!DOCTYPE svg PUBLIC "-//W3C//DTD SVG 1.1//EN" "http://www.w3.org/Graphics/SVG/1.1/DTD/svg11.dtd">
<svg version="1.1" id="Layer_1" xmlns="http://www.w3.org/2000/svg" xmlns:xlink="http://www.w3.org/1999/xlink" x="0px" y="0px"
	 width="35.998px" height="32px" viewBox="0 0 35.998 32" enable-background="new 0 0 35.998 32" xml:space="preserve">
<path fill="#373F46" d="M35.989,21.986c-0.032,0.979-0.485,1.893-1.196,2.503l-6.313,5.05c-0.826,0.709-1.853,1.078-2.916,1.078
	H0.945C0.395,30.617,0,30.166,0,29.616s0.451-1.002,1.001-1.002h24.563c0.608,0,1.197-0.207,1.672-0.587l6.302-5.042
	c0.642-0.508,0.688-1.47,0.055-2.041c-0.241-0.219-0.548-0.328-0.86-0.328c-0.32,0-0.649,0.117-0.915,0.328l-3.856,3.08
	c-0.478,0.376-1.063,0.579-1.665,0.579H14.962c-0.547,0-1.001-0.454-1.001-1c0-0.548,0.454-1.001,1.001-1.001h5.506
	c0.83,0,1.502-0.673,1.502-1.5c0-0.83-0.672-1.503-1.502-1.503h-9.129c-0.861,0-1.706,0.281-2.401,0.799l-2.933,2.207L0.945,22.55
	C0.451,22.55,0,22.156,0,21.549s0.451-1.001,1.001-1.001h4.334l2.409-1.798c1.03-0.73,2.299-1.15,3.595-1.15h9.037
	c1.76,0,3.363,1.236,3.613,2.987c0.109,0.719-0.008,1.415-0.297,2.017h2.604c0.154,0,0.304-0.053,0.425-0.149l3.846-3.079
	c0.61-0.493,1.384-0.759,2.167-0.759c0.82,0,1.603,0.297,2.197,0.837C35.614,20.116,36.076,21.061,35.989,21.986z"/>
<path fill="#373F46" d="M0.013,10.276c0.032-0.978,0.485-1.892,1.196-2.502l6.313-5.049c0.826-0.709,1.852-1.078,2.916-1.078h24.616
	c0.551,0,0.944,0.451,0.944,1s-0.45,1.002-1,1.002h-24.56c-0.608,0-1.197,0.207-1.671,0.587L2.464,9.278
	c-0.642,0.508-0.688,1.469-0.055,2.041c0.241,0.219,0.548,0.328,0.86,0.328c0.32,0,0.649-0.117,0.915-0.328l3.856-3.08
	C8.519,7.863,9.104,7.66,9.706,7.66h11.332c0.547,0,1.001,0.454,1.001,1c0,0.548-0.454,1.001-1.001,1.001h-5.506
	c-0.83,0-1.502,0.672-1.502,1.5c0,0.83,0.672,1.503,1.502,1.503h9.128c0.861,0,1.706-0.281,2.401-0.799l2.933-2.207l5.06,0.056
	c0.494,0,0.944,0.394,0.944,1c0,0.607-0.45,1.001-1,1.001h-4.334l-2.409,1.798c-1.029,0.73-2.299,1.15-3.595,1.15h-9.035
	c-1.76,0-3.363-1.236-3.613-2.987c-0.109-0.719,0.008-1.415,0.297-2.016H9.704c-0.154,0-0.304,0.053-0.425,0.149l-3.845,3.079
	c-0.61,0.493-1.383,0.759-2.167,0.759c-0.82,0-1.603-0.297-2.197-0.837C0.388,12.146-0.074,11.202,0.013,10.276z"/>
</svg>
